<mxfile host="Electron" agent="Mozilla/5.0 (Windows NT 10.0; Win64; x64) AppleWebKit/537.36 (KHTML, like Gecko) draw.io/26.0.16 Chrome/132.0.6834.196 Electron/34.2.0 Safari/537.36" version="26.0.16">
  <diagram name="Page-1" id="HOlMh7EPr4-U6K0Tnx8P">
    <mxGraphModel dx="1356" dy="885" grid="1" gridSize="10" guides="1" tooltips="1" connect="1" arrows="1" fold="1" page="1" pageScale="1" pageWidth="1169" pageHeight="827" math="0" shadow="0">
      <root>
        <mxCell id="0" />
        <mxCell id="1" parent="0" />
        <mxCell id="cd4jFE94toDSuEVt0TMR-7" value="Image" style="locked=1;" parent="0" />
        <mxCell id="cd4jFE94toDSuEVt0TMR-1" value="" style="shape=image;aspect=fixed;image=data:image/png,iVBORw0KGgoAAAANSUhEUgAAAhwAAASwCAYAAACw8JPTAAAAAXNSR0IArs4c6QAAIABJREFUeF7snQW4FdXXxhelEoIigiJgJyp2YGB3ByJ2d7f+Vezu7u7uDuxAxQS7EEVQlJLm+34zbJg7d+acmXPOnLj3Xc/jo94zs+Pd9e5V02TatGnTTCIEhIAQEAJCQAgIgQwRaCLCkSG6KloICAEhIASEgBDwEBDh0EQQAkJACAgBISAEMkdAhCNziFWBEBACQkAICAEhIMKhOSAEhIAQEAJCQAhkjoAIR+YQqwIhIASEgBAQAkJAhENzQAgIASEgBISAEMgcARGOzCFWBUJACAgBISAEhIAIh+aAEBACQkAICAEhkDkCIhyZQ6wKhIAQEAJCQAgIAREOzQEhIASEgBAQAkIgcwREODKHWBUIASEgBISAEBACIhyaA0JACAgBISAEhEDmCIhwZA6xKhACQkAICAEhIAREODQHhIAQEAJCQAgIgcwREOHIHGJVIASEgBAQAkJACIhwNJA58NZbb1mzZs2sS5cuNt9881nTpk0bSM/UDSEgBISAEGgICIhwlHgUx48fb7/++qstvPDC9t1339lCCy1kzZs3L2ktQ4cOtSZNmtjo0aNt3LhxRp1PPPGEjR071lq1amWdO3e2tdZay5ZZZpmS113SjkQUNnHiRPvll1/szz//tFGjRnl9mzZtmrVo0cJat25tc801l3Xt2tXmnHPOrJui8oWAEBACQqCECIhwlBBMDsbXXnvN1llnHU/DMGbMGPvkk0+8w78UMnnyZHv99dft5Zdf9ojMNttsY7PPPrt3GP/www82YsQI+/bbb23QoEFe3SussIJtu+22JTmchw0b5pU7ZMgQox30de6557YllljCFlxwQU+7UohQzu+//27vvfee13aIRsuWLb2y+QcCBbmCiPz9999GOyAiPEO9K664oteGWWedtZDq9U4VIcC4vvvuu9arVy+bbbbZIlvGeppllllsqaWW8uZFY5TBgwfbl19+aT///LP99ddfMyCAjM8///zWvXt3b00UIqzFf//911t33bp1m1HE1KlTZ1wC+CPrj/p4rlTyyiuv2Prrr19Qcc8//7y3NzjZeOONbZ555imoLL2UHQIiHCXElsPy008/tQ033HBGqQ8//LD3/+3atSuqpkmTJtnjjz9u/fv397QnEIkFFligXpkc4BAPiA9mFswr++23n7Vv376g+tGgvPTSS95mQ71sMhz+aG3QPkB0+H/6iDknrYDX3XffbT169PA2CEgF7efw4f932203j8xw0DzzzDPWpk0bry+QkSlTptjHH3/saXT23XfftFXr+SpC4LfffrN77rnH+Pc+++xjSy+9tDe/GGOIBYSSeXDBBRd4B8v2229vPXv2TEV0J0yYYE8++aSngUQol/XihDm9ySab2LzzzmsPPPCANwcR5txOO+1U9BouBm4O/Pfff9+effZZby0irEV36LNOIR+OgHTs2NE222wzW3XVVRObV9GY/vjjjzP6zKXGyffff+9pUMEC3LjQIDyD5rFYefDBB23gwIF27rnnpirqv//+87S8N998s7cXOWHP40ICPpLqQUCEo4RjwWa2/PLLeyp/J1988YVn+lh99dWLqunFF1/0Nks2EMgGCz+XsFF/8MEH3sa52GKL2V577eXdStIINx02ArdwMRGh5Rg5cqS30UOi0KJ06tTJPvzwQ1tvvfVs8cUXT1OFuY30ueee8zZSDgDKZlNDk7LFFlvYsssua5dddplxYKA5om88x+1q5ZVX9jQ9pbxppeqAHi4KAcbxm2++sTvuuMMbX8YSovn22297N3gOOYgAByiklLl8//33GwcgJJdDNal2iwPpoosu8uYc84X5ygHO/zvh8DzxxBO9wx2C6wjJ0UcfnXpuFwVM4OXhw4fbrbfe6h2obdu2tY022shbd1GHKYQDEs5+AWGCEEDG8x28rCnGAeFyw/7iCIcjIhAxiD7CpQDTLnsAWpVihD0G7QZtTEM46OcNN9yQs2ouI6effnoxzYt8lzH5/PPPrUOHDp7pOqhtY85ccsklHnGW6bcufCIcJZqKbFqXX365HXzwwXXUwSz6hx56yJt8hcoff/zhlc2Cp5x8ZMPVQ5teeOEFb+PcbrvtvA02qbDp3HfffZ4WhY2Fmw/vs4DZHAYMGOBtTBCARRdd1PvtnXfe8epJq8oEo+uuu87bxHbeeWfvUOGmS58R1OvcYlC1cyBBeNAc4evRt29fz6wiqU0EIBk33XSTMcd33HFHj9C++eab3pijUYNoMPYctmzy/D/aBkwvaMeOOOIIjxAnEUwREFeENYS2BFU86yNIOphjmBOuvfZaj/QiRx11VGIzBZoZtzboR6HmRuqF5F9//fUe8dp66609spHEIZz6Waf4dkGuDjroIFtkkUViYYLcccFgvf/00091CAcXAcaHdelMXeDC3+gb+1Kh4sgG76clHE8//bQ99dRTnhkm6sKBxgRtVpiUYI5izNnX2Kswv3BRdILZGCIK9vQT4rXlllvOIFaUydxYaaWVvH0RzW6fPn1mvA8RYr7usMMOqWBhzDArc7Hkv0899dR676O5Zn2wV4I7bYd8JhFHuLmk7b333jNeyYdHkrKTPiPCkRSpiOfc7Qd2y4Zw1VVX2fHHH19nQ+DmcOGFF9qxxx7r3dScGjeN/ZlFiXnk8MMP9zZXtAkfffSR57uBf4iz17JZ4wuBupPn8CXB3s3BjdmDTTMpWWHRsJjYYFh8bMAsIMplETJJ77rrLq/fCHZjJjIbFwdH2k2WDZ8NDEKDcMiccsop3r+dQEboE+LU3dz4JLWNAGY0VOMckMzf1VZbzbbaaiubY445vL8zzzlkIbkQTebKkUce6f0GKUlyAINQmHBwC4Uc4BMVJB0cJBww559/vldHUsLBGmOd8g9mHw5B1gV9KdSkSRtYh5gW11xzzdQDTVtYp6xbNDdRAoHnEKWNHJ6fffZZJOFYcsklvbHgMAwKfytE0L6++uqrHhFiHbN3pNFwOMKBFiFqDrAPQmiDhIND94orrrD999/f2ze5tEDoILEc3O7iiDYNkx0CAYDgnnnmmV47b7nlFo98sfdS/kknneRpUdD2sN9ffPHFdsghhyTeax12Dg/+n3EIEw6IBn0+7LDDPKIEIaJvkO4o83pwTGjnOeec4+3d4O0IRz48ChnXXO+IcBSI6D///OMtFogDGwsLGrMANxAmJQPLILM42czYRDmc0QTw/2xqQaesuGZQD7cy2D+3FA762267zdvI2Axh6UxA6rnmmms81ouJA0JCHRzSTFQmM2rhXLcc1wYWHTZRCATqazbSAw44wLtdsrjpMwc+t4s33njDe40FD8v/+uuvvQ02rZYjqv9nnXWW56SKUCdkLmhXLnDoYl/76quvvNsdixenREn5EIBEYzZYd911PWLLfGLenXbaad4tjr8jHBCXXnqpN0aHHnpoqiisMOE477zzPA3Apptu6jljO9LBGtlzzz29w88R3nwaDg6aRx991NsTaBumRYgUt2wOctZuLnIMsY+6hKDVgXRA4P/3v//lLCM8WqzRs88+2zsETz755EizChhzq6Z8DlFwz0c4wJH3EC40hTiocsjjlwXWXKTYZ9g7CiEc+WZpkHAwx8AZE7MTyAR79xlnnOH9xv4XJDDs2+yd7IGQEg5u5gf+cQjzkT2PvmAKZM/efPPN8zUr9vdHHnnE2IvChANNIGbxXXfddca7/A0zF1o5xhnCztzD1BMU9n/OCs4RziZHOJLgUXBHIl4U4SgQTQ5CJh4Ti0HmMOaQZbNBk4ENGJYKKeC2w4bCQoZwcOtg80hi34M4cEOhHmzWEAE23WOOOcbbDJnslAm5wF8E1SAbG1oNJiCLmfr5/969e3vEJ5+groNM0H4mP/+GRXMDYVHRF25E9AeVtNt8cPTDvEK/8DUpVtgo0LS4jQ3iVeoQY9dGNhyccp2wgDmIJNkjgJaBWydrhdui88lgXkGmw2OBRgJNB1qONIddmHBwuPXr18+7LOyyyy4e6eAGyRpmQ05DOLhtMj9ZX5B854uEXwSaT2eaiUOTdRznfEkZrF98JTj4nEYBzYeLSENziQbCmZe4gFAmBBqyBJmIEvYG/oFwOK0kuHPgcrihQYL0EL3C2uZv7A/sLbxXCOFwZIOy2VcYb3x4ykE4rrzySk+LGjR3YEriMsMFh308LPSf/dqRTubFHnvsMYNwoCnD3MX4oN3gubgoqySrKY5wYB7n7EBbjjYFYsQZtMEGG3g+gswT2sJ/Q4icMEcwAaExZp9jbjrCUQgeSfoQ94wIR4HoQTi4PaB6hXCgVWCRs4g4mGGZbKTYmWHFLHxsoSzWtdde21PhJREmCLcwbkio+VDnUT6TjgmHHRofBreAuDXwO6ydicg/OH1xS0Ili5NdPmHzhOjQH7QjOMGyiJjQbFxsjPSN/rBJw7CxLaLpQcNDH2H8xQo3RhYZwm2C225WQv+C5hv64uz9WdWpcn0EOLhQV0PwcBJ2Ekc4uLmzeaLSxnyX1DwZRTi41XJYcyOEdDDfmP/cgNMQDsyOEKETTjjBI05cEnB2Zn/AFMStN0rYH6gvF+HgPTSJRPFwmOAnxcWDAzosrE8iNB577DHPp4o+sd/ECVg686R7Bs0M5IOQe7SwrHXWPjhx+YDwcOtHHZ+WcDiyQV1g7zSh5SIc9957r+cfxv7p5g2XQ276XOKCxIz9D60A2gEOeHCFiPEsFy9wBRtIMn3BSR/B7Ms7jDt7I2OQxrE2jnBA8ojoQ2uGuYd5xh4M8eYixu/s+5Bwp+HgGdYWl1IurGjHg4QjDR6l2K9EOApE0REOVPxsmKjbuB1xw0BFyd9hlpACbh6waNT0bBqoypI6Wjk7JepjvKGZ1GxmlMUEQ/XGZHKEg40G72nqg9Ssssoq3oaShnCwuaAtYVOBUaMxwf7rPN1ZiDzDYuMZtBD8vwvF4zYE4y9WaAO3QwRShd01KxHhyArZ/OUyd5xdHVIdJhyYVDhkg8KNEyLsDoH8tdT34YBQcGmgDLRb3LQ50AkD33333VMRDg4YzEKsbeffhEYAjQTrNCgcWhx2/B2Hcsh6PsLB+6x71iPtxFwbJ+53DkQOu7QSNqnwvtOEhMtymt0kdQTJBs+Dv9tTykU4uAwRqYSWA00W/aIPXOyCkUgQDUgEwl6LRgAChoSdRpmHXLDQQkFkGE+iqHgHUsjc4NBP6tcWRzi4ON54441eGzh/uCARgYTpO07AFVICmWLehQlHUjySjG+SZ0Q4kqAU8YwzqUA0br/9di9aglA0bv+wT24kTAgWv0uSg7mDaAw2F24GSQSbIPZNymcz5LCHxTKhuYXzO6YSTBjcCLl98G/aBNGA/XJj4bbOpr3GGmvkrZbFhi0apz1MK2yOLCTn/wFr5u9gwCLi9sY7kC1nSnE297yV5XiATZWFQp+5KQZvv8WUG/WuTCqlRjR5eY5wcPAvt9xyM17kQEZFjMaOzTsYjVQqwsGhwsHMumDN4ECJOjythgNtApcJVNn0AW0Klwr2A1T1wQRdOIByiKGxcw6YSQgHlxf8TjCp5hMOQfw2kjrUBstjXbNvuRBY9xv7GWuddnCjZn9IajoIk41KEQ7qZf/iMsP+iDYAInHcccd5WrOgXx1mMOYDeyz/YJ52KQ8ws0DMwIiLIP4/+Oqw9wd9OqiP8Wc+Jc1TFEU40EpAlCBJ7PfsjWiXcWjFvMPFMixoQtDGsFacqShMONLgkW/OJfldhCMJShHPEFGBjwEbIWpYCAS+C2gzWOQsSogGmyaaDjY1p57j8E5KOGDTOIOyMLh1UTYLnwnPJKcdkAq0KpAASAWTkonFwnKmEFSwaEloXz5hMmO6gTmjwkOTQe4PkiIhLDTsx2w6LFr+H1LDTRQWjqq7FM6dLDIWCywcW2/WjpxyGs03M7L5nRsYBz/mvrCzHXMdLRekg5BwSAfaOw4HwqTR7BVjUiG6gGgG/EQgy5AO1k1awoGmjwOBf7NW8GdiTaA54ZbLZYN1hPYjSDg4hCAmOFwnySfCWsBuHzT/hUeFiwj4hB0Hsxm9/KVGkY1KEo5wi1n3V199tXcpixsDfB3YzyHFYWHP4yLJ5YgLGASD55y5CM0H5sKkOYqiCIfTuEDAg5GGzC/MclG5Rtjz0brFCf5LUZr2JHjkH/XoJ0Q4CkXObIY3MwcjzJ8B5vAPqs4gHmxEqOuYzGEP6HzV8zyTGeIBC0cFCatFg4JdEbMJdkc2NzZLnnP1oOZjE2XB83cco5JuQjiDUg72ZWyR2KMPPPBAr2/c1ligsHs2f/xTYPdsmkxw1Lhpk4zF4cBtAXLDgVRoaGE+jPV7ZRFwTqMc1hyU4U3fkQ4IPRs5mkRMh5DQJATa9S7Kh4ONmlss5BnSgdMna4sbYxofDurAN4A9AJOiE8rlRsqFw9WPqQXtAH5S+KCkyY9DuVwuOHiCWVJdfZAv9po4J9Fyj3Qc2agmwsHFEdycyRYCGk4fwDNcHsmzFBYcmLlguXwYEBe0sYwzgjmFi2kxGg4ulsxVzpJgtBOaaMLJIaFJJErDEX4vjEeScpM+I8KRFKk8z6F+43BEoxCMS+e2ROgS6rhCBZ8MJgHOSNyesDuihYA8OLsiZbMxs+mhpoUMQE54F20FDkMsgqS3QYiEc1JDg4MmAw2Li7yhLvqJdgObNzdNNDlEy0BOSiU4NcHgWVBZRaiUqq0qp3AEcNyDMHP4cgiHxeXj4KaHvwc3M+csl7TWMOHAfwPfJjZzxJEONCeQHw6KpGGxrg2sPbQYmCU4GAhfd34KmEEhJEHBVOjyPSTtB8+5/Brhd9DMJIlES1NXoc/mIhuUWQkfDsggJmm0sYw3ZgkILD5q7JlooziUiTRCq4xGGR+1O++80/OXCCYIow9c9Hgekuf2VsrjosbzaAvw0ymFDwdaFoS2MaeYY5wLmAPRDqIp5Axir4/7Jk2YcOTDo9Cxj3tPhKOEiOKgw6EeTCOMvZUNqJgQS8gMpg0iUJhsaC2SEAcmE4seZg4RypfeOAwFtnXIBBsiCwf7JcyfGyEHAAQDZo8Jh4UKAWKiJ3WOSgI9UTLYx9HOJOlzkjL1TPUhwBwnsy2HAQcmTsfh7w+haeMZhPlAZFgaCRIONHBoU3DKJsrMCYcQeQ5Qf6MaT0s4crUHjUSUA2khfhbUw57A+nBCFBrmmmqQfGSjUoQDgkDUH3sXY4EWwqXTd7ihecJng8sbFzv8Ooj2i7pI4cjLJSuoaWMuk6wRbS8khvmUL+cSZhlM7VECMaYc2kI0FOcAGnXmP2QDgszeyEUU7YqLTowqK0w4kuBRyvkkwlFCNNnQ0AQEHXhwRsSeG/y+SiFVYsZAU8KkgsHilBlntsAMQ1vwjmYiw7RZEIUc2DB1wv3QbMD4WUyEqLJ5YkpBE4IDFjc5iEmptRDY7lFxV8tGWsjY6Z1kCLiPq6EmxhkRswBmNLQGzEMXUcB8LmQ9BU0RkGIOAsw0mCyDUR/UzQWBtYu5h3WDfd6pyJP1pjxPkfeBftG2uAOrPC2ZWUsSssHTmCCc0ynjCwHIOvFXubFQfXUREOEo4YzgMGaTQk2KcPBzg0LrUegtJtg8NlzUc84DnpugswdTPloHWDnqaRg8HvJoRHC2LKZ+bJqYNdB4sDG7sDvIBSwb51L+XQihyQc/fcLbutiP3+WrR79XBwKsGfI7YDLABAGBh1jjZU/0B/OgUP8gF13lIka4NWKihDCj5Qh+TwVC4rQRhFCSX6bQerNE1oVK4n8QNK9mWWeustG6BDVGuZ5FWxrclyB/+KklFZc/I9fzjDEaAkl1ICDCUeJx4MDn4GWT4tDnIC6lsyM3Lha0U/lxQ3BpkSE8kAO81LE1olpjwZWKCHDTRMXsPkxFPUnD4gqFGU2K+yx2oWXovdpDgMOf8G7+zfyF3Bb6zY7a671anBQBzLtBohh+D1KTJPonaX16rjgERDiKwy/ybQ5kd0PKapPkEMaBjjA5t+jQaOBHgUMdt4VS+lJkAJOKFAJCQAgIgUaEgAhHIxpsdVUICAEhIASEQKUQEOGoFPKqVwgIASEgBIRAI0JAhKMRDba6KgSEgBAQAkKgUgiIcFQKedUrBISAEBACQqARISDC0YgGW10VAkJACAgBIVApBEQ4KoW86hUCQkAICAEh0IgQEOFoRIOtrgoBISAEhIAQqBQCIhyVQl71CgEhIASEgBBoRAiIcDSiwVZXhYAQEAJCQAhUCgERjkohr3qFgBAQAkJACDQiBEQ4GtFgq6tCQAgIASEgBCqFgAhHpZBXvUJACAgBISAEGhECIhyNaLDVVSEgBISAEBAClUJAhKNSyKteISAEhIAQEAKNCAERjkY02OqqEBACQkAICIFKISDCUSnkVa8QEAJCQAgIgUaEgAhHIxpsdVUICAEhIASEQKUQEOGoFPKqVwgIASEgBIRAI0JAhKMRDba6KgSEgBAQAkKgUgiIcFQKedUrBISAEBACQqARISDC0YgGW10VAkJACAgBIVApBEQ4KoW86hUCQkAICAEh0IgQEOFoRIOtrgoBISAEhIAQqBQCIhyVQl71CgEhIASEgBBoRAiIcDSiwVZXhYAQEAJCQAhUCgERjkohr3qFgBAQAkJACDQiBEpCOKZMmWL8M23atEYEnboqBISAECgtAk2aNLFmzZp5/0iEQENDoCjCMXHiRJswYYJNnTq1oeGi/ggBISAEKoZA06ZNbdZZZ7VZZpmlYm1QxUKg1AgURDggGOPGjfO0GhIhIASEgBDIBgE0Ha1atTIIiEQI1DoCqQkHZGPMmDEyn9T6yKv9QkAI1AQCmFnatGkj0lETo6VG5kIgFeHARwOyIROKJpUQEAJCoHwIoOGAdEA+JEKgVhFIRTgwo0yaNKlW+6p2CwEhIARqFoEWLVp45hWJEKhVBBITDrQao0ePrtV+qt1CQAgIgZpHYPbZZ5dppeZHsfF2IDHhGD9+vBeRIhECQkAICIHKIEDkymyzzVaZylWrECgSgcSEA98NRaUUibZeFwJCQAgUgQBRK/hySIRALSKQmHCMGjVKkSm1OMJqsxAQAg0GAZxG27Zt22D6o440LgQSE45///23cSGj3goBISAEqhCBdu3aVWGr1CQhkB8BEY78GOkJISAEhEDVICDCUTVDoYakRKDqCMfAgQNtyJAh1qVLF1tuueVSdkePCwEhIAQaNgLVSDj++ecfe+WVV2zBBRe0FVZYoWEPgHpXMAJVQzj++usvO+WUU+zjjz+e0Rkm7kUXXWSEgkmEgBAQAkLArJoIxy+//GLXX3+9Pffcc97QvPrqqzbnnHPW1DCNHDnSbrjhBuvfv7/9/PPPRbV9/vnnt/XWW8/23XffmsOhqI4nfLkqCMf3339vJ554YuRgM4CQjgUWWCBhl/SYEBACQqDhIlAthOO2226zK6+8cka6BC6Id999d00BD2Hac8897Y8//ihpu+eZZx67/fbbrVu3biUtt1SFkcTz5ptv9i74jNsBBxzgfSwwaykb4eDLsl999ZUXWjvHHHMY///nn3/aW2+9ZU8//XTOkFu+mLjFFlvY6quvbvPOO6/3BUU0IoSILbXUUvqiYtazROULASFQNQhUmnCQj4kL4gsvvFAHk2222cbOPffcqsEpSUN69+5tX3zxhfco50ux5iAO8Hfffdcrb+mll7YHH3wwSTPK/syxxx5rzz777Ix6yzV2ZSEcqKrOPPPMvJlKt956a/vxxx/ts88+s+7du9t8881nL774Ys7BwNxy2mmnWa9evco+aKpQCAgBIVBuBCpNOI466qh6ZAMMNtpoI7v88svLDUfB9X3wwQeedgM58MAD7fDDDy+4rOCL559/vt15553en9D4FEtiStKoUCHLL798nUSeaDc++eSTLKqqU2bmhANNxHbbbWf//fdfbGeWXXZZ22uvvWzllVe2ww47zOs4gFx11VX2zjvv2C233GJff/117PstW7a0Rx991Oaaa67MAVMFQkAICIFKIlBJwoEZBRN3lGBGwIejViTYl/fff79kvoJ8AmTVVVf1YDjuuOO8s63aZMMNN7TffvttRrMw/Tz//POZNzNzwoEz0emnn+51ZI899rBFFllkBvlAO4Emo3379jM6GiYc7ofhw4d7qi9HXCAZ3333nd1xxx3eI2effbbHsIsVGC8L+oorrii2qKp4/++//7atttrKnnnmmXrOZrl+K6bxmMmOOeYYz0a4zDLLeEVF/S1JHYW+l6TsanwGm/Jjjz1mO+64o3Xu3Lkam5hJm1h3XBguueSSxOVnNX8TN6BCD1aKcIwYMcI4qHJ94oJL4vrrr18hZNJVe8011xj/IJj7SymY+pFDDjnE+6fa5PXXXzfMKvhycA6jmcKklLVkTjjwz8CcgjAZ0VzkkjjCEfUOmhCeRzCr4OdRrKQhHEOHDvXsYLvvvns9PxL63aFDB1tttdWKbVJR70M0YK5gH5ZcvxVTqQhH4ehdfPHF9tBDD9luu+1mhx56aOEF1dibhRCOrOZvtUNXKcJx6aWXepeIXLLEEkt42uZakMZMOBgfNDGDBw82xqxckaAiHKGVkYZwvPHGG57KDDVi69at65QECcF2d+SRR1Z07eHc1aNHD9t5553rtSPXb8U0WoSjcPS4tTOfuElW6mApvPWFv1kI4chq/hbei/K8Wc55gZM/zvn8e+211zZCSPNJlJaDw41yWrVqle/1sv3e2AlH2YAOVJQ54QiaVLLUcJxxxhm26aabFo1hGsLx1FNPeaacKMKBGYN47EoSDr7wu8kmm9g999zjOeAGJddvxYIowlEsgo3v/bSEI8v5W+3ol4twYDq57LLLvIiUoINlPnzC4bEEDeD38cQTT3iko1okDeEgIufWW2+1n376yRZeeGHbf//9bZ111ontSrWbVCo1BpkTjo8++sgOOuggr38XXnih9ezZM2df05hUcCgEhX+7AAAgAElEQVQ9/vjjvfKuu+46W3HFFYvGkY0PnxLUh2Q8/fDDD70ysW/hFIVMmzbN84mAaLz99tuebwqhugsttJB17drVc3rFB2TJJZecYVLZYYcdvHBgbPRE3uy9996e/QxnJfxT8G1hoTZt2rROH7jxsti5WSy66KKeSSq4aN977z3jg07OSSn4Mr9dffXVkbHxcb+NHTvWi83+9ddfPZJCueHPYeNs9Omnnxrf16Hd4B5sd1rCkatOVxYOXvQfLMCQ/Cy0LWoDy9e+4BhwcFEm5jFyvUSVyXijevz888+NjxgGhf67jYfn8DPCHozGa6WVVpoxZ9w7U6dO9crhGdSYq6yyinXs2HFGka5tEFb392B7wYqxYz6wqRF6h5DpkfXA7zhfp8lbQx4c2jR58mRvLMkWGRTGecCAATZs2DAPd55J8ol01O+LLbaYdzMOCiYj1gJaHCdRhAOfgccff9yb8+G1nWtuF70JVHkB5SIcHMgPPPCAocmNcxbdaaedjIsXe1lQMOPiiMhvJ5xwgufXEWXWrSTUSQmH60OwrZwFmM3jNDYiHNEjmznh+Oabb2zXXXf1asdJhXjfXJKGcLAZYfNGCD9icytWHOHgILnrrruMAwLBSRVSA4lgY15jjTXqVcUGSkp2FmdYiMdms3YHKI5EtDn4UTwIB05zbhITz33yySfXWcyLL76498zcc89tbMhbbrmlRzggQOEMf8TEs7EffPDB9doT9RupiS+44II6bYJ0sFHwbw4ciBgOR0FZc801vRuMIx1pCEe+Ol1Zp556qhdqFswEuMEGG9g555wzoylp20dmWzIMgqOTcJnc8v73v/95m26UoFXr16+fhxnlOYLKs82bN/c0XDiAIswbTHAQAycQVeZCnz59vD/lwo6bJlkdIRdO8PPA2ZJxQW2NQMIIzQsf9OH28zz+VcG+MZf22Wcf22+//bzHmVeUPWbMmBmv45t01lln5Q33g7wxP8EvKBxSrAUuIE7ChAPcuajw7xtvvLGeyTLX3I4cqAb0x3IQDuYG8wf8iRLkEuIcLINQMjaQX0hFUI444giPUG6//fZeGaUMOy3VUCYhHKzZjTfe2MsZRZIz9n0uC6wx5xAf1Z5qJxykn2BPdYm/2PfDWvBS4RwsJ3PCwebookcgHky8XJKGcLD5usx2aA04XIsVNr5BgwZ5N0cOezZGtDTEnq+77rp1Djg8e++77756JhVumZhT8JsIm1TcgQI5IO6bMrGP3nvvvd7CBiPnCIvjIAnSUGty22WSQLJYzBxULGTIBJOfxdOiRYsZ3YcokdeETR2SFJSo39BYUBZEi4MTbQ3Z97iNciBSH/VD8AjzAh9u9EQJQbD4+1prrZX30AxGriSp0+FF/bSPPoEXhzy/3X///TNu5Gnb16ZNG28MmJ9sLFFlQnLAlvFH68BzjBPzjTFjHMGBcsAL7MCGsWGseJfn0Dg4nx/K2nbbbb2x5SYIeXRaklyEg4Pm6KOP9uYMJIlxYSOEDKPp4++ofPk7mjZUwHFCmykLDRvP0zcwpl9oXmgPmxG/oTHhQOnUqZOhDSHqDK0ca49EfHFSKOGgbRAhyBtYU2+++Vvsuq+l98tBOJj3kFaEvYA8R+GLFPsO5Jn5QuoDtIBOmD/8He0AAuns27dvVcGchHDQJ/oG0XAXD9YWlywuFHFS7YSDcyb4GRHWuIv4zHKQMiccNB6myw2QA+m8884rGeFgk2XCswBfeumlkuAE4eAgYLMOqo0hSqjTOTycFEM4MHUwyE7YZMm/z6GFqo6bJoQFosENM63tk4VCaCoLPmymifoNYoRaHYIRDFPOByqqVA46bq0cYEhSDUeSOl1ZkIGgjw4kEALCpkj9cZKrfWiK2DicRJUJ6ST8OpgxkNBsNlRuCERGYUZBK4D6OWzKwNzGvGds0eZQHlqVuA8T5sKOeRDUrLFhcjBASIOmSvyZIDJvvvlm7Kbo2kz7ojRgYAKJYq4QdQA5c4KWifFGc8Mci5NCCQcpodn8rr322npkmbpyze1887Uh/F4OwoGPAnPRCYmhwuGwrAHGCAmbHSCJaEmcqaUaw0OTEA78T9C0oblGgzpp0iSvv6xD1nF4b3V4VTvhcO0LrodShwZHrbWyEA4mG7cVFgoq2lySRsOBQySqXkJPUXeVQuKcRlFnk3yMHAmlIBzBm74rz4VEcssEK8gUhxqkA9JGf5PmZkD74z6IF8Yl/BsaD9Sn3GKCJoooPHkWZsxt/YcffvD8KViI3JC53SclHEnrjMvDwU2bGxPh0JtvvvmMphbaPgqIKpNxgmRCxFxiOQ48DmrU+timIadsPnGCVgaiAZE96aSTvLUA1mhWmLtBzVRSskZdkCBI0yOPPOJtiOF5iekL7UeUuDZHkSSed1EJaOown4SFKCxIcJT50D1bCOGAwIERJDLucpJrbpdiD6j2MspBONgPgqbGKEzQ7hIBh0As8FmKk1o1qUDa+c4I2j/WMcQbAs4FGu0qSSujpNoJR4PWcHBbcfY/GHHcIDFwSQkH6c/dzQxCwwFQCokjHGyCHDRZEg5usBwAeEQ78xBOo3h3v/zyy94Bz+GKL0w+pz0OBBZ5lJNu+DccJzkA3cEYhyOOlajW8cvB1IQ/CWQI1XrQVp/k0ExaZxzhAAs0QEHCUUz76HNUmWykzDNMgxy+3HAYHw5yNlz8bdBW4e/jnIfD+BHn7jQpaLJwUuVGSN8wyaCpc0l3kmDnyocEQVILIRyuzWjTMOmExY0PPlfM/bCACYSW+RonaQkHGKNFhIShDcJnKiotdK65XYo9oNrLKAfhiLoBB3HBNyNMRLkQcQGJknJ9qyPN2CXRcHAJYW/DaZk1jrAHsn45y+IiVaqdcAR9ONC0c3lqED4cDBCD5vJAMFGxYcdJUsKBGpmNFuGml8YrP9ekLIRwsDkGVc5JfDiiNBz0HVKDOjxsQuGgIiKGmzJYusifqL78/vvv3jOUEyYmcb9xs8TzOldiH0wgmBdwMCJDrJPwwZL00ExSZxrCUUz74ggHhyDmEogVpgRMXdzkOHCdb8GTTz7paYa47efbqIPjxS2JsGoiQCCVbdu2TWyOopxiCAf+JWgQ0AxGRThRPgSUORHW3uDHwtjhG8Q6jBPUzmjmMIcFhYgt/ALCTqP4TqG1wkcJ51o2RchscA7nmttpDptafrYchCP8rY0gXhBoxiUcocHeCZluSIQDjSmmQ+YmJl3WPOsOsyr7a1CzGOx3tROOSs3/sphU6By3Eg5TVFPciqJuVTyXhHDgsIYNGRU1k999KKcUIKYhHDBctDdMwOBniGkXKkk22/AtwB2g3GohX05Qs9N3nAlh0BAMJjQqezBDUHOzWTOZnekjKiwWAoY/AsQgLHG/cXCgIqS9wRTxkEX6htofswme2UGzC+YfzD5pNRy0K0mdaQhHMe2LIxzcajicH374YY9sRAlaKMaSsF38eoIbMSY/R0aZ/5SBZsiJIyvOtJGUrKUlHOF5grqcNhMCyzx2bUaDwy2VXAPORyTsO8JhQ+RSULsUNQ/ZqJk3PO9s3c4JF41amHDwzE033eSRbXyZIM20MZhxNdfcLsX6r4UyykE4wk6gDhccQTEpRN2GIajffvttJITsWy7jdLVgnETDQVshG/i0oNFzgn9TrgAIEY7oUS4b4cCe7HJmoObndhXlCJmPcHDoouJ1oYVsWrkSsKSd3GkIB2ye9kJ6uCViBnGe2ExQnHA4iLmhoVIMhsW6mzKaAjZ/Dm6cNXGYQ83ObdqF6HJTRIWPGQn/CW7FkJm4sFgXkhaV6j3uN1TZ3OTJPcJhgMaICAjaRVQC9TF+HIibbbaZ58/AAUof6QsEy4U/0k7CKjFB8DdyUkT9LUmdaQhH0valKfO1117z5hvjiJaDvjJvIcw4frobDipW1JJoBHAS5QAnlwlEEkLKIcHvmDDACnxxqsM8Q7kQG8rNgnDEzROnIcEviDHH655QbG51JIvjFsc4MhcZf/oGAcV/hzVHf2hzXPnOqZr1Tsg6hxHzCwJGaG2usFjWLUQFMoTWzW3gueZ22rVeq8+Xg3DEpTFnTOO+WYXmDy2A0zwH8cWhHMfpapKkhIM2s1cx77lcYIIIR/6F+yXCUWHCQfXOeZT/jjOt5CMcQVMKAx8VG17MpE5DOFxYKDdgNmc2VvehOjZpclNwILNR43eBPdodKGgfMJHwDzc77NYwZjZiJySwQk2Pyt0l2eKmQFw4EhUWyyHGoufmHI42yfWbW1TcQGkjjqAcitxa0BzQRuLtcVIklJIDFSIEXvQFkuQIByp3NhhIBocFobZRf0tSZxpykLR9acrEh8NFLkHAILxOIB+QETBCBg4c6B3URIDwHJtO7969Z/jR8DecpiEdmKa4LTKHMY85h9QsCEeu8GkIBtoV5inaCBKRcTC4GyzmQeYE3vr0n5BA5h/9cmGBceWDHT4mzHG0dPix0FeS4jEX8xEO5oz7fDjrAL+SuLldzJqvtXfLQTggh25eO3xyhU4y5xkrDmWipFw4rHuXixRzq5okDeFI2+5aIBwN8lsqwYFiw8KxzqmmuClzEDuTAc/GEQ7MFIRAcuNG2KC5AdXaJ+ndgUJ+AZclMu1kzvU8/iSonaOiJnL9Vso2NKSy8CVAA8E8dSYVNAAQMlT92HRdaGBD6nc19kXz1x+VchAO6mGvDiayQ6MVl7jRXfy4VOJ7E4wc4zICEUkb2p/1HGzMhIMLBCHtXAq4PGIibRBfiw1PGhIToaZ1GTZxHsNnwTkhRhGOL7/80rtFE0XgyAYe7KVyFM16YgfLj7tdl6oN2NWxv0dF7eT6rVT1N6RyXL4NFiY3+qCgWgVjnOuqzTbdkMYg2BfN3/ISDkym+OE4rR4muKCzeHBs0JKhfXWkAu2n+9BbPn+HSs3XYLp2tLal+mIqmgPniM2FhUSJ1SaYSNGgO8FPD5/BrKVsPhzBjkA6GIhgmmq0HXxfBIdEvkXCRk5eB/IF8Al4JxAUNB21SDboQ5aEA4c/cMTxLoxPrt+ynmS1Wj4mM2LwURfj48CixLSEdoP4fPxqyAmRNDdKreJQDe3W/J05CuXScFBjUAuAsyj+akkEfw5uzzhSo3ElcVi1SfCDdKXME8L55AIZ0MJHhXZXGotwFBLjw7mbtVSEcNApbo/kAoA1O8G0wj/Osx8zCv84gW2jxo5LZpQ1WKUoP0vCwY0C/wCSuoQjKnL9Vop+NdQyuK0QicQNiOgN/Bxw/sXnhkgpQlkl2SOg+VsZwkGthJtjyiaCLRhZFzfqaKTZq/FH48ANRvBlP1PS1UA7aS+CSaFYcoAJyoUGow0Knm/pWpbt02ht+ZK7k3LlSakY4XAdJZ02uQD4rkackM0OtVyuj+VkOzwqXQgIASFQHQiUU8NBj923iziYOUDz+WJgFsfpFLN3+MvD1YHgzFZwicA0itaylIJvFxeVaiVbaJ9w6CfqEWdgHMXLoYWqOOFwg0zYLKaAYBw36jj8PUoZ9lrKSaWyhIAQEALlRqDchCO4R0M6MD/EkQ78IvANIHy5VD4RWeOL9ozDF6fkuEypSdsAwSB3Egd4+OvdSctoyM9VDeEIajzw7UBtLY1GQ5566psQEAKFIFApwuHaygEddZhyWYRkkAZAIgSiEKg6wqFhEgJCQAgIgXgEKk04NDZCoFAERDgKRU7vCQEhIAQqgIAIRwVAV5UlQSAx4SC1K2GCEiEgBISAEKgMAkSfKTKqMtir1uIRSEw4CFUNpnUuvmqVIASEgBAQAmkQwFkz+GXqNO/qWSFQaQQSEw6+Y8A3EyRCQAgIASFQGQQIXeRjkBIhUIsIJCYcfD+CJEgSISAEhIAQqAwCRIGQ7VYiBGoRgcSEg86RLIQUwxIhIASEgBAoLwJkueVDWxIhUKsIpCIcOI3iy4G2QyIEhIAQEALlQQCtBr4b4U8WlKd21SIESoNAKsJBlZANSIciVkozACpFCAgBIZALAUgGZEOmFM2TWkcgNeFwpAPziqJWan341X4hIASqGQGiUjCjiGxU8yipbUkRKIhwuML5kiuRKzKxJIVbzwkBISAE8iMAwSAiha9nS4RAQ0GgKMLhQEDTwT8yszSUaaF+CAEhUAkEMJ+g1cj3RdZKtE11CoFiESgJ4Si2EXpfCAgBISAEhIAQaNgIiHA07PFV74SAEBACQkAIVAUCIhxVMQxqhBAQAkJACAiBho2ACEfDHl/1TggIASEgBIRAVSAgwlEVw6BGCAEhIASEgBBo2AiIcDTs8VXvhIAQEAJCQAhUBQIiHFUxDGqEEBACQkAICIGGjYAIR8MeX/VOCAgBISAEhEBVICDCURXDoEYIASEgBISAEGjYCDQZNWrUtIbdRfVOCAgBISAEhIAQqDQCTUaMGDFNKckrPQyqXwgIASEgBIRAw0WAtP1NxowZU49w8INECAgBISAEhIAQEAKFIBBWZHiEY/z48SIchaCpd4SAEBACQkAICIFIBCIJx6RJk+oQDmk3NHuEgBAQAkJACAiBYhEIkg5PwzFlyhQ5jRaLqt4XAkJACAgBISAEciLQZOrUqSIcmiRCQAgIASEgBIRApggoD0em8KpwISAEhIAQEAJCAAREODQPhIAQEAJCQAgIgcwREOHIHGJVIASEgBAQAkJACIhwaA4IASEgBISAEBACmSMgwpE5xKpACAgBISAEhIAQEOHQHBACQkAICAEhIAQyR0CEI3OIVYEQEAJCQAgIASEgwqE5IASEgBAQAkJACGSOgAhH5hCrAiEgBISAEBACQkCEQ3NACAgBISAEhIAQyBwBEY7MIVYFQkAICAEhIASEgAiH5oAQEAJCQAgIASGQOQIiHJlDrAqEgBAQAkJACAgBEQ7NASEgBISAEBACQiBzBEQ4ModYFQgBISAEhIAQEAIiHJoDQkAICAEhIASEQOYIiHBkDrEqEAJCQAgIASEgBEQ4NAeEgBAQAkJACAiBzBEQ4cgcYlUgBISAEBACQkAIiHBoDggBISAEhIAQEAKZIyDCkTnEqkAICAEhIASEgBAQ4dAcEAJCQAgIASEgBDJHQIQjc4hVgRAQAkJACAgBISDCoTkgBISAEBACQkAIZI6ACEfmEKsCISAEhIAQEAJCQIRDc0AICAEhIASEgBDIHAERjiIhnjp1qv3+++82bNgwGz9+vM0yyyzWvn17m2+++WzWWWctsvTiX1966aXtyy+/rFPQJptsYs8991ydvz300EPWu3fvehW+9957tuqqqxbfkIgSJk6caEOGDLG//vrLJk2aZC1btrS5557bOnfubE2bNk1cJ1gPHTq0zvM777yz3XvvvYnL0IO1jcDYsWPt33//tSlTpnjrjjXYvHnzVJ164okn7JxzzrFBgwbZwgsvbEcddZTtscceqcpoKA/vv//+dtNNN9XrDus0La4NBRP1o3gERDgKxPDtt9+2G2+80V566SWPcIRlttlmszXXXNO22WYb22233axt27YF1lTca9VGONiwHn30Ubv77rvt9ddftzFjxtTrIIfFeuutZ7vuuqttvvnmeTc4EY7i5kgtvv3ff/8ZBIF/PvjgA/vhhx/qdAPSsfzyy1uvXr1szz33tCWWWCJnNz/66CNbbbXVbPLkyXWee/bZZ23TTTetRYiKarMIR1Hw6eUYBEQ4Uk4NbuQHHHCAsREllU6dOtkll1xiu+yyS9JXSvZcNREOSBob2VdffZW4f8stt5zdcssttsIKK8S+I8KRGM6afxCNIvPh9NNPjyT6cR1k7V166aXWsWPHyEeOO+44u/jii+v9Blm57bbbah63tB0Q4UiLmJ5PgoAIRxKUpj/z4Ycf2lZbbWV//PFHirdmPnrKKafY2WefXdC7hb5ULYQD9ewhhxzimU7SSqtWrey+++7zsI8SEY60iNbm82g1MHFg/itEunTp4l0UlllmmXqv/+9///PMKWHh4L3hhhsKqa6m36kGwnH88cfb4MGD6+CIpurCCy+saWwbc+NFOBKOPnbdtdZay/M3KEYuv/xyO+KII4opItW71UA47rnnHs+sNG3atFRtDz4M6XjttddslVVWqVeGCEfBsNbMi8wd/HIeeOCBotqMfxAmGOZMUL7//ntPizZq1KgZf8Ys89Zbb9lKK61UVJ21+HI1EI61117b3nzzzTrwsQe/8cYbtQip2mxmIhwJpgE3qxVXXNFzJosSbL/8M/vss9u4ceM8ezK+HVH+CWxiH3/8sS211FIJai7+kUoTDm4obNg49YWlRYsWtvHGG3tY4GzLZv/FF194xCKKnCy66KI2cOBAg3wERYSj+HlS7SXg97P99ttHNrNdu3aen8X8889vzKm///7bIwqfffZZ5PNbbrmlPfnkk/V+43luz7/++qvNM8883sWgZ8+e1Q5NJu0T4cgE1kZfqAhHgimAqhWVa1g6dOhgd955Z6RT2fDhw23fffeN3NjiNrwETUn9SKUJx4Ybbmgvv/xyvXaj1n744YdtscUWq/fb559/7h0u3377bb3fsLMfc8wxIhypZ0Jtv7DBBhvYK6+8Uq8TRFzhgDzXXHPV+Q1fj5tvvtkOOugg47/D8umnn9qyyy5b26Bk2HoRjgzBbcRFi3DkGfzRo0fbAgss4N2agkLYJjdx1H5xgrYDzUjYDsnzaEEWXHDBzKdeJQnHu+++G3lDRCOBlifOgQ9QwKxHjx5G6GxQCFf85ptv6oTNSsOR+TSqaAWEm6M9DEeQEM2EKWSOOeaIbd/RRx9tl112Wb3fcTrt169fRftVzZWLcFTz6NRu20Q48ozdXXfdZbvvvnu9p/B652aVT/CoR9MRlqibevAZDlzK52BmUyXPB+piVL2QCDQHO+64o7cR55JKEo699trLbr/99nrN4+a5zz775IPOi+qJyqXxySefGNErTvIRDhxVwZFbLQRy3nnn9d7HAS1Nvg+0VowJRArz2p9//unlXiEKafHFF/fIFXMl7B8Q7ChlnHHGGfX6jjMxByfEFnxefPFFL5oHMxN+B4R4ujDhpG3+7rvvPIdHzAtoizANQp4xce23335e2Db5S84999w67cFEEeVAGXwIrQGaqwcffNDD9ccff/TMZuRRQWu1+uqrew6eiyyySN5xzvcAYedgEBaciAmLzSXkoGENhIW1Q9ud/PTTT7FRKmEfjhNPPLGeuZT5zBhxyWCOPPXUU4amjjky55xzeo6q2267rReiG8zPA2bsMU8//bT3PD5iYNi9e3dDE8p8Ij9NlBDKy3thOfTQQ+tpfNwzOG+Hc9ZgiqJdQSmUcDBf77//fuvfv7+X/4f+s+a4XDAX8MHKNS/wcSOfCkJ00M8//1ynXbSVfcUJmMZpqqgXLerzzz/vrSUiDLnA0BbmKGZw1hSm2lzCWr/mmmvqPXLllVd6f2OPu+OOO7x1gGmYiCf+kdRHQIQjz6wgGVaUVzyb+BprrJF3TmEP7tatW94Nzz3A5nrYYYfZI488krds1MgXXHCB7b333takSZPI5ytFOEjAxCHBhhOU1q1be+SJf+cTIlP69u1b77ErrrjCDj/88Bl/jyMcOKti8uI2G964eBnScd555xlq+VwCqYAQENrMf+cSkiKRMIo6o/oIeYw6hNnU2BQJuR4xYkRsFfgq0C8OsTgB+7POOssjErmigjhUdthhB9too43qFEU0B/M2TiBvvMuBl0uaNWvm9eeiiy6q53eTb+yDv4MHh3BYVl55Zc8BNJdAAIgOCwsE8cADD5zxZ8qJSnDH4bnTTjvVeR3SzxwOyrXXXuvNJ+Yr5CVO0HiSdI/+kFSvT58+kXPTvU87H3vsMVtyySXrFUkeIPANy9dffx1pquQ5Dnyi7YJCrhJy4gQlLeFgzl111VXevA863sbhAGlgXoRNYRDiqLUaVw5kDdIQFi56J510kkHwcwnkHbLFBTBuTUGsueCFhXl58MEH1yGuPEM03tVXX51mijeaZ0U4cgw1joscmuEwWJwWR44c6bHZfMJNkJtK2I7MocMCDQpOaxx+UYnEctXDBKesKNJRKcLBpheVbGmzzTazZ555Jh9s3u+UceSRR9Z7FjxZ6E6iCAeHBJsZB0EuATOIBCQhSv755x/PR4fDIY1weKGlCCd8iyMcHBzcPqP8DcL1svlxa4vSdDBnweb6669P1FzMemgngpKLcKBR4FDlIE8qEHPa26ZNm6Sv1HmOPnHIh8krDyXVluWruFjCsf7663tzJMo5Olw3/ihokPg3t/B8wvzGWRqfsaBUC+GYMGGCF0EEMUojmEeJOAlqr4olHKwfzGhcStIIGg9M5FGatDjCgaYGzUZYuDA67UeaNjSGZ0U4cowyGxzq8rCgOieJVSkFVTo3pFw3y1z1cZMn9DQslSIcHExkWQ0LBCLKpl4MllGEg0yv+bQRrk5u4hwWYdU5Bx1q+yi1dZL2YkoLp4eOIxxJygs+A5mJunVxAGMuKUbiCAeH8jrrrOOZZtIKm3OUeS1pOZgsbr311sjHuS2fdtppnrmoUCmWcKStFyKaRBPgysWMgzYuKNVCONA2hi9PSfEgozAHurssFUs4wOjkk09OWn2d5zCJsa+HTVhxhCOukiz2uII6VIUviXDkGBRsqlH2QdTQhSYfiquORRLeUHh266239m7fMG/su9ddd51nJggLKldCSsO33koRDlSUUXbMLPKQRBGOtGsNjQjq8/ChTthuWMD0zDPP9OzskBpCLDG5cNMLCkQG5+CgSS0f4cCuDPFhHPHjYbOL0npEZcDE9o09OkqNDAFDU9O1a1fvoHv11Vftl19+iYQpinDQTzbkKAdo7OrghAYDwgxBiyIlqO1R3xci+KNAyOM0CJiySIOPzwNELJ9vU7gNpSIc4A8pQwuKhg5imEtrBfHYYostvIsN6xvtX1SuHzRRzJ2gFrMaCAfzgbD2cBg7cwKzHmYvzC3MN0ghGoXGyJsAACAASURBVMOw4BPFvEcwf6E9Rh5//PF62l78r4IXGYisM4WhIWbtRJkR2cfRtKGVZi698MIL9ZyQXf3h5IxpCQcaFrSmkvoIiHDkmBX4aZBoJizcqOJuW4VOMmy1RF8EhUREbIQcXE5y3bp5P+wAVSnCgf30/PPPrwcH/gdRfhmF4sZ7cYSDgx7VNQcAhyFOY2hXosYOR0lsssEPU0XdqtmwMEGEVa9sMMcee2y9buC0iT3cSRzhwCEYDUAYG0wRmKHCGzqHL86zQYHMRZmGuDVSDnPMCZsyJDcqnXcU4YDoBs1YrpztttvOc3oM5kbhEMLEEHZO5GDFmbJQgRCixQtHq4TLoy1gxmEEEQLbfFIKwgGeENHgeoVA0O8o4ZJAvp6gkzFaVRxuw9+G4X3mb/DZaiAc9Be/jbAMGDDAi9ALSlwuFTKK4osWlrSJv9BGRs0v9gD2oyBZw4+FORL2l8LvijUa1GznIxzsL+zVvEvuJTTgXEol9REQ4cgxK2DlbJxhQWXNYi+VsIFyOwsLfws6R7rfYf54Z4cl6kNTlSIcHL5RLJ/IACIESilRhIO/salwIwoKBzd+Mtw8wxIOVUaNHT7UObyjUl3jRIifQVgYv6A9OY5wgBdOdFHCHGQuBgWNBX4UwU0UcgxJDgvZGolICQs3bzb1sHkwinCg3cCPICh4+0NyIWthiYru4iDmQCWctVABB5ykkzoWLrTQQh4RhDzm8rkqlnCAPZEZUX5U3Kzfeeedel3G+RZcw4Kzb5SjK21EY+CkGggHhBXSFBRIO1quMBbsc4x92G8lTmOchnCgWUOrEibmaLvQZkSNC/4X4egc+gH5gQQ5iSMc9AXnfgiHJBkCIhw5cCoX4Ug2VDOf4iCNSvEd5VHfWAlHrs/TE+JG6GBY3n///Uhck4wPauOoz3Zz0OFX4SSOcOQyNeFQGkVwIRzO3oyZhA2QdgSFTZuDME7Y7MMRUWHCweEe5R+BySzuuxa0J4qIxPmeJMHYPcOBxaGM30ASJ03ew/xF5EJUJAq/F0s4iGaLS7vOoRblXMgBHNSGuP5xS4/6bhAHX/ACVA2EI8248WzS/Yhn0xAOLgHBqCPXLnzJ4r7BhAmUi0nYhIVfSTDJXBzhwCGdxHKS5AiIcOTACq9lJl9YopwBk0Oe7kkWA7dCVHVOlYzKmlteWMhZwUEblKQLHJ8UNs2w4EwZt0nn6knc1zfZlKPqSYdK3afz5eEIl43PBb4xYUnqY8BYELmEzwSmCW5V/BMVJs04cdA5KYRw4PUeFWZHO1zoLTkAgrlJXH3Yo6Nuy+73JIQjzgGY9ZHrdhcVPhq+PRYz7phsIB045ib5xhH5LzANBfM4uPqzJBxxhDGOcMQdcNzUgyHM1Uw48OEh2o41wsHuNA+YxFgDQaFP9C0saQgHe3JwnbmycMbPFUKO71YwHwvvsabwNXEXiKTjUcxcbizvinDkGOm4TJnFetznmlwsTNg1jqHcTOMc+6LKqCbCwSEXTihFm+OiaYpZcGkJB6anKBMWGq111103sinkyOBg45m4b3REvVguwoGPBk6hYeHvUY6vaQhHMZ7/4fZk4VDH4caBRcItclzkCtlFtQ6BIrQ6KCIcxeXhAEs0YawRTCzkaAlr2+LWeCkIB3OfuR4UHKTz7Z+YTaP8R7hQOD8OEY5idue674pw5MASTUJUwh28pNPGnCcZMhYsN4DwFxKTvMsz1UQ4UDeSHyQsOJKecMIJSbuU6LksCQeHF4ckt8lCvnZbLsJBRsUo35iw3T8MaBINB+NVqk+CZ50UiZspWjQ0QkRtRQnzBd+ToKOrCEfhhANNDc6jHNzhTxEkWcClIBxR/ktErISTnIXbE+fsjRYG/x9EhCPJKCZ7RoQjB05sXlHqODyS82VZTAb/zKdg4qjk8UQvVKqJcHDjjMrgmcWBkxXhYPPk5hR22EwzPuUiHKiFwxkxaWdUtECw/UkIR5wDcBoc3LNZjH9UO7hdc9vmi69RhyDaEFLnOxHhKIxwQMIxUUX5qCSdH6UgHDhFh52fMQXnS9gX56ArwpF09NI9J8KRBy8y0IW/Woq3O7bBJOm5sV9G+UDgWxH8FguHc5QdE38HNnw0LdSHSphDJOit7rpQTYQDAoXXeFgwWSQ9wCF1Ud9cIXQ06EWeFeHgxobKNSwQTnwjGFe+f0LODDbeqMyf5SIcceGXucxE9CsJ4YjLEYMjZpJsu0H80MIQophGoiKKcJaNClkPlxt3oIRD20U4CiMcOKqH/cYYA7QDaDPJu0LGX+ccSz4M8hsFpRSEI8qkwt5NLpRcEudrJpNKmhWa/FkRjjxYcWDwEaGwhB244orB9s/GHJZgoinUu8EcCe5ZvhGAz0M4pKsWCAd9iCJrOO7hTJbLkcv1H7U4DpNhIcokX2rzXFEqSXw4uCETmRHWOEH8iGYJJ5aqNOGAnIUzpYLbpZdeGpu2PSnhiPsAYdLvCSXfjqKfjHI+JQ/Kb7/9lrfoOOIbPuREOAojHFGmDL4TgxNzOCSdwcqKcETlzOECgNNqrpT6EGDMkUHB1MZ7chrNu7xSPyDCkQcynNBIEBMWohzIh5FPSIqDfTMswYMAQhMVdcKijcp0WiuEI04Vn+8QdFihDQl/VIrfwrhkoeEgJwffesg1bsHfKk042CAhcWE/k3zfrkmi4YiLgCmXeSQujwUfSYvSogXHhayr5AsJC98xCeaPqEXCEUcE+Uor2T+jpJQfb8O/CeIdzqSaa15kRTj4dlBUiCr7d9zHGYkwY+8IZ+YNa2Hlw5HvlEv+uwhHHqyw/3Krjcr8R/4CMi3GCaYY1O4uVa97DuZNtkqX8jqOlHA7w9M6LDiVEjIWlmoyqdA2NDdgF96QULGywTunrCj8cPzjS5ph4YNwbKhB80UWhCOO1PEF26h2kfo76jPi5TKpgBMZDomsCgraMaJqoj7RDjkhrJUPaAUlnIcDbQ8fGwx/BZXkY2h74j4PTplos3A4JalZVJ6SJFtVHHElg2tUErZgmWgIiSoLS1gDVouEg/0nKqMlDu1R3zEiZwnrMfy9pkK/FktYcjDzqcOYCLVwenB+Y76h9SS1eFDSmFRIgR6e45TFXolGMky4IRtoNKMSf8WZg4jKCppSRTiSrNJkz4hwJMApTgPBhtuvXz/vE9HY8p3A/Am9O+aYYyK//MqBxcHlhC8L4twWFnIMhBNUschZRGE7KO9WG+GgTdjKoz7axUZFsiuS8gT9ALhtcIhEfZuE8rjJhD/JnQXhiDOFkeGVjT64gUE2SDoU5ThXTsKB5og5FxYIASbAYCZUSASatyjtW1SmUQhD0G/G1cGzzLuwPwUbP3WCC9FXmMAwkUVt/PmWYNz3OngPMnHGGWfU03RQP7dbzJJhws974bVVi4QjzoyGaY1DMph4jTwlzEVy0ISlUMIBrlFZYyEFkNhgSnnm26mnnhr5vag4whHll4EfG5e/KK0VKeSjvkRNanMIRPCSgtaOcHEyBAcFcwqEKGgOEuHIt0KT/y7CkQArbugc8uEUvu5VFtYyyyzjqRfJgkg4Xlx4GAuUFNFBzUXcxsFBjHqSBUnoGYuY74DEJTmCGIVT9VYq8ZfDhqRlpG8Of1fD/c7Hq/BxAUPIxqBBg2JHBHUwfgPhb2NkQThw9uWAjvrYFOY0Djo2P1KfQ6iiPmpGRwhzDn5sL6vEX9RFW9FERM0PtEq0m40U8wu5XuKwjiIckGgSi4UdqN1gYfbgd7Q8OFSTyjuMCcSAD3gVIoQm5/rKMIcsfefA4CbPgRI3Jpie6AeYOKlFwkH+EQ5eEsCFhbnLnsV4oGVi74rLyloo4aDOKBMJf0dzxsUAjBkHUt3HhajGOZLHZWjFf4eEjGjM+F6Lu5Sxr+JMH/WtHfZnIlnwIYOwkLMjao+O+iqvCEchKzb6HRGOhFhycDJh4zbcJMVAIFB3hn1CuI3xwSbU08UIHvnhCIBKEw76Q7gam1/Uxpi0vxyCkI0om30WhIN2xSUFStpmngv7+mRJOKgvzpadps1xn6fn2x8cToWOI4cBcyHJx9TC7YUAYj7gGx3FCqnmw9FPtUg4wIHvOgVT5xeCTTGEI+4zAWnaEfUhQt6P0ywHyw6b1dCMokkpRCBPmGuC+VkoR4SjEDRFOIpGjVs6GQrZeNMKJhdYftyXI7ltopZOkqKZWwO32XAmvyibdjUQDrCCLHBghFWYSXAkgofvS4S/hOvezYpwcCNkM06ScwVTAdqr8PihvQkmoMqacKCNQ3WeNC8CJDh804sjHOBNmC3jGGWmyDWWzG3IdlCrkGTsg8/QTsIYMUEWIoRmEuocZXaqVcLBnsQtnzDOfIIJGL8pzIVBKYZwoE3Ajy3pV4A7dOhQ7wutaGHQuoWJKOuPtZ8rGim85zH/jzzySM9klkbYW5jbzP2wiHCkQTL3s9JwpMSSmxb2bDLURanbw8VhN2SDxnEun0c9pANnNtTBcULkBGFcfIU0nJEUtSHvBu3k1UI46A9kA60B+UfyfWKc5zFRoS7FCS1XzpOsCAdtYIzxQ4j7MBfPYCsnsyp+NeQeCAuHgrMJZ004qBvvew7m4Fdqo+YT+TWYc+GsubkIB+XQB8YlnEo6qg7GkDHH8TNtzo64NYCWBN+TqPwcce9AeFiD+BdESa0SDvrCGG6//fY5zZGYWLjw4OOA71SpCAfl4MOEf0+uQx5TBr4UzIewDxZlYG6JCuvGeRstYZxJNuqShcaYCB7mdzgCJTz27JWYR9nP475iLMKR8pDM8bgIR4FYwsgJi8U2yoLHS5ovZOKTwAGINzabGxtBPqIRbAKHxaOPPuqRCsgDC41FiroPB0ucMFH5kUEv/Ol0ysFJLpgjgiiZsBkIm2n4C6EcOlFJtnD8i0oyViBs3mtgxQGOnZ9IFm4wEDkWPL4tRKIQtog2KeqLo+G6eR6TV1C4dcWpmulTVLIixjMq+odyaSubGBug+z4DHv/YkvGzgVCQsyPqpscXPpkPCJqBqBs6Jqe4j+Th/MiBGBbMZ7kOcdrKIUBosWszN0zawy2Q+ck3ZfDiDwq+EElMh0S/4OlPPTwPoeRg4XBjTJhnJGmjziyEqBmcIFGDUz/RFxBEyCl2fsg5Sdpw9M0VSUPbmINR84X1G47w4ZPsYX8INFlRESOUjRkoSkuGP0uUEy0+BpCDsLC2o0K1eY71gyM6cxjii8aDtUO7cI7k42ZoWZmf4QSDlHnUUUfVqQ4n9qg2sM7ioo2oF5MepmHGhjYx7yF7EFTmFfsmTsZhgWzE7TNoDSkXgsl+wRpivbH+0ObF4Y4/HfscxBitDmuANvGNFDQazH98rNzajJujhYxHFvO9IZQpwtEQRlF9EAJ5EMDpE3Wzy1bL49wEUbGHw13xVSr0ez4aCCEgBIRAHAIiHJobQqCBIQCxuOeeezxtV64w1DhVcZL8Fg0MMnVHCAiBMiAgwlEGkFWFECgnAu4LmOR7wV7vPrMdbAPqb6Kloj4WiOp6ww03LGeTVZcQEAKNAAERjkYwyOpi40EAfwpMItiqEb4jgS8M/iHkbMAGjz8Ktv6oPAT4POAv4j621XiQU0+FgBDIGgERjqwRVvlCoEwIYErp0aNHnTDcNFXjbIzvBmVIhIAQEAKlRkCEo9SIqjwhUEEESKmP5z0e+mmESJKHHnrIyxApEQJCQAhkgYAIRxaoqkwhUEEECB0kuVWSrJw4lfbu3dsI9YxKelTBbqhqISAEGhgCIhwNbEDVHSHgECB/AHkISJRFHgIcRMnmSI4Klydmp512yvnVXqEpBISAECgVAiIcpUJS5QgBISAEhIAQEAKxCIhwaHIIASEgBISAEBACmSMgwpE5xKpACAgBISAEhIAQEOHQHBACQkAICAEhIAQyR0CEI3OIVYEQEAJCQAgIASEgwqE5IASEgBAQAkJACGSOgAhH5hCrAiEgBISAEBACQkCEQ3NACAgBISAEhIAQyBwBEY7MIVYFQkAICAEhIASEgAiH5oAQEAJCQAgIASGQOQIiHJlDrAqEgBAQAkJACAgBEQ7NASEgBISAEBACQiBzBEQ4ModYFQgBISAEhIAQEAIiHJoDQkAICAEhIASEQOYIiHBkDrEqEAJCQAgIASEgBEQ4NAeEgBAQAkKg6hH4caTZgnNWfTPVwBwIiHBoeggBISAEGgkCHNo/jKzfWQ7yhar4MKfdJ71odv9OjWSgGmg3RTga6MCqW0JACAiBMAJHPGP2w9/1cenUxuzmbasTL0c2xk40e2q36myjWpUMARGOZDjpKSEgBIRAzSOw5V3xXajGwzxINmh5NbTx99Fmv/5r1rSJWefZzTq3rflpUbYOiHCUDWpVJASEgBCoHAKYUo54Or7+W7Yz69i6cu0L1xwmG5UkHFOnmd04wOyKd8wGD6/b0kXmMjuqp9mBq/gkRBKPgAiHZocQEAJCoAEh8OdYvzNh8vD5MLOTX4zv6CnrmK3Wte7vmDHGTio/EYkiG7Ts3I3MWs9i1qm1/+9yyMQpZjvcZ/bU4Ny19VnW7J4dRTpyoSTCUY4ZqzqEgBAQAmVAALKBc+WfY3zysP7CZst0Mrv3M7MnB+VvwFZLmm29pNmwMWb3fWb2+R/+wX7LtuU74OPIRrj19M/1MX/PCn/iojfNjn+h7vvNmppNm2aG5iMod+9otkuPwutq6G+KcDT0EVb/hIAQaDQI3DQgGbFICwhEZL+V0r5V2PNJCYcrfZl5zI7smZ0WZrHLzL79a2Zfjl/L7PT1zLCeQO6ueHfmbxstYvbCnoX1uzG8JcLRGEZZfRQCQiA1Ape/47+ChgBNAfLK92aYJkohHJKlFLQb+zxayhLrllVOH4840nHkGr72hjFA++KkYxuz/61T+jwdoyaYtTtrZj1d25n9fKxZk+m+GuMm+b9Pnuo/M19bsyHHZzcGtV6yCEetj6DaLwSEQCYIuIgOyIYjB5AQSEcppNQRF6VsW1T/0CScu2Epep6sjHxOoxCsmz40e+9XvzxMP1duUVpNx3+TzJ77dmZ727c0W2fBuu1vfYYZxAPp0Mps+MnJ+tcYnxLhaIyjrj4LASGQF4FaIhwcuue8nrdL3gMQB3wfOKBxCn1ikK81SCI4baLxKZckCYvFP+W+T/0Woem4cvPy+Zu8P8RstetnorFGN7O39i8XOrVXjwhH7Y2ZWiwEhIAQqIMAB/PZr+cnDjv3MOu7bH3wgod2HLRZaBCSDGOSxF9B7U7fHmY7R/QxSV1pnvl3vNlaN9U1sWF22nuFNKU0rmdFOBrXeKu3QkAINFAEghEqUV0Mmoaifs/lcLpQezPCZiuVpyNfanM0Nfs85mtsIEZZp0Af+Z/ZJneYfTBkJpI7dDd7sM9M/44GOs2K6pYIR1Hw6WUhIAQaKgKv/OD3jEPWmRFwVnR5Lort9/oLFVtC9Ptxvhz5nD45rPs8UL9MiAoRKuXKexGHSr6PtwUJU5amH/Jy9Lp5pu8I7V17AbPn9zRr2TybMW0opYpwNJSRVD+EgBAoKQK15MMR7Dj5M+6d7tPg/p70Wyn7Pubn4AhKuUwUxQ5eMLFZlm2+7B2zo5+d2drVu5m9uKdZmzIlIisWp0q+L8JRSfRVtxAQAlWLgAiHPzRZHt6lHPxgWHA+81Ex9a54rdnHQ/0S0H4NOtKM6BVJfgREOPJjpCeEgBBohAjUokkFswimhajQXfwacplF4vJ4ZHl4M62CuU2KzU0SRRJLOXWnTDWbrd/MvBvHrml20SalrKFhlyXC0bDHV70TAkKgkSAAYSA0Nurz80CQL1torjwehJuet1E2TqNB34t8fia5hjJImPL1tdApgbPoAhfPfPuaLc12Xa7Q0hrfeyIcjW/M1WMhIAQaGAIctoc/7Udp5JJiwmKzyub55GA/gRdCJtFCnWmDuUjQlLjssA1sqGu6OyIcNT18arwQEAJZIVBLPhz5vgQbxAjiwAfaXOIvDupgmvBceEZ9UbZY/IOaiWKymQY1NMVoSortj96PR0CEQ7NDCAgBIRCBQC0RDpp/8kvJiUMhA56lL0ew7YWEtAZJCzlDrti8kB7mf4evwx79nNljX5ktMIfZjduYLd4h/3t6wkdAhEMzQQgIASEQgYA+3lYXlCy1BkENTdr05OGEZ1maUx78wmyn+2fisuEifkisJBkCIhzJcNJTQkAICIGqR6CWP08fNIkkdVINk40stTAM/jXvmx361MxpsNy8Zp8cUvXTomoaKMJRNUOhhggBISAEikMgmOIbfwi+KULSLz7Q9uSg/GUT3cG3VtA4EK6Kf0fSwz9/6bmfoO2YVoJRNji5brBw/egYnsXZlH45R9m0mpFC2gvB4WNtZD1t1tTstu3MdlOUSmIoRTgSQ6UHhYAQEALVjwCHYusW9XNu5PuibJTvhEvjXq5vqIQ/Oe/Qxi8DJ1f6xTPh0F/I1Sm9ypN+ffxks0//MJuvrVmXttU/H6qphSIc1TQaaosQEAJCICME4hJ7uequ2MJsoTkzqjxlsWhX+ILtn6E06+FiICFE3JTj67Apu6DHIxAQ4dC0EAJCQAg0EgRc5E1Ud5/arbpAgCARrotmhv9233jhmyULzmm2Wjez1bqUR6tRXcjUbmtEOGp37NRyISAEhEAqBKI+zkYBWYaSpmqgHm7QCIhwNOjhVeeEgBAQAjMR+GGk7/AYFkwpaA0kQiBLBEQ4skRXZQsBISAEhIAQEAIeAiIcmghCQAgIASEgBIRA5giIcGQOsSoQAkJACAgBISAERDg0B4SAEBACQkAICIHMERDhyBxiVSAEhIAQEAJCQAiIcGgOCAEhIASEgBAQApkjIMKROcSqQAgIASEgBISAEBDh0BwQAkJACAgBISAEMkdAhCNziFWBEBACQkAICAEhIMKhOSAEhIAQEAJCQAhkjoAIR+YQqwIhIASEgBAQAkJAhENzQAgIASEgBISAEMgcARGOzCFWBUJACAgBISAEhIAIh+aAEBACQkAICAEhkDkCIhwxEH/2h9lHQ82GjjKbPDXzcahIBW1nNVtsbrM1u5m1m610Tfh37AR767Nf7Jtf/7JR4yaYTStd2dVWUvNmTa1zh9ltxcXntWUX7lTS5v073uytX8y+GW42akJJi66awrKag3SwMazhJAPZvKlZ57ZmK3Y2W3aeJG8kf6YxzNGkaGSJc9I2VPtzIhyBEZo4xez6D8yufs/s27+qfehK175Zm5ttuYRZv/XMuncsvNwvfxxu/W573Z565zub0GQ2s+YtzZo0M2tSeJlV/+a0aWZTJppNGmuLztPKDt1uFTtwm5VslubNCm76l3+a9XvV7KnBZhMmF1xMTb1YqjnYWNdw0sFedC6zQ1czO3AVs1kKn6LWGOdoUox5rlQ4p6mzFp4V4Zg+ShCMbe8xbyE1VoGhn7qu2WnrpkfgzNv721l3vWOTW3Y0a9XBJxqNTSaNNRv9u3XvPKs9dk5vW7TLXKkROPM1s7Nea7hatXyAFDMHtYbzoTvzdy4Wj+3iH4xppbHP0TR4FYNzmnpq5VkRDjP74k+zdW8xGzG2VoYt23Zy+7luq+R1HHTJM3b9c4PM5lzYrGmL5C821CfHDbcOTf6y167Y3ZZeMLnK6KAnfQ2bxL+Bp5mDWsPpZ02H1mav7WO2dPIpapqj5cE5fS218UajJxy/jzZb6TrfV0MyE4Ez1k+m6UCzcfrdH5q1X8ysSVNB6BAYP9I6NxtuA27a3+adq01eXLg1nv5K3sca1QNJ56DWcOHTAt+OAQeZzTt7/jI0R/NjFPdEGpwLr6X632z0hGPnB83u/6z6B6rcLUS1PfDQ3D4d+Gwst+/NNrn9EtJsRA3Q6KHWZ9W57L7Tt885fJjxlru68ZpR4sBJMgd5V2u4uN2hz7Jm9/XOXYbmaHEY83YSnIuvpbpLaNSEg0W09JXVPUCVbN0OS5s91Ce+BTue9pA9/PEos9aljc6oZJ9LWve0qWZ/fmFf3LafdV9w7tiid7zf7OEvSlpzgyks3xzUGi7NUH9xeO7LheZoeXAuTS3VW0qjJhwnvmh2wRvVOziVbhmRA8NOjA6ZJfS109aX2oT2SzVOB9GkgzN6qJ2w9cJ2/gHrR75BWGGn8xtPNEpS2NxzueYgz2gNp0U0+vkT1jY7f6Po3zRHS4MxpeTCuXS1VG9JjZpwrHK92YdDqndwqqFlT+9utvli9VvyzLvf2hanPW3WftFqaGb1tmHiGFt57tH2wY37RbbxmW/MtrizeptfDS2Lm4O0TWu4NCO0chezDw6MLktztDQYU0ounEtXS/WW1KgJR7uzGm5CpVJNuUs3NTtqjfqlXfbge3b0bQPN2nYpVVUNs5xpU6zt6EH273MnRvbvsrfNjn6uYXa9VL2Km4OUrzVcGpRJwPbvqdFlaY6WBmNKyYVz6Wqp3pIaNeFo+r8GnQSzJLOOZGCnr1e/qDNu72/9HvzGbPZ5S1JPQy6kyR8f2dT+p0d28YxX/SRfkngE4uYgb2gNl2bmkJtv6tnRZWmOlgZjSsmFc+lqqd6SGjXhaPK/6h2YamlZLOG4rb/1e/gbszYiHHnH6vePbNobIhx5cYp5IBfh0BouFNX6700T4SgdmDlKisO5LJVXuBIRjhQDQBbOZjFpui940+y/SfULW3Jus52Wqft3vs3y1ziz9341++T3FA2Y/ugLe5pttIjZd3+ZLXqZ2dytzf48yf/xuOfNLn4rfZlxb2RFOBadp7WtvdRcNnfbWeyZj4fZ57+Mjm30gRvOb/PMMeuM38kmPm7iFPvxz3H2wqfDbfR/6fJ/91xsTnv7LN9OtOvVn9g9b/5mV++9tB2y8QI2dsIUa7N7iW0cJSYcvRY0W3k+s9mam5GD4qmvzf4cEz/mnWc323/lur9PmWb2z3/+/Hvr5/Tz5eotzQ5Z1WzsRLM2Z/rvj/yf2Ryzmd3ykdm+j6UvM+0cgElpSAAAIABJREFU5PliCMcqXcwW62B298D6NbdoZrbVEv7vrNcBv5m99kPuPvVd1n/eCZ8QGj/Z7Nd/zV781mzEuHSYRK3r3suYPbCTX846t5j1/zFdmbmezoJwtGzhfzbh2xHRe90ynczWWciM5f3PeLPXfzT7fFh8KxmXU3rV/X3qNN80TsTSqz+YTUn57asje5pdtplfZreL/PH66ggz9m7aQ1LIUooIRynRrKGy0mxW87U1G3J8fOfmOsfs7//q/77tUmaP9o1/79EvzXZ72GxcBFmJe6uWCUf7Ni3smn2Wsd6rz2tNm/jsbZerPrF73/otFqRPL1zblp2/beTvI0ZPtD2uGWjPfpI8J32tEg427/t7m221ZF0o2Gz3eNjs8UHREK40n9mHB8XPwTd/MtvhPrM/U2TarVXCsVB7sz7LmO26nH+gvPurWc8b6mLTpZ3Zs7ubcRgGhbXa96H4iKKndjPbYvFonMdMNDvqWbObByTfIGuVcLCs11vIbJceZux/kNB9HjO79aO6fScq5ti16l7iIA9nvx6fBK/1LGZjTovH8IthZlvfY/bD38lxFuFIjlWxT0rDkRDBNec3e3N6oAGJwri5BOXQp/3bXliChIPN7bdRZi2bm63a1axDK//ptKF9tUo4Ws/azN48s6ctv0A7r9+Dh47xNBuXPv2DvfftyLyE499xk+2lz4YbG1q3Di1tpYXm8P777zGTrOvBL9u4CVMSjWatEo4jeppdPv0mhnaMzRXt2eyz+mS364XRxDVIOD79w/8w4azNzJaf14zDFblxgNkBjyeCz3uoFgnHTduY7bVi3QMuinBANjZdzIwPwbHWWaebTScSp73if+smShzhmDTV7Inp5G+eNmardTUjiRnlLX652U/xU71OsbVIOGjzRwebdZ0+r1yHwoRjt+XM7tzB/xXt0Ye/mW2zpJ/xFA3m6jeavf9rfZSDhIN5zHwGW9KzLzL9uzAvfWe20e3J57IIR3Ksin1ShCMhgmzs9+9kNmmKWaszkmeFDBKOXR4yu/dTv8Iubc2+P8b/YuPL35tteNvMhrRv6atz52vnk5g3fjL7eOjM35MSDlTuqDP5QBPqXUwwT38dbfqJg6GUJpULdlnSjt9qYRs/aartfd2ndt/b8VqNYHuchuOb38fa4kfO3O3RlBy80fzeo2ue9o69/fXMa03Pxdvb6ovOYbO2aGY/Dx9njw/4w8aO9wlJGsKxVJfZbf2lO9gcrZvbP2Mn22tfjrAvfo03/0TiWCKTypO7+uOJar7Lhf5Nmy9/XrWFX+saN5q980v9FgQJx7HPm10y3eTWdjaz747yTXKDR5gtefnMd1u1MNt6SbMF5/QPyveHmKEJcZKUcGCC5PDu3sk/GH75x+zJwWbkdkgqpfLh4LshHP70g/ZgagoTDg68X4/3SUkwlffze5htvKjZjyPNFrokuuWOcIyeaNZ2upmJJ0/qZXbuhv474ayoC7c322RRszlbmg0fZ/b0YP9SgqQhHDzLeEFwuAxhKnvl+6QI+8+VwqQC0fjlON/UB4lgH0PChOP9A80waf0w0p93zLE15jd7a/qljsgtomPCEiQcNw0w2386SWZufXqo2VIdffMK0UtBwQS93LxmzZqafTPCn4Ps5UgawkGbaWfrFr5Z/Plv/TmRRmRSSYNWA3o2jUnl8NXNrtjcbMgoX/2MOpaJjV13ZIQpxcEURzggA/hdcDt96Auz3vf7b6zezezxXcw6tp4JNGrGc/ubnfqy/7ckhION56W9zJYOqYW5FcD+k96ySkU4Ws3SzH6/cUNr27K5Xfjk9zbwp1G2UKdWNnLMJHvswz/s95HxJ1Ac4Th520XsnD7+jtb9mP721ZDR1rxZE7vpgB62Z6+64br4e2x49nv2/bBxiQnHEZstaBfvupRXppMpU6fZGQ9/a2c98k3ylVAiwnHztmb7rOhvdBAODpbDVje7cnOfUC5xub+ZhiWOcPDct0f5N8MPhpiter3/Jn4Iz+1uhvkhKLd/bLbXo/5fkhCONrOYcQivs2Ddcv4YY7bpHWYDE/ovlYpwcFCgFYLscAtfoXN9wsHh/9wefns3vt3sxe/8/z56DbNLNjVjLc5xttnoCfVxjiMcmBbu3tF/fvM7zZ6dPnUOW83sok19bZMTLhiYbZ4clJxw9Ozm48xFJShcLna8r742Nm7iloJwQAjAFb+gZecxG3iIX1uYcOAzgakFUnLt+/4zQbM15qfL36nf0jjCwZMQSuYahI31gXj7ax+fLAblk6Fmm9zhmxGTEo4LNjY7bi0/0sSJtwafMrs5ZC6Kw5i/i3DkQqcB/5aGcFy8idkxa/obTtPAjINs9Hlg5sYUhitIOLDfoj7E8Wn77v7igNmvf6u/QFmAg470bynDx5o99pVvR4aEcKBscKvvFJWEcFy7ldlBq/iOWDiSQnDO39hn5o9+Zbb9vckGtlSEY8Nl57YXT1nVq3ToyAnWec6ZTqB/jZlk6/R7J1Zz4AjHH/9MsH4P+bs1JpXDNlnAZm/Z3PPf2Px8/zOrJ2y9iJ3f1ychr3wxwn4a/p/tuNq8HtHp/9Xfts4Z7yQiHF3mamnfX7muzdK8qT347lB77MNhtuta89nmy3f05sAKJ7xhn/6c8It/JSIcPeYxe3t/MzZdNurP/zDbcen6pDU8skHCQQp1NGrc9DZY2Lex05++D5o98Ll/s+cbOhBV/A4e/MKsa1uzDRfxS93zEbM7PklGOI5d0+yiTfw5ftKLZnBK7PaQadbBytcVNwd5O80aDtYWRzicJpNngxqj4NdrF7402kfAEQ4OoSOf8WtD84AWqlMbs09/N1v5ev9mDUl4Y19/HL760+zNn32MF5rTv8Ascqn/W9gZPMpp9MsjzJaa2+yzP8xwXl+xs0+QkIOfNLsu4ReIS0E4ghj3mDeecESN/Ilrm523kW9SAaePIhSgQcKB5heNMfsxCbX2WN7/76CJmi8OM3bM8acG+3N6h+5mZLC9c6Dv+5SEcLAHs/bY+sETLRkmzlW7+Brjrhf5F4EkIsKRBKUG+Eyazeryzf2JixqbjRkVHpsTqmcmGmpWNB5hyec0eunbZsdMD4rYbyWzG7fxS3CbHQfAYG6h7c3u/MRsj0eSEQ7H9vH4ZmOn3TjKLTCH396km1CpCMde63S1Ww/q4fVt9PjJ9tC7vxsOpFuvNI/nh/HGoL+tV7+IK42Z5XIaHfL3eNvo7Pds0G9+mMaQ6zaw+drPZi9+Ntw2Pse/Ou3eq4vdcfByHmlb5PBXbZ52s+aNUum11Fz2+umre+/3vfJju+/toR7J2X1tX3OCVubLpKaVEhEO6nWHeHCe/fyP2eo3+GrsKMnnNMp8xnGZg3Czxcye2d0vJWgCdPOJjXbtm5MRDqeRQaOB9gXNwuaL+74juNtc9GayTaVUGo5gbXGEo28Ps3umayPiCAd9+TpCk5TLaRQSsc09vnkUeaCPWe+lffMY5AJsus1h9uMx/qHJOn/um2SEAydKDuKr3zM77Gm//OPX8s21mGKdRiUf2pUkHJgqXt/HDMdoCC3ENkryOY0StbPFXT6xQLsBYeOydf0HZgc96ZdItOGZ6/v+Tu3P8S9m+aJUgloqNIFoBCHl+J0gtJnoliQiwpEEpQb4TBrCQfdREbebbaaNdc8VzG7bzgdmp/v922BYgoTjkS99lS43F2zJ3DCRk18yO6+/2S3bmu29ohkhizgFOlmig9lc/++45tTeSTQcQds+akNs+89+bfbwl7lNQOH2l4pwEHJK6Cmyybnve+GsyD2HLW9915zPu4F0PuAlG/ZvfdbmCMdfYyba1c/7O3aH2WexHVfvbB3bzmJoProf87q1ma25/XyN/82Sn4aPs9/+9svCWXW5BfwoFzQh/4ydlJdw8M5Xl67jkQzMKJiA8N94/MNhdXxFEi2LEhEOtGIcVJBQwvU49LitMTfQGKx1U7T6PEg4MBG8+4t5JA+NCT4hHHA3fmh2wBO+yvjCjf1eMd9wgEQgqqi8nbo6iUmFsjEPUj6aNuY0Nm8Izh8p3GDKSTh2/v/Q1nunfzk1jnDg+BllunKEA40O6xlhv9hmKR8/DsEVrvGddr872gz/DYjIV/5S8IQbM5eZ01/xLwVJNByP9DXbbin/ffy00JZgTuFG7/wUkszTShGOJeY267+vr/lCS8M8jrq8eWs5EKXy0VDf5wVZtIOvNcY89cK3vrkEDTJEGWGtuLBkTE+YxJHuV/opBvIRDnzu+MAd48n4st7wkWFPx3E1jYhwpEGrAT2blnCEuz7/HGY/Hev/Nc7mGOfDwTvOcQq/ECIMHt7ZXzRxwmLscXUyDQdloGLkprNkx5l2R6IZ8EHJl1PAtaFUhGP/Dea3G/bzE5IscdRr9vVQPwZzj15d7faDfc3HGqe+be98U98DK86HY9PlO9qzJ67ivbvfDZ/Z+9+NtM8uCgXph8Dc7pIBNuyfCXkJB69BNs7us4Rtu3Inj8w4efi9323nKz+2yTDDJFIiwjHoCDM257d/NlvzJr/i4Ka660Nm90x3Sg42K5cPB58l57PZaBzan+1rUM6I/s6cVySb9tznJtNw8DxhomSqxa7vTJHcLHH2i2prFJzlJBzB9YomxznKknMEkoV0viBamxTnw7F4B7PBR/rvnvW62Wkvmw09wY/IiJOL3vI1QEkIB4cw5oh9V/LNsU7IS8HBO6TIm3ehmUaTmFQgXZiWOrc1Q1MH2cilKcjlw4FjLg66yFJX+ISOMcklaH+JQMxHOCije0ezczfyCYrbDrgoXfXeTBNaku1AhCMJSg3wmTSE45GdzWZr4d8crpvu5ETypQ+m5zc48AmzGz6sD1IuwvHErr4XNzbflv18pzRsr9wqu11ohiraCTdSbJtIPg3HJW/73toIN9I5Z/O1KSwWQvy4Gax0bbIBLRXhCJKDzc77wJ4b6OfNOHbLhe2iXX29JFqKr4bUz2AVRzhWWLCdfXT+Wt67J9032G546WcbfvNG1qxpE7vq+Z/s8NtmqpyC+CWJUunUblbr0HYWmzR5qv084j9bY/H2tv/63Wynnp29+ra88EN7+qMcGYqC8JaIcPCtC77FcNdAs90f9itgo/5ten6YuKRvuQgHjnCQUgTV/iaLmV09PerFqY6j5mASDcfic/u39WFjzFo0NVt3IbOzNvD9FNBwzHtBcXOQt9Os4WBtcSaVIFb4tdz3mf8WviiQMbQUREBw0IQljnCgGWXsIFxu7IiowKkSUrD0lXVLcnM1SZQKJhNMMQjJtZya/+Revib1/Dd8/5kkUm4NB+3uv4/ZAnP6+1Svm82+z5M/IxfhOHhVs2umk0Ki/tAeDTjY7/mxz5mxL0bN5SQ+HLQVE824ib5/3doLmh3Vc6aWetmrfZ+qJCLCkQSlBvhMms3KbVBsntve60d5ELWC0x6bD5oHzCVhCRKOw58xe+Zrf+PBZokJBaaMug+7cPC2iuoZxzNsu9svbbb7cr5nPxqKfISDTKMu62MwdMxtiN/9bbbopckGtFSEgyiVH69ezzq2m9U++O4f2/2agZ6p44njV7Yu7WezH/4cZwsfFv1REUc4iDDBXwOZo3ULO6P3YrbFCn4YTt8rP/HCbF87bXVbp/tcNmHSVNvn+k89h9JF5mlt5+28hOf8eeMrvyRyGj1yswXtsj26eyG8Sx/zuhfdQt6PD89b06tvt6s/sbvfTBbWayUiHM45kI0Up9+v/zI7dR3ft8jDIHBABkc3eIie099PwITzG4Tgzu19kwzzbO7zzNDafXW479gMMSVjKDdOvPxPWMtsq7v9m2gSwuGyNWLGwa6Oep+bJBt8MENpvplYTg2HF7p7nK99wDG3z/1m7Vv5fi2o/FmXrMMocesLUsJ+gOCkjXMh0UXICS+YXfim2WnrztQk8f+EgHKgEblCuDI+DEkIx8TJZu8c4Je996Nmt33s7yk/H2vWsY0/1kSIJJFyEg5CkjF3EBHFngpB+Oavma3kcoXpIixBwoGGjLwoSLd2/n5KZBWKx/kv8knMt0f7/m/sm7s8aPbeEN+UiNkQzQ3+LUkIh3PCp62QCzL7oo1GK42QjRQzZxIR4UiCUgN8Jg3hQEPw9G6+d3NYbv3YbJ/p4YLh3/I5jXJR2vNh32MaITkRqtEowbGPNMxJCEcw9n/oKLOJU307MsLHwlhsSaRUhIO6+vTsbHcftryngQjK5KnTbIdLPrInBkRfEXI5jVIOzpsrnfyWjZ84xbp3nd3eOrOnzYE37/+xdx1gUhRL+N87jpyzZAEJIkGCRMmggiJBFAVUFFCCIKIYUBRFBREFFZAcBUSQoJIkSxYkSE6Sc84H3O17//QNtyy7tzOz8W6rvs/3gJ3prv67e/rv6qpqJ2GisZJvL8MjhTJ6PFJhyvWN/aprDqgkL4x2yZMlpUaSTl26iZLdl+GUu4Nm54p9RDhalQbGPXN3lJReFXfKjwz1nPjLXZ87JrTSnepcPcvQbGaCNEI46IA58RnlL8JdId1zCmVSf+fCyAXSiASScFAfzj86bzvfYsAM+tVHqPN7V5KQ0yifp1Pvw4PVAktywUSCXPychUdO5YYo524jRyoM42U4LxfpfeeBDCkUWWFKdobAGz0+DSThmNpCbdbcCTHK2ffeXz05jfINx9T6CX236YNRd4wxwsFjMVqzaWEkoSSZ4feU6wE3jKW+d02QXLVPCIeRWZ8EnzFDONh8WiV4vl01n/Km5geEkSNMEOSKjfMdV4SDJIM7PFpEuLth+Ksu/Bh3rax2rUy6RNl5Wp39MqSRYoRw8LkOFVVZNGGzTiao4XHQoNXGO9OXhIO1Mqy097NFNWJA+ffQJXz48y4siHMidaWZK8JB/wk6i87ecBK9p+3GKQdn02K50uKL54tplo4MqZLh/NVb2nPvTdqpPWfkSIV63J89NQa0fhC1SmRB+tRRuHjtFpZtP4seE3dgzwkTecB9RDg0/IoCNJdzoeIRHz/MM/8/fkgiuai7EndRKlzY6Pw4eO29KbcZ0dS9qvIZ4a6fCZoGroyPbjJCOKgLF5WeNQF+sFkO/QlIrplXhpFTRiTQhEPXm9YjWoH0u1R6zHed/VJvgyvCwXs96PfCUOQPF96d/4bOi71qK8dfPWEXE5HxaIw5SoxYOBiVwSMbfpfoi5MjjTqiZXQaxwQdKI1KIAkHLUaMiHInZgkH20yrM4nst6vudpalgz6P8vj9JmGhdWLSFrXpYj4VIxYO6snEYf0fU1miUycHzl0D5u5RR1bc1BkVIRxGkUpiz5klHEms+Yaa42vCYajSpPaQDwlHUoPGSHv8QTiM1Btuz/iacIQbfkbbK4TDKFJJ7DkhHJ47VAiHZ4w8PiGEwyNECT0ghMMr+Ay/LITDMFRePSiEwyv4Eu/LQjg8950QDs8YeXxCCIdHiIRweAWRT14WwuETGD0WIoTDI0RJ84GoXsYvYUuaCHhuVZ+66gzeWT4f/xc+nLIDSKfCREXcIWBHslObcGvJRy4f+HypOtsXcY+AuzHIN2QO+2bk0L/mlsOFc46lyhj1DcYsJSGcfVdL6JYU1rfF5v9a3V4p4h6B0U2BNmXv/X3MnE14ZdAKIGMBgS8hBGKikc92GAd/icv85PSsmWiNcAXa3RgkHjKHfTMqmGeCobSuRMaobzBmKQnh7LtaQreksCYcTSfdHSESut0UPM30BEXOGmzZdxKl240FsiWQGjV4aodOzdfPoUmplPi1T1y+bCfN9OyxoaNw6GnibgxSU5nDvumvhML3ZYz6BmOW4ilNgu9qCs2SwppwMHEM00GLuEbggSzA7m7u0SnywvfYcyM7EJVGIHSHwLm9mNijDlrWU2ndXUmRb9X9GiL3IuBpDMoc9s2omdgc4AVlMkZ9g6e7Ujzh7N/ag196WBMOXitc+FtzMdTB77LAacBMql3Uhaku5btpa9F12Gogc9zd5YFTLXHUdOsqcuEo9k7uglSuMsbFteK71UDXuOvME0fDAqelpzEoc9j7vmB6/L3dVG4ht3NdxqjXQBvB2etKQryAsCYc7JtJm9U13CJ3I8CLiv7ppK64dic3b8eg7KvDse1cSiB13PWLAqRCwB4DnNmJn95vgBcSsG7wUSaN4y2izBYqEo+AkTEoc9j7EfNTc4BZYRMSGaOBwdn7WkK7hLAnHOwe7i65yxRRCGRNA6xqD9Cc7Un2HDmLKh3H4IwtB5AyLjWqp5eS+u8kG+f3octTD2JQl8cNtZZHKlWGA2dMJDA1VHAifcjMGJQ5bL2TacGkFcmIyBg1gpLrZ8zgbL2W0H9TCEdcHwnpUEDQ7MfU6Q/F3TZrZAhv/e8UHus+EcdupAXS5gRsEUZeS5rP3LoKXDiALo1LGyYbOhBbTwGPjZUjPitjUEiH+elkZRGUMRoYnM3XkjjeEMLh0E88Xnlnfvh+8HkXwzdPqJsyzcrxs1fw1g/zMWXJLiB1ViBFeiAqFWBL4EzGbCUh+bwdiLkJ3LwKXD+HXOli0b9DPY/HKO6awvt53poLTIm7Fj0km+xHpbwZg1Qr3Oewka4hoeOdIJ6OUWSMGkHT/TPe4uxd7aH5thAOp36hE9qv24Hp29T13LyUh5c3JTXhTZi8sZKXU9UuCLQuA/DM3FvZ9t9pTFiwBYs37Meuw2dx+Vq0dotlUpVkkRHIlTUdyhXNhWY1iqNp9eIJOogaxYH+HBM2AYv3A7tOq0umkhqM/hqD4TKHjY4lJpvi4lcul7pSvemDCTuIGi03HMaoUSz4nL9wNqNDqD8rhCPUe0j0EwQEAUFAEBAEkgACQjiSQCdKEwQBQUAQEAQEgVBHQAhHqPeQ6CcICAKCgCAgCCQBBIRwJIFOlCYIAoKAICAICAKhjoAQjlDvIdFPEBAEBAFBQBBIAggI4UgCnShNEAQEAUFAEBAEQh0BIRyh3kOinyAgCAgCgoAgkAQQEMKRBDpRmiAICAKCgCAgCIQ6AkI4Qr2HRD9BQBAQBAQBQSAJICCEIwl0ojRBEBAEBAFBQBAIdQSEcIR6D4l+goAgIAgIAoJAEkBACEcS6ERpgiAgCAgCgoAgEOoICOEI9R4S/QQBQUAQEAQEgSSAgBCOJNCJ0gRBQBAQBAQBQSDUERDCEeo9JPoJAoKAICAICAJJAAEhHEmgE6UJgoAgIAgIAoJAqCMghCPUe0j0EwQEAUFAEBAEkgACQjiSQCdKEwQBQUAQEAQEgVBHQAhHqPeQ6CcICAKCgCAgCCQBBIRwJIFOlCYIAoKAICAICAKhjoAQjlDvIdFPEBAEBAFBQBBIAggI4UgCnShNEAQEAUFAEBAEQh0BIRyh3kOinyAgCAgCgoAgkAQQEMKRBDpRmiAICAKCgCAgCIQ6AkI4LPSQXXsnFrBHwB4bg4jdO4AtW4DDh4BTp2FPkQz2bNlhy18QMWXLI1meXLDbIrS3bHYb7DY7bLBZqFleEQTCGQHOPBvssAN2/jkCJ0/aceiwDefPxCIyCsiSJQL3F4xFhvR8VM0xvqGEf5d5F84jSNoeXASEcFjA345Y2G5GA0uXwv7JJ4g9fQYo+gDs+e5HRPrMsMXegu3cGcQe3I+I3btwo2p1RPbogYhSDyMigqSD/2OhYnlFEAhrBGI1wnD2LPDLNGDcGBs27biGdNmuIFWGWMTejsT1i8kQfSY1atWNwMutb+OJhsmRMiXpPSecIikigoAgEBwEhHBYwX3fbuD1Tog+ewz44GNE1a0HW4aMd0qy25QlA/YY2E6dBCZOQuyIIbhepx5SfNkXERkyah9A4RxWwJd3whWBGzftmDwZ+LDnLaQuvB+VX/4XJWqdRlTqGNgiaPXglIvE9XPp8M+swlgzoSSyRtow8PsI1KieAhFxVkZh++E6gqTdwUZACIeJHoiFHRGLF8H+6iu42aEDIl/viGTpMxgqwX70MGw9P8C1vbtgm/IrkufOpX0A9X2XkA9DMMpDYYlALM5ftKHty8DKncfQrP9iFKp4AZGR+lGJ/v/x4PDQMuZGCmyaVh5zv3wIndtdQs9eWRCVTB3JKLovsy4sh5M0OmgICOEwCL12brz1X9gbNcKt/n2RvGkLzRdDUYaEhZ9Dvh8REwN88jGuLFuIZDPnIEXmzNqHT51Mi5hBYP78+bh06RKaN29u5jV51gACc+fOxbVr19CsWTMDT/v5ETtwNdqO55rYsD9iI14YvBLp0qsZBVsMYE+m/KmcxIZI2G23NT+r83vzYljLBni95Tl89HE22GzJZL75udukeEHAFQJCOIyMC5pqz58F6tTBtdfaIdVrnRABzd6h+6UZoBw2xCAGkbftQLtXcDYCyPTjSNiikvvl43f58mV88803d+mVPn16FC5cGI8++igyZow/AjICQag906hRIxw4cABb6KzrpZw7dw7Lly/Hvn37NFwqVqyIhx56yMtSE+/rDRs2xPHjx/HPP/8EqRE6Bae3lB1vd4vAjL934PUpC5EqdaxGL3R3UOWXca8oK4by14i1xeLS3oL4odljGNTvEp5vkRW2OIdSfzbw9OnT2rg6ePAgsmXLhmrVquH+++/3Z5VBL/unn37C3r1779IjS5Ys2nyqWrUqoqKi/KJjTEwMxo8fjxo1aqBgwYIJ1jFv3jykTp0a1atX94suUqh7BIRweBoddn6w7Ijo/QlubP0XySdNgS0qyrIHBj+gtvOnEFurDi5+2Q+ZnmioaeBrC8fRo0eRJ08epEuXDhkyqGMf7lq5uJJ4/PDDD2jdurWn1gf9d5IAkqRhw4ahffv2d/TxFeEYOXIk3nrrLZCg3Xfffbhw4QKuX7+u7e7HjRuHNGnSBB2DQCsQbMKhWRPjZtj8+UDLdqfRac40ZM510yIUtEPasXd+Vcx8936sWpUMefIwjMV/QrLfq1cvbc5lz54d58+fx+3bt9G1a1f0798fkZGR/qvcDyXXrl09CyYJAAAgAElEQVRb058EKiHh2KH1kXNJl4sXL2rzq0iRIvj1119RokQJn2u4a9cuFCtWDB06dMCQIUO08pctW4aaNWti0aJFoP66ULecOXNi48aNPtdDCkwYASEcCeCj7Z3sdthPHkfsI5VgX7oYkQULe+/nzpC+n8bh+NhRyP7nMkTecWbz3XDVCUePHj3Qr1+/OwXv378fLVu2xPr167Ft2zbtIxDK4k/CsXbtWlSqVEkjF/xIcWG4desWZsyYgZdeegmtWrXCiBEjQhkev+gWbMKhTTvtvxjUrRWJtI/PRe32u5QjtiWJj06Z3PZVPFroHPr3z+23iJUff/xRW/j436effoqsWbNqxIMk5KOPPsJXX32Fd955x1JLgvWSGcLB7wqtj7rExsZi5cqV2vFn2rRpsXXrVqRMmdKnTbHb7aDl4uGHH9bIREKE4++//9bqL1mypE91kMI8IyCEwwPh0D5Vw4Yievl8JJs4A5HaN8/Vh0+Zf69djcDWrTdQqaL7CaXt36KvILZcRZwfOw6Zy5ezbDFxp747wsHnaSovV64c+vbti3ffffdOEdHR0fjzzz/B3QLNknXq1NGsIc6yadMmcLHm4kwzcZkyZe55xlNZkyZNAs2gXNRXrFiBDRs2aLuiBg0aaFYZyqBBg0CC9N133+Gpp57SdOZHnMTA0cKxbt060O+gTZs2yJcv3x1diAEtGE888QQeeeSRe3Ts1q0bBg4ciMOHD2vWIEd5/fXXtXdPnjyp7er+++8/zRKiCxcQ7lRJ3miB0WX69OnacUTnzp3v/Bs/vtxtnTlzRtvd1apVCylSpLjz+5IlS7QP8ocffgi2ZfXq1cicOTMef/xxzRSvy/bt2/HLL7/g7bff1j7oS5cu1T6c9evXR968ee9p35UrV7SP8KFDh7TdHxcN5w89FwO2j32aP39+raxnn302BI5UgI2bbajV4Ax6rpmEqDSO+TScm2qD/VZyXL8ShdSZrsT5RTketShPKf7LsVVV8csbubF9R2akTBnfB54/lcaeIOYFChRA6dKltbkUwTh4B+Gc4jEgx2by5Mnv/HLkyBEsXrxYs0CWKlVKM/cnS0b/FCU7duzA1KlT0alTJ+3Pq1atwquvvoqbN29qpJjWSloSFi5ciKZNm6JQoULae0bGAJ9zN6dZHsfm2LFjwUWdc4xziXPKlZCsOhMO/bmhQ4eiY8eOmo7EQZc9e/Zo84OWxfLly2ubAOcjL9ZNorBmzRrtWKZKlSoaxrqwnQMGDNCOVPhN+vzzz7U5Qr1ffPFF7XvGzVeqVKlAQsjv2gsvvHBXEzz1wbFjxzSsX3nlFW0ecW6dPXtWq5NER8QzAkI4PGHEr1TLZ3C7Vj0ka/uaetrNRuvKFaBTB2DJ0i04dLhUgiVrZ8yvvYQzD5ZG1q7dPWlh+veECIer33ju+uSTT2oLPM+ZOVm52PHjwMWKQpMqF+JRo0YhV65c2keBZfGogxYC3UxspCwSiFOnTmmL3OzZs7WjC35s+WEgmeGukIs5z7/5wStevLhGCvix4DOOhIMfOJ4Rf/LJJ/j444/vYPX1119rO0nuqFyZcd9//32NdJFgOVt62IadO3dqH/4xY8bgzTffBD84uql4wYIFeOyxxzTCxjJ04a6Jukxm/CagWZd69uyptYckYvfu3ShatKi2GBFDCk3vn332mbZoTJkyRcOddfHs+/fff9c+wBSSDZKBl19+GRMmTNB2ciQ3/Pjx7Lxx48Z39CCGtNzQlE/caClivVzUcuTIoT3Hxer555/XzNz0XeFHnXryfJuLXfB8OKidHR/2tGHxsbVoMWAdSOfdyu0o/NmvKVYs34pPF2yHXUuuF+PSIhJxOz2+qdYaw4YcRP26alH2pZD4kjSTeHLhd5aff/4ZEydOxODBg++QYx5vcpySgBB/zkGS699+++3OeGN5zzzzjPbftGnTtGJJPLjQVqhQQbMe8BkSSI7NevXqafPI0xjwNKc59kl0uCFg2azr6aef1oiPK0mIcOgWRZIAWhA53mjx+fLLL5EpUybtG0ByzHnFOvXNDjc2JA2cGyRzJCbcCFCH77//XvsOnThxQsOKc4nzjd8yjn1acokl5x5xY5ncIJGgE19djPQBy2L7P/jgA+07xDlCwsGNE8mO44bEl2MqKZUlhMNDb2r7pDLFcXPcJCQrXRqRLg9UYmGPiUCZ0jdwNfoGbkUfwMFD9+76HavSkocNG4rTGzYg2/BRblmMvii6UpMfFX5cXElChIOm3e7du2sLPRd+Ljxly5bVdg5//PGHthByAvP8k4vfX3/9pVXByd2lSxeNcHCnQ+EHiTut4cOHo127dobLYr1cTLnj4aLMjw0XTS66X3zxBdhuitEjFX5E+AHgR0EX7ta5cJNwuBISDe6oaBXh7os7I+cdKd/Tz4e54PODTyHxYptZr74w6x89YkJSQEsFd2K9e/fWPlL6Ik4SQzJFvxSKTji4+FMP+txwx0kLB/9MQsV3dcLBHRU/viQcXJy42+SHjySJxIHEjQSLuy5akvhv3EWyfcSEZIVCCw13fbQksR/44eZiwH50bFcwPngk5E8+aUP6+vNQsdXuOCdtF0z/dhqMbfMMdq+2w557I75ctkVtCNwcv9CV9Peu7VHl/iP49NN4y5RzGzm+iYUrYd+yj10Jj1BIejluPTkv8n1aqWjxeuONN7SjFpJH9j379IEHHtB2/uwXnXDQmsZdNn8jOfn333+1RZBjgeORfc7FmxZGI2PAyJymnt4cqeg40WLIsUWyXbduXQ1f4kzCQasdxzj9LUicSdboQ0Xh/xNzEjXOGy7wJOicV3PmzNGwciQc/HeKOx8OZ8JhtA90wkGs2R+c27RakmRxc0IS5OujomDMPX/WKYQjAXS1OBS7DbEZ08B27BRsmgMhd1rO2QrtsMfasGLVaWzdmhVffLkFhw/Gm/tcVaGVPWc2Tg/9Adl++9OtFly0uLtwJblz50aTJk1c/qYTDu62nnvuOe0Z7gx4fMFFiBOaixatEtzhcifEuvTdNJ/nh43WC/3jSUsHrR/cxTkKo164cyBZMVoWCQcXUu74ddMxdzwkOPyA6IuiUcLRp08fbbek68rdDXfytEDw4+ROeIRB8kAHMn7EiRd3UyRgulAvmqhJ8EgS9L/TysLFmtYgWmpmzZqlfSy5S+MOih8gHtfww09Tri40J3NBYF9QdMLBPtOtHvx3lk3LCi08/LjphIM6c5HRhTs16qJ/kLlwvffee5p1yPGohViwTH4keZZOqw7xZvmOwsWApCV4Fg47YmNtqFAxFhXen47iNY+57T/77SisnZ0Jt04UxpyfL+HLZdviPEBcv0Iis+LrZkh/IgajRxdwWy4te1xEXAnnATFyJVw4udvlAqhbkhL6gHMekDSQ1Does5E8vPbaa9rRSeXKle8QDn2x1svUF0Gd8Ov/bnQMGJnTLNMbwnHjxg1tjHEzwU0NceV8oDWQx6f8zfEIheScVkPOK24GSIpJjmnN0/0zrl69qm1MuCnivPSGcBjtAx1rEidusnTRSRtJvePxakL9Hq6/CeHw0POaKTcyFWy3rkPLS+5Bhg234/PP/8WhgwkfqWhucQvn4+yAfsg8d4nfolRcqcsdBS0ceogad1c0KdIU6Ri2xjNNTi7dGYsfUOdjC+fyjZRFkyknORdY50WNiz53IFxcKUYJB3f3fJcfJn70deLD83JPzmE0FXM3RCJGqws/XlzAacnhLpLCnRnPj7k40GLCMokPrQb8INK3hH4btAZt3rz5Diw0WdOSxJ0bF3HdZ4JEgMSBohMOEhT6p+iiH7/wg8aydcJBcuToN8MIABI+kpNvv/1WI4+sjz4qjkK9aVbm/9P8zCMbZ6diPh8KTqMxsXaUKW1HrX5TUajSqbhmuErwBc2vatWI6pg14Sz6LtvmJlBWFUHCseaHRojYGYlJk/J7ms6mfzdDOEhcueByQ8Cx5ij6hoFkmb49uoXDue/1RZBkl2NWFyNjgGTTyJxmmWYIB60OroTEm3OMPioMGeZY59jXLRL6O5wXDE3XLYrccHGe0WeDxygkGc4+S1YJh5k+cIc1iT7JlLujW9ODKAm/IIQjgc5VwXmxiM2ZB7bNG2DLER/q5e41o4RDK3vaZJyYOgU5p85yq4W3Fg7HBYW7KE56kg3HyBWep/JD4G5h5m6DizlNxDT50yLgToyURbO+rwkH9aF1hrtEkgfqQSczWlHM5Fzg8RLP2bnA8wOnm7RnzpypWZN4RDN69GjNlMudGYkGFweSCn4kuRulIyqFuzC2lcSBFiV+3GlRovWGZ8qeCAcJCHd0tNzQVO+OcLAunv/T7MydLi0oPC93F4HEfAUkKLTKuDp7Dj7hUBaOipXsKNdjJorXPuj2yJEnJxGxEVg9qhpmTTiHvsu2Jkg4mJtjef9nkPH0NYwc6d6Hw6qFg4snSTkJsO646W6u0OJIfxnOR/obOQqdknnMqJNIs4TDyBhg+UbmtFnCwbHnmAOI1gzu/Ek0dD8vHgUSH+dwd9albzK4CdJ9Rbhx4EaJ844J/+i4SksI/UkoVgmHmT4QwuE9ExLCkSCGylXN9mhV2Hv3RkTtegk/bQdGjIzGl1+swn//1UrwWe1I5Ys+OH7uDHJ+PdBtlIqvfTi4EHP3T/Ofbp7koskdFh3QHD3nHRtAB08juyEjZbFcfxAOWjd4bMCjBB450OxJb3VXQksDrRk8lqJTmbPwY8YPnL5w0DrBHRmPoRg1Q5M6d2dcmPjRI5njAk6fGt0DX/eVIel58MEH71RBCw+PfDwRDvYRSYMnCwf7jTtlfXHiTpf68D93Qp8PWm949MJ2OkqwCYfmUG0HnmpsR5oay1H55U13MvLe2x4V8rp6VCVMm3gS3y49iBh7rMMNsc5vxGJWxy6o+eB29OrlPizSqg8HjxXpsOjOaZT/TodiWqL0PDktWrTQLImOQmLLsUmiScJplnAYGQNG57RZwuEuSsWxfbqFw5XFlBsFEgo6jjpnEuaGgFZGbphIwHU/NKuEQ7dwGOkDIRxCOLxHwEMJWj6Abm8gIkMG2D/+THNIc3/t2m3ciLbh+o2byJQh/sz+rir0JIqxdqBxAxx9viVyPd/Kb0cqziZzLqCM+OAOnh89Ch3gGOpF3ww6KjoKdwC6/wGjHLgrcTaZ8oNIPww6yxktyx+Eg74TXPS5WFAPHm1wV+VO6PFO06zuFOv4HE3ZJBSOZIHOnnTiZPt5FEQLCPEhcWvbtq0WqUP/CD1ZGP1f6BjH3aqjnwotMfzQORMOxygY6sLyuMPTfWt0C4fuea/ryyMv+r3QSkXHU/2IxpWJ17k/SSKdkzmRMJEQBc+HQ+W/6d07FnN37ccLg//Q8oa6l2SIiYmGLSYSEfGRpi4fj4zOhf5VG2Lc2IOoWb24z78fPN7iGCThZb84W9dIVDku9bBYkhOGO9OvwZHscwPAMUU/H2boNEs4zIwBT3PaH4SDZTKaiw6uzvOP3xNuFGgF4RzlkRIdn3lcpQvHMUk2jzppdbVKOFie0T4QwuH9dBELhwHCEbNgDpJ92Av2FatgT844FddZAuNPmPXLoVwXHmu3I+LEQZyvVg8xK5cha04VHulLSShKheSCO3Wa+rnL4g6ZRy00d3KHRkJC3wN+9Gjq5RkqTfDc2XMXzSMBPYadPgH8M8kLSYzRsowSDjqK0ZGSIWc0/3Oh5kfcXaZRRnBwASU5YthgQscpbA8zP7JsEjMuvrR80FGP4ackDixDJwvcjdFkTpJChzY9ooXP0mrE4xNHMkZ9+ZHkEQujQLgY0bmVWDGaQF/Q9cWB/UKdWC+tE1z4SXBoTmbf6ISDpJARPTyWIUmhxYS7VVpE2E/se37M6eDLHSD7mI573BWSVHIRY5t0CwxN1zwmI7Z0FKaujvr5clwaK4t3Cdiwc+ctVKx5Gx+snoSUGa+4eZU7gFjtzhTNLGKPBLQ7VFwTlCML62HWh1HYujW/W2ueMR3dP6WPK1qPaCnjwkjSyX+nxdLxGIs5WOgfQX8bWpp4JMgdPPuYiy0XY44zs4TD6BgwMqfZUt3JmySWGxB38yqhsFhnxPQoFX5j+F3hGGfECOe27gTNd+gXxg0EnaPpv8G6dUuS7rPlinDwu8UoNP0YWP92OEepGO0DIRzezgxOUfaCiEsElGnXBvvNG7hVrSqi3u8Be9NnwIuhrN3yaufGTdu94a1OOGRLjvzfDvIL+gkRDu4c6J3O3QHzAVC4qDHCggmuuFjT5M4FkosRd1oUkhDu2jn5uehy4tOqwFBZLl76+ayRsowSDg5POoyRBNDJkbtGfkTcEQ7dY9zVUYEroNk+Lvjc0ZPY0O+CCZR4BEKTrmP+Dt3USzwcM5By8WcCM+cMkiRfJCG0UHCBJ3782JEUMPSRGPPfdcJBKwUXGJrSSR5IKEhg9IgUnXDwo06nUC5I7Es6+pJAcqemC/Nt0NrBoyAey9DBlQsXyaL+HM3TJItczEhsqB8dCelQSoISVAsHgBjY0eiJaESU34563VYmnIsjwVmkSIktJhUmtWqP+hW2ofdnJXyebE9XgWOW5I7klJjSAkZCyHBOEgv+5hh+reeAINngsR37nuNEP/JjuWYJB98xMgaMzmk9eyrJsE6MXUFuhnA45uHg8R4jpzieaQXiRka/koHzkWOWRJlzg9gx+otEm0SffjCuCAfHMDdP3BxwLpHIcY4nlIcjoT4QwuH9UiWEwwOGvCoqAhGInvsHkr/bHfYFSxGRI6ely090J1SsW42LLV/CzbnzkLVwIYeLqLzvUL0E/fI2hlMybMxZuPBwEWLCIX0HTzMldxg08XKCcuK7ymDJxZKLKK0B3HG4SqrlqSya/6kjQ/8chTsuLniOZ7d8jostd4lcIKkbz8F57wl9RhxF39U4e/MnhCzLpwOobtbmB4lnyI6ZHvk+ExAxFI/Oo45HNSQr1JsfYme8uKjrDogkcuwL+pjwg8mjFX4sdcLBjyY/joyGoamZBMQx06ij0yh1o0MrP5D88LrqJzrXkZjwGI0fWpIfx/LYJj1Ch33KEESWxR0fLSfOfeO70WmwJDuwcvVlNHw6Gbr8MR9ZCtN51IrwLpXb2Dn5ecwdcAlr12ZF9qyZYPDmRSsVau/QOsf5pIc7kzg7ZsJ1LFjPckkSSudtWuocI8b0TKPsE933iu/r2S/pg8Dx5SxGxgDfMTKnSWBIQnm06CpzL8sh+aZ/Bi0WRkXPNMr5TX8qOl4758PRLY+c39zosH7+pz/nmGmU3yRdqAvJCzdDjCQxkmnUXR+4w5obLF6HoGdBNtrucHxOCIeHXldmOH6YbbjSpQPSHT0E24QpiE2bVsvRYcb5QiMcB/YhumkDHO/xMQo81wKxNvrNW70jIhyHbMJt5nkvF2aSBzPRKcFE0l1YrLNOCUWpBFN//9St6Dnn36e9L2DUr1HoPHs6Uqa7CLvNrv1H66NKWX7v/FG/M4w9Rvvv3D+PY0jLXBgz6hSebFhMvS/zzj9dJ6UKAm4QEMJheGjYEXP1OqJfbIHUyVIwHAWxadNDu3dNJx5x/gVatL/2vVQHL/ywaVEpe3Yg5qXW2F3vSRTp9REiI+PvSjCshjzoEgEuTLRqcIfO3RVziiQWEcLhvqc4jaJvxqJtm/NYvz8VWo36HelynrhzpKnevPdUmDSel7/ZkQzn1z2G4e3zoEf3nXizS5lEQ0QTy/gVPQUBowgI4TCKVFzSoNuXLuHSm12QZeMG4LM+QIOnYbfZYLPFwq47rpFikHHEXfRmj74J28jvcW3IMBxv0w75u3ZDsig6noplwwT8bh8l2aCpVE/nzCMJngcnFhHCkVBP0REUuHr9Njp3Poc5f2ZCk493oGjDTbCluOBmBmnZc2A/UwTrx1fAn8Ni8cH7x9D1zdIuU9cnlnEiegoCiR0BIRwGe1DPDUBjRmyMHZen/4yIr75C+uzZgBdawF6lGpA7L2xRKfgA7LeiYdu1E1ixHDGTx+N45tyIeP995KhSJe4IRQy6BqE39BhDSBlWyKyN+m2zhl4MgYfoM8HIGka06CG1rtTSb4t1PscPgSb4WYU476fYGEz/9RR690qO65EZUaPtbuSteBxpslxAitS3tesFbl5NgctHsmPf0kJYPCY1ij9wAF8PTINyZfIrQ4hmdRQRBASBYCAghMML1G9ev4HzP41Dit//gG3HZkTduolUUekQE2nHjRuXcTNNZkSXL40bz7REnsefQFSk63BaL1SQVwWBMEJAS8OHK9duYfbMUxg/7ha2bM2IGHty2CIZ/GXTXDZSJT+JKlUvoW37NKhWtQCSR8nRZRgNEmlqCCMghMNi56hTY2XutdtjcfvaDdy4dBHXr1wCImxIky4jkmdIi6jkqbS73nimHLfFslijvCYIhDsCtDPGH0TG2mNx6cINnLsQjauXY2CLjEW6dMmQOXNKpE2T+s6Rptg0wn3cSPtDBQEhHF72hPoEKlE+846i+8/H/TvdOuTr5yXi8rogEI+AilFxnFSOlESQEgQEgVBCQAhHKPWG6CIICAKCgCAgCCRRBIRwJNGOlWYJAoKAICAICAKhhIAQjlDqDdFFEBAEBAFBQBBIoggI4UiiHSvNEgQEAUFAEBAEQgkBIRyh1BuiiyAgCAgCgoAgkEQREMKRRDtWmiUICAKCgCAgCIQSAkI4Qqk3RBdBQBAQBAQBQSCJIiCEI4l2rDRLEBAEBAFBQBAIJQSEcIRSb4gugoAgIAgIAoJAEkVACEcS7VhpliAgCAgCgoAgEEoICOEIpd4QXQQBQUAQEAQEgSSKgBCOJNqx0ixBQBAQBAQBQSCUEBDCEUq9IboIAoKAICAICAJJFAEhHEm0Y6VZgoAgIAgIAoJAKCEghCOUekN0EQQEAUFAEBAEkigCQjiSaMdKswQBQUAQEAQEgVBCQAhHKPWG6CIICAKCgCAgCCRRBIRwJNGOlWYJAoKAICAICAKhhIAQjlDqDdFFEBAEBAFBQBBIoggI4UiiHSvNEgQEAUFAEBAEQgkBIRyh1BuiiyAgCAgCgoAgkEQREMKRRDtWmiUICAKCgCAgCIQSAkI4Qqk3RBdBQBAQBAQBQSCJIiCEI4l2rDRLEBAEBAFBQBAIJQSEcIRSbyRyXewAbEmgDWxCUmhHYm9DYh5KMhcSc++J7v5CQAiHv5ANg3L3nwd+2wnM3wPsPA0cvwxExwCZUwEFMgFlcwHNSwCPFgBSJgtNQLafAmbuABbvB3afAU5eUXrmSAsUyQrULgg0Lg48mD009b9xG/jrAPDLNuCfY8CB88C560CKSOC+dECxbMBjDwBPFQMKZgrNNly+CSzdD/z8L/DvSeDQBeBiNJAhBZAvI1AyB/BcSaBmQSBd8tBsg8yF0OwX0Sq0EBDCEVr9kSi02XUG6LMUmLEduHrTs8pcrLtXBV4oHTrEY+Nx4ONFiizdjEm4Dckj1aLduw7w8H2e2xuIJ0g0Jm0GBqwESJo8SZrkQJMHgQ9rAkWzeno6ML9fjgZGbgC+Xw38d95znfdnAt6oDLQtB6RL4fn5QDwhcyEQKEsdSQUBIRxJpScD0A4uzN+tBj5fCly4EV/hA1mAinmBfBmAqEjg/HVg2ylg9SHg2q3456oXAIY3Du6Cd+Um0Hc5MHDV3WSJu+jyuYHc6ZW+Ry8B64+qHbcuXLTfrAK8Vx1IG8SdNhe59jOB5QfidUsdBVTOB5TIDmRKBdyKAQ5dBNYeBvacjX8uY0qgZ02gS2WARCpY8vdR1YZNx+M1SJ8CqJYfKJoN4J8vRQO7TgMrDqo/61LmPjWOKuQOlvaKpMpcCP5cCN4IkJqtICCEwwpqYfgOzfSdfgOmbFGNj7ABLz4MdK0McAFwJVzcaSb/Yhmw/5x6InsaYEQToFGxwIPI45KXpiurBoXHPK9VADpWAopkca3P7rPAkDXAsL8BWhUotHaMa6aOXQIts3cC7WYAp66qmgtmBj6ooY4c3JEgLuqDVgPjNwKxdC4A0KIUMPgpdfwVaBm7Eej2RzxpLZVTWV547OPq6I248+iOVrUtJ5S2JE7fNgRefjjQ2qsjK5kLwZ8Lge95qdFbBIRweItgGLx/5hrwwlTgz72qscWzAZOedU80nCGJvq1IBxcMLng0hw9tBLQsHTjw6F/y1ERgw1FVZ6W8wE/N1YJtREiYWv4CrDmsni6XG/itlfKTCJT8tBnoMBvgUQQJHxdpko0UBv1jSDzYjztOK43rFVb9mDV1oFoAfL8GeGcewDGRKgr4rK46bjMqPEL6aCFw/ZZqd//HgTcqGX3b++dkLqjNQ7Dngvc9KSUEAwEhHMFAPRHVycWNHxfuMCnPl1LmbCtHCgv3Ac9OUUcuJB1c8Lmr9bdwR9poIrDyoKqpcyXg2wZAsghzNd+OBbrNAX5Yo96rmh+Y3SowVgLiz35gf/DIZGoLoG4hc/rzaVqdeJQxOc5SRfzZD4HwiaCFpf0sRTZI1P540ZpPDP1vGo5XTsokHcOfVtY2f4vMhXiEgzkX/N3PUr7/EBDC4T9sk0TJb84BBq1STWlbHhjR2Ltm0SeixkhFOngksbQtUMyPTowxsUCbX4EJm5Te3asBXz/uXRvengcMWKHKaF0GGNMUiDRJXsxosPMMUHOkiqAh2VjWVkVueCPtZgIj16sSulYBBjbwpjTP7647Ajw+TvU7yQbbQN8fq0K/FI4jkg5iMu8l4JE8Vksz9p7MhXtxCvRcMNZT8lSoIiCEI1R7JgT0mvqvMsHH2IE6hdRH3axVwFUzaOng4kMyUDkvsKCNNYuJEYjoe/H6LPUko2S4m/eF0NrAKBHKj08rXxB/CC0S9ccAqw8rUsM+sGLZcNaNO1T2waJ9QKRNHa08W9IfLVA+D4+OUNE0dLxd0c74cVxCGvGIqNoI5fzLSKi/2vnP2iRzwX1PBGou+LwtnuEAACAASURBVGd0SqmBREAIRyDRTkR1cTddboiK1siTAdjQUTl8+kro09HzT1Xa5/WUL4KvhaGWFX8ETl8FCmcGNnRS0Q++EEZNlBsM7D0HZEsDrH0dYNimr8WfONHxlH185KKKzmEf+8MRlj4bX8dZhOio2rGi71AaslY5cFLerqZ8OnwtMhcSRjRQc8HX/SrlBR4BIRyBxzxR1Njld+XgR5n/MlC/sO/VrjJchc7SJM4F2xsTuyvtWk8DJsYdpax5HajoY5P72iNApR9Vza3KABOe8S1GPDYgYeIxBENeV7X3bfksbcFe4LGxqlw6X373pG/r2HwCqDpcWSGeKALMedG35bO0BuOBubuV9WRle6B0Tt/WIXPBM57+ngueNZAnEgMCQjgSQy8FWEfm0OBCx0WiWQlg2vP+UYAhjg8PVpErbcoCo5v6rh76DNCMz3wJHR4BhjTyXdmOJXWcDQxdp3Ja0KTvSz+CV34FxvyjIlI2dgIYPuoPeWYyMH2bWrBJ/JjLw1fSdJJKEMeIlB1dgfwZfVVyfDkHLwDFB6nIFSY3+/UF39Uhc8E4lv6cC8a1kCdDGQEhHKHcO0HSTV/omMRrZ1fjoaNW1H11BjB6A8DEVes7qpBbX0izScCv25VvyJ63gJx+yplx4grwwDcq+qPpg8B0Hy12DF0tP0QlTnulHDCqiS9QcV0GwxyLDVLJwnxJ/Jg4jVYslusLZ92EENCdFzlmaQliEjdfiMwF4yj6ay4Y10CeDHUEhHCEeg8FWL8DF4BS36vwy5ceBsY2868C+84BRb5VVg5mvxzU0Pv66JxI3wQmjGJmUIbA+lMYKsvMpUxaRT8IX9y70vUPlcmS1o3d3YBCBvOFWG3ny9OBcRtVeOyWN4ACPrBE6GXSurG/u/9IH9vMxa7gAGXl8NW4lblgfjT5Yy6Y10LeCFUEhHCEas8ESa8vlwMfLFCVb+rs+/NwV81qMgmYuV05X3JxZRZJb+T9BSp9OWVfd/9fWsaLuwoNUPUx7fmX9b3RXmXgJAmjs2vjB4EZPrKaJKQVfS3K/KCe+KI+8H5179pAAlBsIHDxhsqRwcys/hZmkWWujwwpgZ1vek9wZC6Y7zFfzwXzGsgboYyAEI5Q7p0A60YrAxcd5spguOqq1wKjAFONM0ST8svzwDMlrNfLpFIlvgNoOaGjKx1eAyF0vKQDJi0R27oYz/7pSrdp24Dmk9UvDINlKvVASJVhKvyWOT5INmldsSo8JuNxGYWOnFXyWS3J+HurDikHVQqPoHgUZVVkLlhFTjkh+2ouWNdC3gxFBIRwhGKvBEknpv0uP1RV7uvwxYSaxI97rn4qsdWTxVTKcKvCi77oLEph1AijRwIhjIZhVAyFzqO8hMyqMAX77ztViOqxd71b+M3o4Bhiur6DSt9uVeqNAZhvhQRs71tWSzH/XuFvFNlkrpI/25h/X39D5oJ17Hw5F6xrIW+GIgJCOEKxV4KkE2+B/XChqpwLXSDvCXltFjD8b3Wccugd66m231sA9FsOREUAJ99XIbeBEC1z6pfArVjg3epAX4vHKvSdyddfHau0rwAMezoQ2qs6mLWTxI/Sp666VdaK8Cjo/gEqysnfzqLO+unOo4y4+a+7OqazIjIXrKCm3vHVXLCugbwZqggI4QjVngmCXtVHAn8dAMrmUs6PgRTeFcL7TiiLXgFqF7RWO8N5tZDYAsDyttbKsPqWjh9DYxleakUW7wfqjFZv8p6WQNw146gnnW3/OeYdfnN2q7tOKAtfAepY7Esr+C3aD9SNw493tTQoYqUUQOaCNdz0t3wxF7zTQN4ORQSEcIRirwRBJ+6subtleKe/MjYm1CxmK8zcR6VR/7g28Mn//zMrZ64Cefur6JSPagGf1jFbgnfP91oEfLZERascfgfIamF3/clioPdilW783Ie+y4xqtGV6VlCGE9PKZeVStx7zgP4rlB/L+Z4qB0eghFEqmT5XF8S9Uw34ykLmUZkL3veWL+aC91pICaGGgBCOUOuRIOlDZ0E6DVKYS4I5JawI80bM3gHULGg+SqD0DwCTgdFJks6SZmXZf0DNUeotZrRkZkujcvaacnRjKGSKSJVkq9b95i5lY7ZLZr2kLH0VqHG/0drjn6PzLJ1oWf/mzubep2WCjpMXo1UaevqRmM1rwtwlzGFCodMwnYfNSq1RwNL/VBI0q5Yeksb+f6lwaSZVe99E6nvdylXzfmDJq2a1V46zVubCmsOq79wJs8UazdgbzLmg60/itewAsPsMkCW1Cjc2Kr6YC0brkucSDwJCOBJPX/lVU2a0ZJIjCs++C5i4F4SLwvIDKiSRGStprWBmzDL3mVNZz9uQLwNw8B1z7/LpH9cBHWar98z4oNB3pPtcZd1xlKJZgRktjS/ajj4QQxsBrz9ivg35+wOHLprLJcEQVF6yt2T/vfU1KgaMf0aFihqRA+eV/wWFmV+ZCMyMcCzk7qfyYvBCO15sZ0U+Wgj0WarepLXlci/jpfCyPl7ax2RvRy043VqdCx/8CXy5zL2eb1UFBjxhrB3BmgvUjmSPlrbvV6vEcxSz5M0Xc8EYUvJUYkJACEdi6i0/6tr5N2DwWvMfdzqZ0iud6aUdxQrh4AVfNOkzGvP4e+YvEtOvXM+cCjjb0xhYTLvN9NsUhoHyPhculswfQSmSFdjaRTmhGpEsn6vbUduWB0Y0NvJG/DOM0rmvL2CHuoSMR1uehAt8haHK74LCjK1MH86L67hwUJqWAKabSE+f7lNFvjpVBH54ypMGd/9+5BKQ9yv1b981BN6obO59Ps0sqwzPZlp6ilnCwYWyyx/q3cM9gDzpzelgdS68OA2YsElZxVxltqUTcK9axnQJxlygZhwz9ccqXy5deCT2xAPms+h6MxeMoSRPJTYEhHAkth7zk75PTQB+36USfTEHg1GJ6gXwqnMKP7S8cp5ihXAw+ReTgFH+7mA+PbV+HMG01nzfiDA51a4zQLII5eBYo4Cy0PBSNi58lGVtgeoFjJSmFn+m9LZyLMT3+D6Fyb6Y9MuT/H0UeCTuHR5/zH1JWTO48JcdrJKHsV/O9TTuD8LFnonAniwK/NbakwZ3/85jhcpxR3O/twYaFjX3vt0O1Bh194JnlnD8sQt4coKqd/VrQCWTx0JW50Lt0crK9FAO4N83zLXb+elgzAXq8OYfwKDVSpsGRZUf1MP3WQvN9mYueIeevB2qCAjhCNWeCbBeenSC2TwYfI+RFLw0a9AqddkYxQrh2HBM3R9CsRKhoZ97Ny6ujkI8ybFLQO643Xi9wsAChyRhHy8CPl2iSpjYHGhZ2lNp6vcmPwEzd1jzwXCM1OG9MuVyea6ThGLjcfVcwUxA4Szx7zT+CZi1Q/39v7eNpyvX84BYiVZyXCg3dQJKmzxW0xOGkWTQd4PWIrOEY/NxoMxg1W6jxM0RaatzgXfq7D2nImMYIeONBHouUFf6L7EN3EA8XVxdgudN8jdv5oI32Mm7oYuAEI7Q7ZuAasbcD4cvAq+WA0ZavChMv+iKilshHKyfelCs+A/k+Qo4esl4/gpGNDCrKoVOcY73lehmdf5mJkxXzyeSOz1wpIe5LnT0HWAukrwZzL3v+DTJFG/iPcWcGJlU8i2ji0fbGcCoDap+6mFGRq4HeLRFMeNHw+dJnnjrKx146evARGRM4mWWcDj6D/BYi8dbZsTKXOAxWKpPVHRMo+JAhdzKcpYhBVCnkFrAjeJPXQM9F1gnI6wYXUIZ8hQwdSvAa+dTJVMO2DzmM5Obx5u5YKa/5NnEg4AQjsTTV37VNMNn6iihe1Xga4OObc4KeUs46BWf/jNVKi9c48VrZkT3PXjnUeCrx8y8efezXKR51MIERrnSKesAd9tGpMd8FV1hdpFk2bwAjpdfUS59ZD4klUcydH6l7wOjfejwR38WHrMwYsSovD0XGLBSHcFc/MjoW+o5vsf3KVc/Vj4lRkW/C4XOxjwSYx9YIRxsd5reqlaOZY5pM2JlLnDMMPGbO6HVY1YrdXRnRIIxF/QjSepHPfWjUl1fXkrI/DwM+zYi3swFI+XLM4kPASEcia/P/KJxsl7K/+KjmsCnda1V4S3hYP3Ug/J5PeADE6GQfCfyIxVGSce83hZzcDBTaINxKi035efngGdLGsdDP4rhbjYmjjwZffuLZUDPP9XTtz81F5LLd6gzU4o7yof/zxbKnCb04zAqvRYCny1V71APM+KYoZPtN7qrZ8IzJuyy2dT18hXzAnqacrPkjWOAY4FiJWOqlblAYsR7XOj4S4sS7wOiA+akLcpiQ6HVhpEqRiQYc6Hk98DWOIsfnaVJ1OjA/elS4MhFpTWdiOlMbES8mQtGypdnEh8CQjgSX5/5XGPHD/QndYCPDXrSOyviLeFgeREfAXQcJGEw6tHP92jSjvhQacQFlsnDzApxYDgiIw0oVqI0mLSLIYWaTn3MaUCfEX6kuejGmiQrrIk3dU7YqCwcDFPmvTIUs7e19v6/78oncaZ1y20AEGuw/TyGoP8NjyA6PAIMaaT0tko4tHH0oRoTZseRN3OB9bENtIrROkShfw19QjimabnhUaNRCfRcyP81cOiCsuYdeDv++IQRK8wcSnH2dUqoLd7MBaMYyXOJCwEhHImrv/ymrZVdnbMy3hKOYOzqHNvg6LfB6IqZLY2bwPVyvNnVeWvhcGwLF7/H427t5L/zBluaxI1IoC0cenZV6sZjNN6nQ/nu/+GtdBrlAkhrF6NNjNycGwwLR0K4Fh2okmexHdFxRz2e+iEYc6HgABVOzSinC3HknXpyLKWPC5Wm9WZ/d0/aq9+9mQvGapCnEhsCQjgSW4/5SV8r59a+JhzBOLfW28CjDC74FGYInfuitZTc3pxbW/HhoAmf/1HyZYxfrPl3XmLHy+wok58FWpQyNngC7cOhZwb1pB3JCH17PEkwfDgY4XHistKsRA4gXfJ4LYt8C+w5q46obvVWFixPEoy5oPcD9aT/DTPuUhwJB6Og9nTzpL363Zu5YKwGeSqxISCEI7H1mJ/0teKZ76yKtxaOYHjmsw1f/QW8O1+1pmIeda25lTtE+L43nvlWolQYivxmnKOp8/FBm1+BsXFhykwVb8Q6wDYEOkqFmUFXHb53YO86rY6H6AfCRbxVaaDHo54nQDCiVBwjPJhdlVlWKRzTzNxKi0WxbMCOrp71198LZMQW66TDMkkvxTGc2PHKAIa/M1zWiHgzF4yUL88kPgSEcCS+PvOLxlZzDzgq4y3hCEbuAabA7jBL7eIYUTHoSRXZ4Sg8j69byBjs3uQesJKHY/spgM5++p0jzE7Ke1jov8HMsfQdyJRKhbfS+dKIBDMPh6N+Vn04gpGHg+HVTJjGfuD4ea86kCMd8MMa4O8jqlV96gE9DTpCB2Mu7DwDlPoeuBWjwsSpKyNSPl+mws0pTATHhHBGxJu5YKR8eSbxISCEI/H1mV80tppd0ZeEIxjZFfXcHQmBWiK7Sm9uRLzJrmgl0yh1crTQOOtIv4GfWwBMhmZUgplp1BeEI1iZRtkP781X5NVZmERtRXuV08KIBGMuUC+S1Dd+V0TVWczejePNXDCCkTyT+BAQwpH4+swvGlu9P8KXhCMY90f4mnB4c3+ElbtUdPyZUpspqXlb7IUb6i6P2oXUFe0kTGYk2Hep6LpatXAE6y4V6s1bcr9ZqSxMV28qvxrevEynV6MX6LGcYMwFHXfemkzyRALMIy06G5NsMIGaAfeTO0PNm7lgZrzKs4kHASEciaev/Kqp1RsyfalUMG/I9EU7fHFDppXbYn2hu15GqNwW602bgnVbrDc6O78rc8GXaEpZoYKAEI5Q6Ykg67H6MFAl7tKt6S+oXVmgRb8LxcrFZ9TV0bltzosqHXMgZe5uoMF4VePSV1W0i1nRsz3SD2OziUv0zNbj7vlftwPN4i7QW/UawAvhzEqtUWqnz+yma183+7b3z+vRFmavVNdrlrngfR/4Yi54r4WUEGoICOEItR4Jkj4Mw8vVT11LTsdD3psQSGFa9cx9gBi7StrF5F1m5cxVIG9/leHxo1rqpstACu+hYLQCHe0OvwNkTWO+dj0nRaQNOPeh8Rtezdfk+o135ilzPh1MeReKlWidHvOA/iuAFMmA8z2thRdbbQ/vx8n0ubrThMdJX1kYxzIXrKIf/54v5oL3WkgJoYaAEI5Q65Eg6sNsgswqaOWWUG/VdozQMHNZmnO9+u720QLA8rbeamXufR0/b3b2TPFdZ7Sq18qNueY0vvdpPVrJG/zm7AYaxll6Fr4C1CnorVbG318UlyKdb/DGVt5hYkVkLlhBLf4dX8wF7zSQt0MRASEcodgrQdLJ8R4Mszd9equyHrPPLJMM4bSys6YOTHTFhFdREcDJ91VIaCCEF73x8i7exfJudaBvfWu1cnfN/At0/GxfARj2tLVyrLzl6INi5Q4SvU7e+srcE3Sa7F4N+NqClcGK/nzn7XnAgBVAmuTAf92BbBasTCxH5oLVHlCXHvpiLljXQN4MVQSEcIRqzwRBrw1HgfJDVcWDnwI6GrykyVtVmbuAxzmM0niyGPBbK+slMjrg0RHq/QnPAK3KWC/LzJsTNwGtp6k3/moHVMtv5u27n9XzYORIq441jF6AZr1G9Savg+/0m/rz+g5AudzWS+QlcrxMrlBmYO9b1ssx+6Ye2cK8KUzgZlVkLlhFDvDlXLCuhbwZiggI4QjFXgmSTlz4mYOBSYzoLEinwUDI/D0AnSUpvzyvbtq0Kjy7L/Gduta8fmFg/stWSzL33mNx95ZwgeW9JfRfsCrTtgHNJ6u3zWQItVqf/h6dhukwWTIHsKmzd0Rn9Abg1Rmq5JXtgSr5vNXO8/sMCeaNrZRRTYBXynl+x90TMhesY+fLuWBdC3kzFBEQwhGKvRJEnb5cDnwQd/8GF53SOf2vTJNJABMd0fy9u9vd94FYqf39BUDf5erNfd2BgpmslGL8Hd7SWmiAep4ZJr+0eJyi18jjFN6/waOJxg+qNNP+ls0nFNmkfFEfeL+6dzWeuAIUGwhcvGH+tlqrNb80HRi/UeW72PmmykXijchcMI+er+eCeQ3kjVBGQAhHKPdOEHTjJVRMb0xfgpceBsY2868StERwceWOsktlYFBD7+tjum86PzJaxeiFX97Uqt9BweiUDR2N38qaUJ1d/1C3pfI4hSSMlhN/ip73gb4zW94ACmT0vja9zFRR6oZRbwlAQhqR4PC2U0ap+GrcylwwPwb8MRfMayFvhCoCQjhCtWeCqJd+J0pUJLCzK1DQj4sdze40v/Mek/UdgeLZfNNw5pJgTgmGd+55y3+LHRe6B75R4cTMXcIcJr6QHaeB8kMA3nzKowEeEfhL9p8Dig1Sd2i0KQuMbuqbmpipsspwVa6/nUd1Z1GO2VXtgfJe+J84tl7mgvGx4K+5YFwDeTLUERDCEeo9FAT9tp0CGF7KKINmJYBpz/tHiS0ngIcHK+uGLxc6arvuiHIeZWrmDo8AQxr5pw0dZwND1wG8s4TOogyJ9ZXoix2tHBs7qUvZ/CHPTAamb1ORHUzUZTYVekI6NZ0EzNiucnHwptT8PrCcONd38AJQfJCybpi5zdQIljIXjKCknvHnXDCuhTwZyggI4Qjl3gmibl1+B75foxSg4yUdMH0t3P2uPqRCV7nQPZDFtzUwaoQe85Q1r6ur530pa48AlX5UJTIahlExvpQ9ZxXxY5hh5Xxq5+5r4b0ZdPKjvFEJ+O5J39ZA3xA6cpK8MvMrM8D6WpjdlZktSZjooOprvyOZC557zN9zwbMG8kRiQEAIR2LopSDoyBBV+kHwWuo8GZRvQnaLOQ1cqf/FMqDnn+qXz+upy618Lf+dVws2nS8LZwY2dPJd5k5mRi03GNh7Tjm7kjDd7wfnVH/idOqq6uMjF4Hc6VUfMxTX16JnL2W5vg63dgzl9VeGXJkLCY+IQM0FX49LKS/wCAjhCDzmiabGqf8CL0xV6cbrFFIhmskivFef+RkYBhsTq8JvF7RRvhb+kGF/A7zMi/JCaeCn5r6ppeUvwKTNqqwfn1a3afpD6BtSf4wKV42MUH3AHBPeyu1Y1QeL9gFMoz7pWeDZkt6W6vr9c9fV8RadeWmFWNEOKHOf93VtOg5UG6GsJ7zRlEdamf2U6E3mgvv+CtRc8H7ESAnBRkAIR7B7IMTrf3MOMGiVUpLXU49o7J3CzPFRY2RcNsK0wNK2QLGs3pWZ0NskNW1+BSbEHa34wnlRd1Bkva3LAGOaKjLgL9l5Bqg5UiVG4/HTsrYqV4Y30m4mMHK9KqFrFWBgA29K8/wufWpIcHg8dF861QZvjtB43MRxxOyoxIREzJf+M65aJHPhXlQCPRc8jzR5IpQREMIRyr0TAroxPJY7GN51Qnm+FDC8sTWLBC0bz05Riw7DL2lteKqY/xvJHXajicDKg6quzpWAbxuYt9bQKsCwvx/ifFuq5lf3nfhrV+2IDPFnP7A/uMBObWHN0kGLSfuZwOQtqnTiz36wmkreTO8xR0b7WepiNZIO3nXysAVLx8bj6q4Wkg0mWBv+tMr14W+RuRCPcDDngr/7Wcr3HwJCOPyHbZIp+cw1dbTy517VJIau0gRv1CzOBYa+CH2WqogULm5DGwEtSwcOIi5OTBnOlNWUSnnVQms05Jeho1zw1xxW7zPtN1Owc+EMlPy0GegwW5EORq58WFP5vhjNasojCPYjQ24p9QqrfsyaOlAtUI7I9OngmGDkymd1ge5Vjdc/YCXw0UIVkcJ281ZjOrsGSmQuAKEwFwLV31KPbxEQwuFbPJNsabQS8J6NKXE7Yy543FV2reyeeHA3/fO/imzwI0Wh4+mIJkCjAFg2nDuDRxLMRslU6hQm6qLvRcdKQBE3ETK7zwJD1gD0BWEiMcpjDwDjmvnHwdLTAJq9E2g3A6DDJ4WEiaTjuZLurU4kGoNWqyycJHyUFqWUA2cgrDPObRq7Eej2h7qgjsJwX5InWlvYJ85C3GnhIWFlKDWFl/x92xB4OQCWDWd9ZC6ExlzwNFfk99BDQAhH6PVJyGrEnBbMfsmbNPXFgsryLL5iXiBfBoCJl3hkwvwFDHll4ipdqhdQxzFF/eiz4Qk8kiCmPR+4Sjkb6kKfCCaLYrQGhdE5TFxFnxNd6PDIzKVMX+4vJ1dP+vP3XWfUscjyA/FPM3EaQ2eZQ4NHLky2degisPYwQH8HXbhQ96ypsroyd0iw5O+jqg0kQ7qkT6EuvSuaTUUTMfph12mAF/Lxz7rQssZxVMFHyb2sYCBzITTmgpW+k3eCh4AQjuBhn2hr5oLH3SYTOjku2u4axAgCms0ZJeJqBxsMIOgH8PEiZe3g4pGQcGGmVaN3HWs+B/5oH3f9jJLhEQOjPzwJyRKTYtGSEEzC56gnj4ZGbgC+Xw0whNmTMOz4jcpA23KB8TnxpA9/l7lgBCV5RhBQCAjhkJFgGQFe1ERTNxftnaeVE1/0/60gNNMXyASUzQU0LwE8WiB0iIZzY7lYz9wBLN4P7D6jIkEozEdRJCtQuyDQuLhv7kexDHQCL5J4/HUA+GUb8M8x4MB5gCb/FJHKv6RYNkWWeFzh70vsrLbv8k1g6X51/EaL0qELwMVoIEMKIF9GFZHDI6OaBYF0fgqftqq7/p7MBW8RlPfDAQEhHOHQy9JGQUAQEAQEAUEgyAgI4QhyB0j1goAgIAgIAoJAOCAghCMcelnaKAgIAoKAICAIBBkBIRxB7gCpXhAQBAQBQUAQCAcEhHCEQy9LGwUBQUAQEAQEgSAjIIQjyB0g1QsCgoAgIAgIAuGAgBCOcOhlaaMgIAgIAoKAIBBkBIRwBLkDpHpBQBAQBAQBQSAcEBDCEQ69LG0UBAQBQUAQEASCjIAQjiB3gFQvCAgCgoAgIAiEAwJCOMKhl6WNgoAgIAgIAoJAkBEQwhHkDpDqBQFBQBAQBASBcEBACEc49LK0URAQBAQBQUAQCDICQjiC3AFSvSAgCAgCgoAgEA4ICOEIh16WNgoCgoAgIAgIAkFGQAhHkDtAqhcEBAFBQBAQBMIBASEc4dDL0kZBIBEisLBDB5zdsQPlunVD4aefToQtEJUFAUHAEQEhHDIeBIEQQ+DW1asYlDbtPVrZbDakypYN6fPnR67KlVGmQwdkLlYsxLT3nTqTq1XD0ZUrUX/YMJRq3953BUtJgoAgEBQEhHAEBXapVBBwj4Aj4UidLRsiU6S48/CN8+fB3ymRyZOj5jff4OFOnZIknEI4kmS3SqPCGAEhHGHc+dL00ETAkXC0WL4ceR59NF5Rux3n9+7Fqk8+wY5Jk0Crx3NLlyJP9eqh2RgvtBLC4QV48qogEIIICOEIwU4RlcIbgQQJRxw09pgY/FyrFo789RcKN26MxjNmJDnQhHAkuS6VBoU5AkI4wnwASPNDDwEjhINabxs7FnPbtEGqrFnR6fTpextit2tOlyfWr8f1M2eQPl8+zfcjbe7cLhu9dfRoXDp8WHPQzF6mzD3P7J4+HWe2btXKKFC//p3fN/7wA66fPYvSr72GNDlz4sLevZrvBf8tS7FiyFuzJpKlTu0WaB4THV6yBJcOHtR0o7WG5XgiHNdOndLqubh/P6LSpkW2UqWQs0IFRCRLFnqdKhoJAoIAhHDIIBAEQgwBo4Tj0OLFmFqnjqb9WzdvIiIq6k5LuAjPe/VVHF669K7W2SIiUPKVV1Br4EBEpUlz12/6Av/46NF4qE2be1D544UXsGPyZJTv3h01v/76zu+jixbFud278dySJdg2fjy2jhlz17vp8uTRLDA5ype/p0w+u6RbN0RfvHjnt2QpU6LKJ59g3+zZOLpq1T1Oo/bYWO1I6e/+/XH7xo27ysxctCgajB+PnI88EmK9KuoIAoKAEA4ZA4JAiCFglHBsHjYMf77+OlLnyIGOJ07cacXlI0cwqXJlhpuq0AAAIABJREFU8P+zly6NEi+/DC76p7dswZbhw3H15EnkrVULzefPv4ukeEs4Mtx/P26cO4cSL72kWUhIeraMGoWrx4+Dv726cycikie/o+eeX3/FrGbNtL/nq10bBRs21KwTPCbaPW0aSI5ILpyjVFZ9/DFWffopUmTMqDnM5ihbFtfOnMHWUaNwfN06pMyUCa3/+QcZChQIsZ4VdQSB8EZACEd497+0PgQRMEI4bl+/jp8qVsTpf/9FiRdfxBPjxt1pycynn8be2bO1RbzZnDl3RblcPnwYP1WqhCvHjqF6v354pEePO+95Szh4DPLs4sXIUrz4nTLP7diBMSVLgj4nL6xciVxVqmi/xURHY0TBgpoeDO+tM3iw5gCry/aJEzGndWvtr46EI+bGDQzOnh03L1/WrCb0X9GFv02uUQMn1q1D2TfeQO3vvgvB3hWVBIHwRUAIR/j2vbQ8RBFIiHDwCOHMli1Y+s47OLJ8ubbLb71+PTIWKqS15vzu3RhVtKj251d27gSPGJzl35EjMb9dO81P4rXDh+/4PHhLOB4bMQIl27a9p74J5cvj5IYNeHzUKDz0yiva7/t//x2/PvWUdqxDHWiVcJaJjzyCE3//fRfhuH76tEY4KG337EHGwoXveu2/efNwYP58ZHnwQZRq1y5Ee1jUEgTCEwEhHOHZ79LqACBwdMUK7YjBWWh5oJOjO3GX+Mv5+bS5cuGpn39G7mrV7vy0cfBgLOrcGfdVrIiWa9a4rCL6wgX8kDkz7HY7Xt6yBVlLltSe85ZwNP3jDxRs0OCeOn+pVw8HFy5Ejf79UeHtt7Xfl779NtYPGIDCjRqh8axZLvV05TRKnceVKqU5r97/xBOoPXAgMhUpYro3ifGhRYvueY/EJ7djGLLpkuUFQUAQcIeAEA4ZG4KAnxD4pX59HPzzz3tKb7d/v+bTYIRwpL3vPkSmTHnnUZIFRnXQR4L5N1JkyHBXMUveegsbvv32nmMW57pGFiqEC//3sWj6+++a74RfCUccDjX69UOFuCOcOS++iO0TJqBsly6oPWiQYcLBB09v3qz5flzYt097L2uJEshVtSoKPfkk8teti2SpUnns0UsHDmC4iz7IV6cOnl240OP78oAgIAiYR0AIh3nM5A1BwBACXFC5qDtLuS5dkMLFEYL+XEJHKvTZGF+mjOZM2WrdOi0M1FEWdeqEjUOGoFTbtqg/YoRbPceWLKlZCRpNm4YicY6bfrNwuCAcv7dogZ0//6xZPGj5cCUJhcXyaGnX1KnY/csvOLxsmebTQeExUdXevT2mQidx2+CC6JAI0idGRBAQBHyPgBAO32MqJQoCXiHgyWl0Xps22Dp2LPLUqIEWS5YADs6WK3r2xJovvsADTZvi6enTXepBsjI4a1bNUsJQVubJoASScCxo1w5bRo5MkBh5ysOhNy725k3NeXbbhAnYNHgwYm/fRr2hQ1H69de96gd5WRAQBHyLgBAO3+IppQkCXiPgiXAw0mR0sWK4de0aGs+ceddNqv/NnYvpDRqAd7C8duSIdt+Ks3Bxph8EpePJk0gd54Q5tXZtHFqyBHWHDNEiR5zFUx4Otz4cLiwc/3z3HRZ37aodDb24caNhCwePQhjWS18LV74bK3v1wurPPkOuSpXwwurVXveFFCAICAK+Q0AIh++wlJIEAZ8g4IlwsJK/3n8fa/v21UJQX9q06U5+i9vXrmF4wYK4dvIk3EWNzGnVCtt/+gn3P/44ms2de0fn359/HjunTNEsA7QQOArDcMeXLYtzO3e6TfxlhnCQOIwoVEg7GmqxbNk9d8FcO30aYx96CMwm6hgWS0dTOpwysVertWvvwZv5O2Y3b45sJUvipS1bfNIfUoggIAj4BgEhHL7BUUoRBHyGgBHCEX3+PEYWKaKlLK87eDDKdOx4p3497DV52rR4bPRoPNCkiRb6ynLX9e2L1X36gNk8aQFwTGHOpGALXnsNydOn16JfCjz2GJgZ48z27Vj61ls4sGCBVoe7TKNmCAfLmffKK1pWUqZcbzBxohZtw/pObd4MHhud2rRJq8+RcDBvx+jixXHz0iVUfO89zQlVD6llorGZTZpoCc6IB3EREQQEgdBBQAhH6PSFaCIIaAgYIRx8jtEojEpJkyMHXtm1Kz5ixW7HXx98oFlAKLxrJc1992mZP1k2ycYT48ejaPPmd1sxrl3DpGrVcCruiIPv0WLCoxtGfpAYnNu1y2eEg46bvIBOJxYkOkz+xTTnvFMlVZYsGnlwzjS6d9Ys8HiHejGdO3ONMJHY+T17tPYwaoURPNRfRBAQBEIHASEcodMXookgYIpwMFJjbIkSWiRMpZ49Ua1Pn7sQ5IVom4YOvXN5W7q8eZG7alVUeOcdZHrgAZdoc7Ff+8UX2Pfbb9pFbiQz91WqpGUk3TJiBHhRm68sHBq5unIF6/r3x94ZM3Dx4EGky50b+evV06wXy99/H9vGjbuHcPA9Ep/133yDYytX4tKhQ1o2VSb7YmhsmU6dEJXAZXEyzAQBQSA4CAjhCA7uUqsgIAgIAoKAIBBWCAjhCKvulsYKAoKAICAICALBQUAIR3Bwl1oFAUFAEBAEBIGwQkAIR1h1tzRWEBAEBAFBQBAIDgJCOIKDu9QqCAgCgoAgIAiEFQJCOMKqu6WxgoAgIAgIAoJAcBAQwhEc3KVWQUAQEAQEAUEgrBAQwhFW3S2NFQQEAUFAEBAEgoOAEI7g4C61CgKCgCAgCAgCYYWAEI6w6m5prCAgCAgCgoAgEBwEhHAEB3epVRAQBAQBQUAQCCsEhHCEVXdLYwUBQUAQEAQEgeAgIIQjOLhLrYKAICAICAKCQFghIIQjrLpbGisICAKCgCAgCAQHASEcwcFdahUEBAFBQBAQBMIKASEcYdXd0lhBQBAQBAQBQSA4CAjhCA7uUqsgIAgIAoKAIBBWCAjhCKvulsYKAoKAICAICALBQUAIR3Bwl1oFAUFAEBAEBIGwQkAIR1h1tzRWEBAEBAFBQBAIDgJCOIKDu9QqCAgCgoAgIAiEFQJCOMKqu6WxgoAgIAgIAoJAcBAQwhEc3O+q9eINYMUhYPdp4FJ0CCgkKggCYYZAsgggV3qgXC6gVM4wa7w0VxAIEAJCOAIEtKtqtp0CPlkM/LYTiL4dREWkakFAELiDwANZgM6VgNcfAZJHCjCCgCDgKwSEcPgKSZPlfLoE+GwJcDvW5IvyuCAgCAQEgRLZgRktARIQEUFAEPAeASEc3mNouoQOs4Ef15l+TV4QBASBACOQNQ2w5FXgoewBrliqEwSSIAJCOALcqbRsfLwowJVKdYKAIGAZAfp2rO8A3JfOchF3Xrx+C/h1OzB9G7DhGHDskv+snI5+Kc1KAE0fBFJFWW9DIHW3rqXnN20A0qUAimYDahcEWpcBaM0S8T8CQjj8j/GdGuizUeYH/31gAtgUqUoQCCsEWpQCJj/rXZMnbQbema9IRjCExKn/Y8ALpc3XHmzdzWts7g327zdP+IZUmqs5vJ4WwhHA/m4+BZi2NYAVSlWCgCDgMwS2drG+E+76B/Ddap+p4lVBXSoDgxoaLyKUdDeutfknScjmvyzHZ+aRM/6GEA7jWHn1JENfc/SVaBSvQJSXBYEgIvBudaBvffMKhOKCbZR0hKLu5nvA+Bv02VnVXhyFjSNm7kkhHObwsvz0H7uBJ8dbfl1eFAQEgSAjUCEPsO51c0rwKKLlL+beCdTTPzVP+HgllHX3J0b05/ink4RE+wNjIRz+QNVFmd+uBN6aG6DKpBpBQBDwOQLpUwAXPzJeLJ0sC38bPJ8NT5ryCGFvN9eOpKGuu6e2efs7j5xoBRLxLQJCOHyLp9vSei9WSb5EBAFBIHEiwOiG2D7Gdf9pM9AqRK0beismNgdaunAiTQy6G+8J808y98rububfkzcSRkAIR4BGiBCOAAEt1QgCfkTAboJwNJ0EzNjuR2V8UHSTB4FfX7i3oMSguw+an2ARmztLmntfYyyEw9eIuilPCEeAgJZqBAE/ImCGcOT/Gjh0wY/K+KDofBmBg2/fW1Bi0N0HzU+wiNFNgTZl/V1LeJUvhCNA/S2EI0BASzWCgB8RMEM4onqFfs4dJge79em9gCUG3f3YzVrRfeoCPWv6u5bwKl8IR4D6O9iEg+FenSuqxv62C9hwNEANT4LVFM0K0BS99D9gzWH/NfDDmgAXhNWHgfl7/FePlGwcATOEw/ah8XKD+aSrNiUW3Y3i9ko5IF8G4ORVYOhaY299Uhv4uLaxZ+UpYwgI4TCGk9dP+ZNwPJJHTYzKeVXK3ovRwJpDQO8lwN9HlOrFswHbu6o/vz4LGPa3100KegFfPQ68Uy1eDV6Ed+YasGQ/8MUyYOtJ/6i4rgNQITdw/DKQq59/6mCpN3oDKSIBdxFO5XMDf3e4t/6rN4Htp4FvVgJTtpjTL0tqoGo+9c76uNTb/HPuuKvb+ecVB4Fz182Vm1Se9jfheLo48M6jQKkcKnqE+XvWHlEXPfqL3PqCcNQqCLxXXc0LRvNcuQmsPwp8thRY9l987zOVeNrkwKmr/muPq7G2or0a1/wmlPze2GgUwmEMJzNPCeEwg5YXz/qLcDQtAUx6Vi1MzsIr7xv/BMzbEx6Ew7H9DOtrPU3dWeFrGdII6PAIMHc30MCPuVWsEg7H9jIyimPPqFQvACxrq55+7mdg6r/qz0yHzbwNlKrDgVWHjJaYtJ7zJ+HgpoH/MRrGWW7GAA3GAYv2+x5PbwkH/RxGNAEiXSgeE6sidabEjaNd3YAiWYAFe4HHxvq+Le5KFMIROKwTqkkIR4D6wR+EI1saFbqVMSVw4grQbQ6w+4zKkvfdk0D2NMCRS0Dhb4CCmZK2haPGSGXZoSWnX32AznDc6ZcdojDxtdAScPaar0u9uzwzhKPvcmDsP+r9ApmAoY2A+zMBXKiKDwL2nzOmqxCOhHHyF+Goll8RvQib2oW/Mw84dFFFSfzYCMiQEth1Big20Fg/mnnKW8Jx7F11BwmtXi9NA3hn1IPZATpd8hvEb1OerwCSDyEcZnom6T0rhCNAfeoPwtG1CjCwgWoALRmzdsQ3pnMl4Psn1d8bTgD+OxdPOPotB2iO50cuOkbtYpnC+Not9XzKZECvWkCrMupDwoV75SH1Edx+Kr6OzKmAz+oCtLJkTa3Mv3/uBd6drz6Wujz2gHLAeigHEBmhPPdHrAf6/wXE2tVTNLN+Ugd4vpT6SLGs33cBPeYp86srcTxSyf1VfIKlkjmAjZ3VjmvUBqDtDPU266bZt205IHcG4NpNdfzChGz/nVfPJI8EPqoFvFwWyJkWuHEb2Hgc+GCBOkqg8L6F+oWBvWeBB74FHBfpjxYCbcsrwpOrr/rY1rgf+KIe8PB9QESEIkA0kf/icK9O2VyKJJS5D7gcDfywBnivhvEjlbfnAQNWxKP00sPA2Gbq7y9PB8ZtBNhfn9ZR/UWMr95Sbeo+F9h5GvjhKaBTnJ+PXtKxy2oBZHsd5e+jwCND1b9wUez/uDrS49g5eAH4dhUwJO6svHs14Ov/H39xHPVaBNA3hX369ERg55uqjB7zgccfAKrkUwsT/Yx49Mdx4GshQb9goFwStwNx40LXwV+Eg1ZKjv0YO1BikCIXurxVFfighvpbtRGqrygNiwI0+5fIoYjKvrPAgJXA6A3mEPOGcHBO3eyt6p+0BWg5Nb7uNyoDr1VQf/98GTApzkLmqB2/TXN2qbHzeT31XUodpeYNxyznCecg/aaMjpUcaYHBTwH87lCv33YChbMA5XLJkYq5keH7p4Vw+B5TlyX6g3D81hp4sijA44MMfYBbMfFVkyjoiwSdDrn46j4c/KDzQ+Eo9Hno+af6l1mtgEbF7m3G+etAxR+BPWfVwvJXO/WBcBYuOBWGAqevqgVk6atAVKRaZPjxoPMWpd9fwHvzlW7zXgbqFrq3rH+OAZWHqZ26s7gjHHxuYye1eB++COTrr950F+ZGcvTwYODcNfWh6lgRsNuBvecAfrx4Jk29qwwHNv5fn4QIBxcM3bSc7UugTE7gjxfvTZNMotXiZ0U62Fe8GIyEwJUY8eFwJhy8inx6XH6F9jOBkRuA1a8BFfMokse+IEmkU+qpK0CJ7wCS1FfLA3nSKy340adlhP3NjzcJGIWY8nyeuRpIIle2Vxg5Cwnq1ysAnXCQWxJXLgI7TgNNfopfRBxx08uhDwrJkK+FJD1DKqDNdPclj2kGHPw/2XBO1ucvwrG/u7JIkdCzLzzJsyXVUaqrYwyS9P4O5NNTWd4QDpa9402gWFa1YeFmY8w/ilw6ysO5gGktgDwZ1Fzg7yevAK/OUP4e/Jbwm8Iy+B/HpjZnN6hnHAlHQmPFZgP+agtUze+61eLD4Wk0+Pd3IRz+xfdO6f4gHHQY5IJ/9JIyWSYkjk6j9Ono/JtyMP2tlfoI6B+6J4upf6MMWqWcL7mDndFSWSGYyIgLDXfC3BFT3lsAjFyvFqXxzRSZ4U7r7bmA7u9AB8tC3yhy9Htr9SwXvdz9gOdKAlOeU2V9sggYzrIKA6OaqsXp+amunR8TIhzUt3FxRcKSf6yIDxdGyo/r1M6p9H1qUU6VTBEfEqALHyrzta4/F1+agfmR5ALID2pChIM7clpVzlwFBq4G/ukIFMsG7DsHNJ8MXL4JjG2qPog7zwDFBwK96yiLEoWWJjp60ro04An1b2YIB/EqkhUY0xSolFe9X+lH4NptYGYcAeHxCy1M3CGzLyhtflVHMmaPVBa8DNQrrI6XSCAOXAC+aQA8UwIgQaVTbadKysJBIYmbuEk53NKZUN+18s/tZipHydmtgPwZ4/FJeGRb+5WEQmu3C9KR0G/+Ihz6uKOPRt3RSjc6kHJuOsrsHWqh/q87wNTkJG7PTFbzalQTgM6bXLDvH6CIpBHxlnBwLPObkSmOMF+KVn5jo9YrXw1HcXWk0rMGwCgSWltrjlJ66xlQSfTTfQoUymxsrHAsckxSaCGhZZLHO5znJMVCOIyMCP89I4TDf9jeVbI/CMemzkDpnHfv4t01x12UytQWQPOH1EcsZ19geGOgXXn1AePf+fGgcAHjMQN3Ixk+Axa2UR+3IxeBvHEWBD63vB3waP744waa8HlEcSsW+Hyp+hBxd0wriy66DjRzPzsl/t/HNVO7f0bU0LzuLAkRDr1M7qqZU4B60CzN3dGzcQs/y+NCSEK1aB9Qdwxw6B0gbwa1q2efrTyoFlFHSYhw0JrAxZzCS6BouaB8v0aZdil1CgHvPgpQNxKuX55XHvS0JpCU6WLGh8Ndv//8r7Kk6MJdNI946IPCowUeb1B0C4kZwpEmOXCupyJjdM7VI584JnnEQnl0BFAxbzzheHCQWiQpjrvWDrMVEaT83AJ41mFMumvb/9g7Dziniq6Nn6X3JtKb0kR6U3rvvSlNFEGKCqhYsBcs4CtYkY50VHoRVHqv0qV3lKqCIlVg9/ueSSZ7czfJJrtJ9iZ5zu/1ZXdz752Z/8zNPPecM3MT+3dXwsKT2EB5gRIcV98RSZ/Stvy5yWRby1b0EMGqDqM1mmR747RO7EW4EAJXjyvclzAkamJ7cm8ssYIDZcATiD0rHi9nE+zaIDiQvK3Fj7scDngmMPZwz+DBpmYhm/cWhocp/E2LU09jBXVA+BZWaJgtvAdj0qg3IyHwx1BwBJ6xKiEQggNuSORh4Gka7ntP5k5w6NgxlpPe+5HIsidtoQ3z5Ic4sn7ixlPryp42N+rakyJI2NQ2urUtbos8hEzv23IFFnazufK14WkYTx8frLY9BW/pK4Klve5s4UFbvN9sngTH8h4i9e+PrYeexNyVseucLazSqoQIhA4mYxhEwd4LIsh7wdszYZ4EB94Mqo9rWkxkyeOe+wVJrd8+apt8Vx4XqW9/usVZiREcCHvA6wSvDSYoGETXa7VtYRSz6fCHL4IDT4777ILKXSuRW4T4ufZwGHNt3AkO85j0TDBxnxoFRnxiQ40HH7Y292Uviwuv2e4VrP7BKiAY8nAgEJHf09Ie4oTggFjEmIFhvGDcwHJlFDk3yPYzQlHwyHlj/hAcuhwIA9xD+A7AWIIZx7UrwQGxsqCrTZi6MoREkdfhSnCYxwryoPo+ZHswgmdEGwWHNyMh8MdQcASesSohEIJDT+6Ii8PLgNCKNngZPm9u++2dFTaXvqt9OMw3rM7fMIdp8CSMBFFMwJkGi6zrbctPwD4fD42OLVe7QrWAwSd4emlWzObCh5jBKhqYfppDqAMhD4iPLzfF7RAkWSIhzWzuBAfc8r+/YsuJ2PKbSJUxsS5aeFqGrLHlEhgN+Qr6CRtf6B1K2epcu1DsE1vH70Rm/uq94DC6dxGK2nM+bhvGbrPlryDRVddVH+WL4ECbvtlhaxc4mvfJgNsbAhUrF5HMidwExP/PvWorLSGCw/iCK3iIdFKtsZXwsDQrbl3BgbpCaNS5z7aRm6e8DhwbKMGxsbdIVfs9kPvjWJGIMntVFhnb2kYVggOepXn28FjzKSJLDts+g7A7Yn/hWL8fRL7eHHe8ufpLYgQHvmc6lrFdFSFYeAa1fd9RBLkmuNUKfmLzxLoSHGPaiPSGV/WOLey4/Jgtj+pTe0jRF8GBhyI8HOE+T/du7E6vFBzejYVAH0XBEWjC9usHQnAYn6C/2CTy/OLYxuiJHzd7ma9sIQxvBAdc/UMb266DxE+EP2A6X0SvzNBfEoix3j/cFpPHRH/4eVvcGV/edSeI4DhM/D8ctHk1YGNai/SubEvETPuuzXOCLwmEO6qOFsEKCBiW/epwh6tuciU4kMPwWbPYV0sjLwBP+sZVO1o44Jr48obbGuEOPEnCAwBDTgdEGuqOL0kksU3ZKfLEHO8FB4QLlgwi5IDrtzJ4aeAuXnXCljynv5gRe8cXM8RajgwiZ16xeSN8yeFwN5yNOTelvhLZd8F5gtKCA67stfZ9OLDiQAs9rKCAOIXVGi+y7qQtv+b8q7Z+wkoeJPdqbwrCbcgLQqhOJ43iXKt5ODQvhAv1smJPXwmBEhwvVLPlvsAgHl+3J3Dj9+er2cY0DIIDq1ROvGQTjBDoyPuBGcc4ciGMG2752iZvvTPIM5nf1XZ1bDSIHCxtOjyL37GcFytvDj1vyzEyej10aNi48gn7kWAFDswXwYEVYuPa2M5rMVVk8SHbA8/e/vYQJzf+8jQUAv4ZBUfAEdtvxgC9nh4xW+QEwPAEjZglnjyRqAhDbB1JZd6GVJAzAWGCkAJExNz9IqVy2OL+sAGLRb7aZFsBglAIJlNMzLixEd7BpA1rOdW2rPXbjiKdStueuvGFhHAKdgeFkMB52CME9cWqEkz+SLpEmXhSx6SMxFZ8eW6175hq7C6j4MBqD4grLD3VHhQ8dSMejh1IIRzQLrhvIXTgcUBZEG0QSB1m2J7Qj71oSy7DhIrk1ZzpRT5qZF8uu9wWBvI2pIK6amGGn7FTJHaNRI4DeM7bJ9L+W5sHYLE9eROTyZqTthVGcKfD/CE4jG8FxdJlfOEjUU+zwrJULFPGuDlg35EWdYGLH6sEmhQT+dEeHoIIXXdKZOASW14MljPCIGKQ9IgnbdQfK4wQHsDybauGVHy9/QMlOBCKwCoirPqBIYyHXJd709nuK6zygmmxp3OU8CAxZ79NuCL5GqEH9A8eFry1xHg4UqcQ2f6MbTLH/YdXJmCX2zwZbUIeolQ/pKh7oK8tvIocMdznyHd6sbotZASvBMY6romQDFatwPAiOSR2exNSgVA/NtCW84HvGtznYKoTqJk06u2oCMxxFByB4RrnqoHwcKAQPEXjydO8TwI+w74ceCLHxOqt4MB5mFwQI9Z5DPgbvkzgKeizIDYc0bOiyFctbV8G2jC5IzlULyfEBP/TEzaBYjQIkPYzbE/5MHzhIHdCZ7rrYyEakEjqaitt89bm+hws+8ST+TMLbTkc2rCiB09j2KbbaHg6R64B9gfBxDy1g038GA25KvBQgKUvggNffPA24UnQaFitgkRYne+BpzI8nWlDe9EOeFb8ITjwNIxcGoSJtIFNqhS2vT6whwcSR2Hre8UuK9ReKExke/rbVgvAsG8JPFu47tetbInGmFy0YRkzntJx3VDwcDj3jvvfAiU4UCJWnWA3V4R3zIbxgBUXOjEX4wLhT4QijYaQBkS2txu94dzECA6cj4eUKR1cL2vHOEH+FQQUDJ5NeDi1YY+Y7WdFVvWMXQqLz+Dl00tjIZ4wVr0RHDgXS7uxWZrOVcJ3EuoBcU3B4e1ID8xxFByB4RrnqoESHLogxOgfymv3EtwS2XQ6NhyCY9y9vK19SVv+ADaBwhOuNiSwQQQgEQ1PI9j4CzkGZsPyRXgJ8OWAFS14cja/wwRPZ8jfQJIplsxiZQu8H+adOiGe4NWAxwFfEkjk9PTSMuRI6Pd+oF76XSpwJeuVEOb6QgBg6S+8B5gfcRzqYt7DBG0HA4QI8GX589FYodWtnG3i/euGzdsDBvo11vAo6S9XY9l4SkViLIQMMvYRYsGmWkYDR3hokPCG68DzkTej+5e34SkSX+Aw1A997skgDiB8kOyJvpp/wMYb7YRnDPsnwMAIT8u4PnJb9KobjCGsHoG3CMtbje9pQb0RjsEKBYhJ9JuO5yM3AcucYVhurEUg+rt/Fdvf0Qc6fOduTAbpVvVYTCAFhy4YIqJyPpunDeMPkyV46hVj+jgIPIwZPMGrjb8uiWDZLESiL5ZYwaHLgncTngSMDyxxhYcMq1R0mE0fB48svBwQpRjnaB8eTNDvOBftgCcQK15g8w7YvjN8GSt4wEG+GLggJwQsIeT48jZfRob/j6Xg8D9Tl1cMtOAIUjNYDAlENIFgCI5gA/aX4Ah2vQNdHl/e5n/CFBz+Z0rBESSmLIYEgk3AF8GR7E1bKNLKBi9ftIulvqFQ90BzpeDwP2EKDv8zpeAIElMWQwKFJ6EcAAAgAElEQVTBJuCL4MAGeeYwSLDrG195CDX881bco0Kh7vG1LbGfY1nuC9UTexWebyRAwRGk8cCQSpBAsxgSCCABXwQH9qfBPjVWNuSKbO0bt4ahUPdAc/3hcZHmhiTrQJcXCden4AhSL1NwBAk0iyGBABLwRXDgHUPYodbKNqiWyNBGcWsYCnUPJFcszb3wqvM27YEsL1KuTcERpJ7GUtE3lwepMBZDAiTgdwJYZnnbsF12fAXsuyhSyos3v8Z3nUB+jnf9YA8Ns4VC3QPJBTsNz+oUyBIi89oUHEHqdyw57DE3SIWxGBIgAb8TKPD/y59PveTbZd296di3qwTm6E5lYt/J4qoEK9c9MERsV4WwxO6nroRYIMuNhGtTcASpl7ELaNkRQSqMxZAACfidgHG3Vm8vjt16K40SOWt4z5G35wbyOGwy9svTtk273JlV6x5ILrj2e/VF3q4b6FIi8/oUHEHs92KfOb/cKIhFsygSIIFEEtDvJ/L1Mr9etL1XCG91toJhAzfs7IlXFsRnVqt7fPVN7Od40yzeOEsLDAEKjsBwdXlV44uWglgsiyIBEkgkAXgEjr5ge0FhQgy7rradLoLciKQ0hAnmdY19h443dbFK3b2pa0KPQRjlrbr0bCSUn7fnUXB4S8oPx2Er3wpfJ/2Xjh+awkuQQEQRwDtOupRNXJNx/4/eKjJic/A9nXiPCN4miyd4vHDRV0vKuvtaV1+Ox2oUvMYAm3wxZ8MXcgk7loIjYdwSfBaeFqqNtY57NcEN4YkkECEEBlQV+aK5fxuLnC68tAy5HXgHUCAMT+3wzFTMY3s7s78sGHX3V13dXQcbnhW7V6RGAS59DTRr4/UpOIJJ214W4qKNJ1kvkSwJULBIErA0gUCIDUs3mJUjgQASoOAIIFxPl0YG+MAfnd+4mURVYbEkQAImAvAMfNI48WEUgiUBEoglQMGRxKMBSWRTd9le637oD9uru63+wqckRsbiScDvBIzhB7wmvd2DCU8Q9XvleEESCBMCFBxh0pFsBgmQAAmQAAlYmQAFh5V7h3UjARIgARIggTAhQMERJh3JZpAACZAACZCAlQlQcFi5d1g3EiABEiABEggTAhQcYdKRbAYJkAAJkAAJWJkABYeVe4d1IwESIAESIIEwIUDBESYdyWaQAAmQAAmQgJUJUHBYuXdYNxIgARIgARIIEwIUHGHSkWwGCZAACZAACViZAAWHlXuHdSMBEiABEiCBMCFAwREmHclmkAAJkAAJkICVCVBwWLl3WDcSIAESIAESCBMCFBxh0pFsBgmQAAmQAAlYmQAFh5V7h3UjARIgARIggTAhQMERJh3JZpAACZAACZCAlQlQcFi5d1g3EiABEiABEggTAhQcYdKRbAYJkAAJkAAJWJkABYeVe4d1IwESIAESIIEwIUDBESYdyWaQAAmQAAmQgJUJUHBYuXdYNxIgARIgARIIEwIUHGHSkWwGCZAACZAACViZAAWHlXuHdSMBEiABEiCBMCFAwREmHclmkAAJkAAJkICVCVhacMTEWBkd60YCJEACJEAC1iQQFWW9ellOcLgUGRYEZ72uZI1IgARIgAQinoCLB3WriA9LCA4nkeFGXNDbEfG3EQGQAAmQAAl4IOBWWBhESFKKjyQTHHEEhEFouBMXHkUHvSC8EUmABEiABMKZgIc0A3dCwunvpvODLT6SRHA4hIMbkeFOjNDLEc53EttGAiRAAiSQUAIO8eBBVLgSH8EUHUEVHObQifF39TMESIz6n5O5FRpRIhQhCR2ePI8ESIAESCAUCSiR4MbbYRYQ6rnefrzxM/M1giE8giY4zF4N/bvjX0Ovu/wbPueqlVC8N1hnEiABEiCBQBOIsukKbfpnJ5Fh/1D/zewVCbToCLjgcOfVMIsK/K71RJzPTGKDuiPQI5fXJwESIAESCAUCTumLBtFhFhz43SE0XAmPICSWBlRwePJqGMUFfla/20XHnWiRjadFVp0Q2XFG5OglkQtXRa7/RydHKNwArCMJkAAJkEDwCEBMpEslkjODSJFsIhXyitS9T6RaAZEUyeyeD7sYMQuPYHo7AiY4XIkNnaehvRkOr4ZdaJy5IjJyi8jUXSIFMsdIg8Ix8nDeGCmWPUZyZYiR9KmcXUbB606WRAIkQAIkQALWJIAH9mv/iZy/GiWH/4ySLWeiZPmxKDn9T5R0KyfyzMMieTOZhIcWIIb8jkCHWAIiOOIVG3aBoQXH5RsiH68VmbFHpGuZaHmqYrQUycbAiTWHNmtFAiRAAiQQCgSOXoqS8duTyfQ9yaRLGZFBtUSyprUJD4gLx79BEh2BExz2AJISFfYVKPrnaIPgWHtSpOc8kebFouXN2tGSIz2FRigMZNaRBEiABEggNAhcvBYlH6xJJosPJ5MJbUVqFYoVHMkgPOz/Ia3B8bM9zcGfiaR+FxxG74ZZbBiFBn7+fKPIiM0iE9vekTqFKDRCY+iyliRAAiRAAqFIYPXJKHlyXgrpV0Xk+WoiDrEhsT87iQ77tOwv0eFXwRGv2LB7NiA23l8lMndfjCzudlfyZ6LYCMXByzqTAAmQAAmEFoHfrkRJ86nJpV3JKHmrrl1o2EMsWoAESnT4X3AYNuNyJIeKiPJuxNj+hWdj8o4YWd79LkMooTVWWVsSIAESIIEQJ4AQS4NJyeWJClFOng4lOOz7hDmtXrGHWhLbbL8JDlfeDbXc1eDVgNhAzkaPuSJre96hZyOxvcfzSYAESIAESCABBODpqDUhhXzTzpbTAbHhEBwuEkpRRGJDK34RHGaxoXJNDEJDezYu3RB5eLTIhDbM2UjA+OApJEACJEACJOA3Asjp6Dk/hWzpK5ItbWweh1F4OISGH/I5AiI4jPtswKuh/3ttqcitO9HyZbO7fgPGC5EACZAACZAACSSMwIAlySV1imQypFGsl8OYTGpcwZJYL4f/BIcpdyPa7uXQYgObelUfK7K97x3mbSRsXPAsEiABEiABEvArAeRzVBydQtb3EsmX2RBaQYjFuB26ixfA+VqRRAsOT7kbEB3R0TYPx1vLEWaJlqEN6d3wtZN4PAmQAAmQAAkEisCry5JLVFQyeb9BYL0c/hEcpk2+EOoxhlJu3xUp8pnI6ifvcAfRQI0YXpcESIAESIAEEkAAO5LWmZhCjr4gkjK5SXToXUn12+ASsWLFb4JDb/KlV6YYBQdWpry1PEY2PHUnASh4CgmQAAmQAAmQQCAJVB+fQt5vEOW0YsVdLkdCV6v4V3AY8jYgQO7aE0bfXy0SFRMt79VlOCWQA4bXJgESIAESIIGEEHhnVXKJiUomb9WxeTiS27c7N4sOvSlYQspIlODQ70hBwUYPh9G7cTdapN0MkWcq35VmxZDVQSMBEiABEiABErASgSWHk8nIbcllbheR5MkCE1bxi+DQiaMqdyNaIIBs3o1o27/lRogs6sr8DSsNLtaFBEiABEiABDQB5HG0nJ5CdvWzeTeSJbN7OfCelWT2V9vrVSsJzOPwm+BwtfeGFh15/idyauBtyZCKnUsCJEACJEACJGA1Alf/Eyn4aUo5+0qs2HDsPurmVfa+tiFggkPnbyCkkvUDketv31Z7tNNIgARIgARIgASsRQCRiXSDU8rlN2NDKsrToV9fb1ytkuQeDhcJoxAbEB4QHDffvm0tuqxNSBIY0L+/HDp0UAoUKCDjxk8IyTaEQqWvXr0q7du1VVVt2rSZPP/CC07Vfv/9wbJ+3Tr1t59+XipRCU1bDwUYrCMJRAiBNFpwIGnUnMdh8HIkNHE0wR4Odxt+mRNGKTjCb6TeunVLVq5cKatWrZQLFy7IrZs3JWPGjHJ/4cLSuHFjqVChYsAaXad2Ldm8ebOUKlVKftm+I2DlJNWF9+/bJ3PnzXVZfPLkySV79uySP19+KVmqlOTPnz9g1fznn38kZ4571fV7PvWUfP31SKeyHuvaVWbPnqX+duPmrYgWHEl5PwRsAPDCEUnAo+AweTgAyNfnjMALDoRUPqSHI1xG78yZM2XQKy/LuXPn3Dapeo0aMnbMWClcpIjfmx3ugmPWrJnS7bHHvOJWrVp1eW/wYKlZs6ZXx/tyEAWHd7SS+n7wrpY8igS8I6AExxs274bHlSoJfJFbwASHcZUKQyredbbVjxo27BN58403VDXxtF2vXn0pVqyYpE6TWjBBbd26Vfbu2aM+z5YtmyxdtkxKlSrt12ZZWXBcvnxZcufKqdrbu08f+fLLr3xuu1Fw3H9/Yclh9zLgQvAqXrt2VQ4fPiz//fefox/GT5ggnTt38bksTydYWXB06dxZ5s6dIylTppR/r17za7t9uZgV7gdf6stjSSA+AtrDofbhsK9SifPaevs7VSzl4dD5G/g3Gz0c8fWz5T/ftm2b1K5VU6Kjo6XQfffJvHnzpUSJEk71jomJkTlz5kivp3rKjRs3pHDhwirskTZtWr+1L5IEx9hx4+Txx5+Iww75Fd9MmCCvv/6a3LlzR7JmzSoHDx6SzFmy+I0zBYdnlFa5H/zW4bwQCYgIBMcl7eEw5XFAZyT2zbGJ83CY3qFifEMsBUd4jd+nevaUadOmqkatWLlKqlev7raBX3z+uQwa9Ir6/MuvvpLevfv4DQYFRyzKl156UUZ8ZfOifD9zlrRu3dpvnCk4PKO0yv3gtw7nhUjAg+CA0NBvjnXkbSRgpYr/BIf9hW2OLc2xQsW+SoUejtAfyzVr1pBtW7eq5NALF/+QZNgJxo39/fffkitnDvVpixYtZfacOW6PvX37tpw+fVquXbsmWbJklnz58nu8ti+CAx6XM2fOCEId8LIgyTJ16tRedwaSAX///Xe5fu2aZMiYUZ2fIkUKt+f7O6TizsOhK7By5Qpp1rSp+vWdd9+V11573WPbwBis7969KznuvVdy5LSFf1yZPwXHpUuXVHIx+uOee+6RnB7K9aZzEhJSQdvRl+jTLFmySL58+TyOs/jqEaj7Ib5yE/o52J87d1YuX/5bUqRILrly5ZbMmTP7fDnwwz0Fnvfem11dhxY+BBweDu3dcLH5l3UEh3mXUQqOsBmJeqLHhH3xjz/jnbjfeedtFVbBJN2//4A4HDAJfTx0qPKa/PXXX47Pc+XKJU/26CEvv/yKpEuXLs553ggOiJixY8bI6NGj5MiRI45r4Hpt27aT9wa/p4SNOzt29KgMfn+w/LBokfpi1YaJqmPHTvLGG284TdYZM6QXlOnOBjz3nPzvf594NRaMORzxCY6ff/5ZWrdqqa47ePD78sqgQS7LOHjggAwePFgWL/5BTbjasNLl+eeel8e6dYuzysQfggPhtc8/+0y2bdvqVK/ixYtLr959pG/fvh4FnPGkAQP6qz51Zzly5JDTv/0e5+Ptv/wiH330kSxd+rNTH+XOnVu6PvaYvPzyy5I5s++hqMTeDxjzBfLnU+LvmWeflU8//cxl08qXKysHDhyQPn37yhdffOnymKpVHpadO3cqryO8j0b7999/ZfjwYTJt2jT5/bffHB9hGXONGjVk4IsvqmXPruy+QgVVcjjG7yuvDJL3Bw+W7777VuVraStbrpy8/dbb0rxFC6/GNw+yNgEKDmv3T8TUrt+zz8j48eNVe4cMHSovvDAwwW3fu3ePtGndWj0pweAtgRhAboK2hx9+WJb8+JOkT5/eqZz4BAe8DI906CDr19v2iIBlypRJrly54vgdT/bLli2T4sUfiNOGVStXyqOPPiL4otaGJ0Hjl2yePHlk8ZIfHTksSSU4evR4UmZMn66quWHjRqlYsVKc9nz77Qx55umnlfiDpUqVSvG+efOm49hn+/WT4cM/dTo3sYIDITWE1rTBw4RJ7vr1646/NWveXL799rt4xStOSIjgGD16tLw48AU1qcNQPsaZUUQWKlRIfli8RIr4uKLKH/dD48aNZM3q1VK6TBnZtu2XOH138OBBKVe2jPo79p05eOhwHK/MHxcvSv78+dQx7777nrz62muO68Cb1bRJYzl27Jj6G7xzEFrwQBrH99vvvCOvv25LBjeaFhxIDj9x4ricOHEizjH6DxBMEE600CZAwRHa/Rc2tcfKiIcfquyYuJ5++hkZ9OqrAo+ELwbXepUqD8u5s2eVex0TXavWrdVEcPHiBfnyiy9k2LBh6pIvDBwoQ4YMdbq8J8GBiaVli+ZqjxCsosGX79NPPy3Zs9+rxMy8efPkheefUz9XrlxZVq9Zq47ThrpVKF9OeVywyuaTYcOkdes2kiFDBiVYpk+fJm+8/rqaNI0JsXoCg9gpUvh+dbkePXrIJ8OGq59TpkwhqVJ5F8rxxsOByWLYJ/+Tjz/+WF2/a9euMuGbiXG6AeKpZcsWKrEU+5Z88eVXAiGHNsPz8/JLLwq8JLA5c+dJ8+bNHddIjOBYtGiRPNKhvbpWnbp15auvvpIiRYqq3w8fPiQDXxgoK1YsV797EwrCcfDMoB2wJ7t3l4ULF6hVKucvXFR/QzpZOoM4XbZsqbS0P3Wjrz77/AupXbu2Ejfnz5+XCePHy9ChQ5TXo1ix4rJx0ybVz96aP+6H4cOGyRtv2MJgx0+cFAhZow0dMkTeffcdx59QR/MeN/Pnz5dOHR9VxyBBG/0MA6vq1avJ7l271L01ZOjHapygjUj83rpli/To2UOOHzumhNjmLVulbNmyTuVrwYE/IjEZgqZN27YqJPXHH3/ItKlTZciQj1TfQMhu2bpVSpR40FuEPM6CBOIIDvs7VRBA1+9TYUjFgh0XjlVasmSxdH/iCYe3AF/eTZs1kzZt2kjDho2UgIjPevbooSZufEGtXr1GKlSMu0nY4926ycyZ36vJ4eix43LvvbYNqGCeBMfEid/I0337quOGDR8u/fr1j1Od8ePHST/7kxhW2qD+2vr36yfjxo1VX8BLly13ub/Fd999J92feFyd8tWIEdKrV2/H+f7O4ShTpqxpc68Y+efKFdm5Y4d6Skc94Wr/+OP/xfESYNls2TKl1VPpfffdJxs3bVaThtHg9ahYobwcP35cKlasKBs2bnJ8nBjB8VjXLjJ79mxJkyaNHD9xQrJlcx4XEGwVK1RQT8158+WTo0dtk563Fl8OB9peqmRJOX36lBLEaLt5MkdZo0eNkueff04Vi3AUwlK+WGLvB6MHY+LESdK5i/PS5po1qgtWw8A7hL566aWX5IMPP3Kq4rPPPCMTJoyXggULyoGDhxwekDVr1kjjRg3t98Kn0q9fvzhNw7VRBgweS3gujaYFB8pfvmKlGiNmmzBhgjz7zNPqzx0eeUSmTbN53GihSYCCIzT7LWxrffLkSXn11UEyf948pzbCXVu3Xj3p3r27tGzZSgkKsyEeDA8APBGPP/64jB1nC9GYbdeuXVLl4YfUn7HDJXa61OZJcGDy3LdvnyBHYPuOnS7zA/A0dv99hZQXo2OnTjJ58hR1aXgN8AUL7wc8LjNn2nbRNBueDkuXKiXHjh2Vtm3byrfffe84xN+CI75BBEEy/NNPXQqjefPmSudOndQlJk6a5HafDuRYoD9he3/dJ0WL2jwRiREc8DIhZJUzZy45cfKky+RMCDckIcOGDBkiqXxI5o1PcMyZM1u62ifvzz//Qvo+bZsQzYZxWL1aVcF4y5Ilq6qrr0u4E3M/IJGzdKmScvToUenSpat8MzHWS3X61CkpVqyo8uLAC4T9b7AMfeeu3U7NQMgFwsW8Gyw8EKdOnVTHwoODsKLZUH7WLJlVeK19+w4yfcYMp0O04GjYsKEs+mGxW4YPVa6k7juw++33Mz55iuIb4/w8uAQoOILLm6V5SQBfcuPHjZMFC+bLb4ZkNPUFV7y4DB82XBo2auR0NeQTwB0O++GHxdKgoe0JzNVEgA20EMZ4ont3GTNmrOMQd4ID8epiRW07m/br31+G2cMZrq6PHI2FCxaoyRWTLGzt2rXSqGED9fPIkaOkR8+ebklgg7NLl/6STJkyS7Vq1RzH+VtwQLiVLefs5oarHHF7hEKw6gL2xhtvyltvv+1U3969esmUKZPV3xB2gBvcle3Zs0cwYcAmT5mikmJhiREc2B/k0+G2cBLyA1588SWv8jTcAjd9EJ/g0G2H1+TM2XMqPObOPvvsU3nt1VfVx6tWrZaqhv70tj44LiH3A85DiG/UqFEqt+LY8RMOcfbll1/IKy+/rF4VgHcGYfKHQNq1e4888IAt9wj3XdEihdXPixb9EOd+86b+efPkVuK7efMWMmeu85b6WnA0+v/XFSxcuMjt5RD2QfgHtn7DRqlUKW4ukTd14TFJT4CCI+n7gDXwQABfgrt375Y5s2fJ999/75gE8WX/v0+GSf/+sWGNVwcNks8/t2XjI5SRKWPcpy5d1JIfl8i/V66oDPp58+c7auBOcKxevUqaNG6sjqtYqZIUKex+W/Wt27bKiePHVS4DdqpEEiVCKQipwNat36ByPHw1fwsOT6tU4GLv8eSTAk8GbNbsOdKypW3FCqxB/Xqyfv16FdZAHoo7u379miDnAvbmW2/Jm2++pX5OjOCAGKtdq7YcOXJYXQshsSZNmqh8jho1air3f2IsPsGh2+7KI2Aud9OmTVK3Tm3151GjRqsVUokxX+4HlLNq1SqV2AnbsXOnPPhgSfWzTigd8fXX8tRTvaR5s2Yq78WYGDpjxnQ1BpCj8fuZsy5XdUGg/vjjj8ojuX//PpWoDYGhE2l1WxMjOJYsWSLt2trG2LfffadWgtFCkwAFR2j2W0TWGrHzyZMnyeuvvaZCFBAd69atl0r2yRu5E8ih8MVq1aql8im0uRMcxuQ5X65/6fJlSZcuvXzw/vvywQe2GP7uPXtVWMZXC6bgQN2wtBheHYSBatSsKcuXr3BUuVKlivLr3r0+NWHgwIHykT1JNzGCA4XCOzV8+HAZ//9CzrjsGZ+VL19eHn/iCene/UmfQxg4Pz7BoUNrZiauYBjzKFx5inwCaDo4vvsBh0M4Ynks7pehQz9Wb+W9ePGi8mggfHfipC0PZcyYMfLcgP5SufJDsm79elXSUz17qOWuEJoQnGZDYitCS1gVpg1Jo/B26X104CVDOYkRHJs3b5I6tW2ibeSo0SphmhaaBCg4QrPfIrrW2H+ha5fOikGXLl3km4mT1M/9+/eTcWNt4ZGBA1+UdOnj7rNhBlewQEHp9rgtSRPmTnAsWrhQHnmkgzoGYYGixWy5CPHZoEGDJGXKVCoEgFAAzJjtH9/5xs+DLThQdovmzWT58uXKW/PnX5ccEzhWFMHzBFe9MQfGU3uqVqkq9RvYwkqJFRy6HEyoG9avl6VLl8r27b+o9+3oPUuKFC0q8+fNF/zri8UnOJCXsX37drUiZ83a2OXRrsrAu38q20NKesL3pS7eHOvuftDndurYUebPnyfNmjWTufPmy8SJE+Xpvn2kZq1asswutpH/VPj++5Q4OHzkqEomLl6sqNrIzZznhOtCjFauVFF5NLBHybvvvadWIeXIkdMpQdcfIRVjOBJ5KMhHoYUmAQqO0Oy3sKo1NsDCpAZ77vnn5L77bEs/3RncuPgiw6RVunRp2fbLdnUoEt/wwiuYMRbtCyx3gmPDhg1Sv15ddakvvvxS+vSxrVbx1mbNmiXdHrN9US5eskTq17dNvL5YUgiOLl06y1z7Tq7nzl9wrERp2rSJYFksdvXEU7KnnWFdtdFfgsN8bXg7Ro0aKR9+8IHaebRcuXKyafMWv65SadumtQojYNUUkhg9td0oVLEnSNt28YcD/HU/aDaTJ0+WPr17qT1nEBqBWEeYAquPnnv+eQfCxo0ayZo1q5XnqHGTplKqpG0JKlZyYedUo2Fp+Zv2JbcrV612yjUyHucPwYFcIeTNwBYu+kEamXK3fLmHeGzSEqDgSFr+LF1E7fCIjZdgEydNls6dbd4LT1aoYAG13wH2QNi3/4A6FJMAJgMY9rhwtQNpfNd1JzgwkeXPl1c9AbZq1VpmznK9ysTd9bFSQH+BY3+R994b7LYqeFo/f/6cyk0w7tKYFIJDP81jVdAltW21bev1F18cKF+PGKF+3rrtFylTxraBlLeWUMGB1RH7fv1VFYPkxly5XW993bNnD5k+bZo6bv+Bg3L//Z5FrLHe8Xk4sCPmhx9+oE6BmEEIx51hGTWWU8PgOcAGW/GZv+4HXQ68FwihwLAfSpfOndTeFtjoCxuTaRv59QhB2Aurwdq3ay/9+j0bZzmzPhbXmDt3rlqdgp2B3Zk/BEePJ7vLDPsKF28ZxseYnycNAQqOpOHOUg0EsJdDyQdLqMkcbuoVK1ZKipQp3TKCKx8ufZgx6RNx6geKF1MxfXyxb9++QzK6WK6H85CBjydg8wTgaVlsi+bNZfnyZSq8gJ03y5VzPdHgyxyudJ1bgvJQVrWqVdQW0fDg7Ny1SyVcmg0hAriyEWfv2vUxmfCNbbKCGd8h06t3b/nqK9uE74t5s/GXvh5CFfXr11O/Yh+URT/84Chq8+bNKvwEw0vd8HI3d7Zjxw4lDoxbySdUcOzcuUOqVqmiisLKGeRFuDLjplc7du6SBx/0fsMo5CVg6SvE1dVrsTuX6nKwqVmZ0qVUn3bo8IhMs+/Gaq4H8hewrFTlwNSoofaa8Mb8dT8Yy8KbmLds2aI2SDt69IhLIYHwCMIqGN9VqlQRePXcieMOHdqrrfnB6Oy58y6XxWLb91q1aqoEUk85HOXKl5eNGze59BThoQJCHQzLlC0rW7Zs9clb5Q1vHhM8AhQcwWPNkjwQeO65ATJm9Gh1ROMmTeSzzz53+VR66OBBlUuBhDXY9BnfSvv2tl0nYcZcCVxnypSpcV4i9euve6Vjx45y5Z9/ZNbs2VKlSlXH+Z4EByZZhFXwBYonQ7h3ixUr5tQqiB286RM7UWI75t59Yt9ki82qsGkV7Mkne6g33WIfBG3YrwCJr/qtuStXrpJqhrfm/nfrlmTNmkWV37RpU5k3f4gFrkkAACAASURBVIHPY8obwQHh9+OSJfL0M0/LxQsXVBnzFyxUK0GMhu3jf/rpR/UnbF39+htvxNmbBE/BvXs9pTxR2OJbb7KWUMGBcBomcXiMsIX8Tz/95Fh5oeuGazds2ED27N6tJsKTp067XGHhDl7v3r1kymTbkl+Ei5CnYra+fXrLpEm23CGEJvA+EOPmYlhJ07ZNW9myZbP6+08//yy1a9fxur/8dT/oAt9/f7AKM2lzt914/Xr1ZMMGW9IoDJu1udqQ67333pUhH9k2CcOmX1gxZgwt4d0y2IQPHimYq6Wvxp1G+w8YIB99NMTpfoDI6Ny5kyxbulRd4+uRI6Vnz9g9c7yGyQMtQ4CCwzJdEdkVgVcAS/DwZAnDlxeeCh8sWVIypM8g129cl4MHDqoYs15y16NHT/UlZPyix2edO3WUhQsXqusgx6B1mzZqVcitm7dkx84dgrg6ysM+GYg/e7vTKK732aefymuv2fZVgIeiTZu2KpyQJm0a2b9/v1oe+OeffyrPCvYWqFo1VszgibjbY4/J7Nk2b0DJkiWlceMmapdKPA2jzseP295L4e7JEtn6yNqH4amxcJHCUqpkKbUqwxszCg489efJm9fpNIgarKyAh0UbXqw1+P24u2RiMsFOkticCoZtrzGxFCpYSE00a9etVe/ygGGXSGyCprd6T6jgwLUwBlq1bKn6EIINXq7yFcqrDaHwXg/sgXL27FlVLrauxxb2vhiELyZ8GAQl9nu5eeOGjPg6dqxhlUzNGjXk0KGD6jiI1lq1a0m2rNlUH2JVk2YIIfb227FbiHtTF3/dD7os42Z3+Bs2+MKyXrPh/TR4Tw0Mq1eQv+HqDcZoG1braEGBXKrKDz0kEoNVWLsF3g30Dc6F1658+QqyafNmp+K04MC9DpGL+mA5OwTe6VOnZdGihY6x9dBDD6l71dPblL3hymOSlgAFR9LyZ+kGAvjSQQb9x0OHqOx4d4ZkPezpgMRNVwl7+LLG22RHfPWV4/0Y5mu1aNlSbfhl3i49vpe34Tp4sn39tVdVpr4rw0Q+adJk5QI2G7wYL734otouGgLEbJg0kd+BF1W52o4bO2x2aN/O6a2sEF4jR43yaiwZBUd8J0BAIGThKdHx/Llz0qdPb8c7U8zXxKSDFUMIfxgni8QIDpSxYsUK6fVUT4ewMJeLBMm33npbJUX6sq05roPQXO3atWT/PtumbdquXb/h9G4cCMs+vXurt+S6MvQlPAnIJfK1Driev+4HXAtCHEucETbxtH+IcYM7rN4a52a3XlwToqJTp45xNubDZ3nz5pXRY8YKQlvYwwbjAKGXjBkzOlBpwdGgQQOpWrWafPzxUMFSX7MhvINlucYHg/jGLj+3JgEKDmv2S0TXCssa8RSPfR9OnTwh16/fkHTp0krOXLmkVq3aUq9ePa/2V0CexpzZs2Xvr3vVJl+p06QRLIOFx8PdxluTJk6U38/8LjnuzeEUDjF3CJ5w8SS9cdNG+evPP9VEBBc/tmlu1Kixk2vYVWceOnRIrf44dPiQ3Lh+XTJmzCQVK1WURx55VLJnz+6x//E68XFjx8iZs2clfbr0KocCbfLGMInOtW/m5er4zJkyS+48uaV06TLq6d7biRK5KXiqP3H8mNrKOkOGjPJgyQdVjoMxMVGXiWP0iqIK5SsI3uxqtLlz5yiPEQyix1U9cI0ff1wia1avkT//+lOJy6xZsqj358DzlJgJCu58vIANy2xhWCb60ZAhLgUu2o4N0k4cPyG3bt2UzFmyqDAEtvNOTB00D3/dD7gXDhw8oHKPWnh43fvIr7+WS5cvKQ+ap4RY1A/v3MF1ke+BHKP0GdKrFStYOg5xgSWt+/bZknyxQZzxnTPmnUaRuwJBjPF9/do19VLEps2aKg+W8SWI3oxzHmNNAhQc1uwX1ooESIAEwpqAt1ubhzWECGscBUeEdTibSwIkQAJWIEDBYYVeCG4dKDiCy5ulkQAJkAAJ/P/L/Cg4Im8YUHBEXp+zxSRAAiSQ5AQoOJK8C4JeAQqOoCNngSRAAiRAAhQckTcGKDgir8/ZYhIgARJIcgLY8+Pfq/+qTeE6d7ZtiEcLbwIUHOHdv2wdCZAACZAACViCAAWHJbqBlSABEiABEiCB8CZAwRHe/cvWkQAJkAAJkIAlCFBwWKIbWAkSIAESIAESCG8CFBzh3b9sHQmQAAmQAAlYggAFhyW6gZUgARIgARIggfAmQMER3v3L1pEACZAACZCAJQhQcFiiG1gJEiABEiABEghvAhQc4d2/bB0JkAAJkAAJWIIABYcluoGVIAESIAESIIHwJkDBEd79y9aRAAmQAAmQgCUIUHBYohtYCRIgARIgARIIbwIUHOHdv2wdCZAACZAACViCAAWHJbqBlSABEiABEiCB8CZAwRHe/cvWkQAJkAAJkIAlCFBwWKIbWAkSIAESIAESCG8CFBzh3b9sHQmQAAmQAAlYggAFhyW6gZUgARIgARIggfAmQMER3v3L1pEACZAACZCAJQhQcFiiG1gJEiABEiABEghvAhQc4d2/bB0JkAAJkAAJWIIABYcluoGVIAESIAESIIHwJkDBEd79y9aRAAmQAAmQgCUIUHBYohtYCRIgARIgARIIbwIUHOHdv2wdCZAACZAACViCAAWHJbqBlSABEiABEiCB8CZAwRHe/cvWBYlAdHS0/P3333LjxnVJnjyFpEuXTjJlyhSk0gNbzPXr1+Xff6/I3bt3JXXqNJIlSxZJnjx5YAvl1UnASwK28fmv3L59W3LkyCGpUqXy8kweFmwCFBzBJs7yFIFLly7JoUMH5dDBg/JwlapSokSJkCQDkbFl82Y5duyo/Pfff05tgOh44IESUvmhhyRt2rQh1T6Ii927d8nePXvl8uVLTnWH2MibN6+UK19B7r///pBql7vKor3Tp01V41Jbvnz5pcMjj4RM+3777TeZM3uW1/XNkyePPNqxk9fHW+nACxcuyN49e+TEiRNy7dpVR9U6d+kiOXPmslJVWRcDAQoODoegEbh69aocPnRIDh48IBcvXnSU27hJ05AUHEePHpGff/pJPVl5snTp00v7du3lnuzZg8Y6MQX98/ffsmDBArl06a94L1P8gQekceMmkixZsniPtfIBGzdulK1bNjtVMdQEx4ED+9V49NZCUXDcunVLVq5coR5UXBkFh7e9nzTHUXAkDfeIKRVfEEeOHJaDBw/Kmd9/l5iYmDhtD0XBcf78OZk1c6YKM3hjCK88/kR3SZEihTeHJ9kxEE/Tpk6Rf/75x+s6VKhQQWrVruP18VY78M8//5AZM2ZItKkvQ01wbN26VTZuWO813lATHNeuXVMeHKMXytxYCg6vuz9JDqTgSBLskVPouLFjBF8UnizUBAdE04zp0+SPP/5wNAshk+o1akie3Hnk5s2b8ssv2+T48eNOzW7QsJGUKlXK0p2/Y8d2WbtmjVMdHyhRQkqXLqPCQvB6bNyw0cn7Ae9G7z59JU2aNJZum6vKoS+/++5buXD+fJyPQ01wrFixXIUZtD34YEmVb+POMmTMIDgmFOzOnTsy8/vvnDyjqHe2e+6RokWLSfbs2SVN6tSSK3duSZkyZSg0KSLrSMERkd0evEaPGT1Kbty44VRgVFSUk6cj1ATHmTNnZNbM753ahFg4nhi1IYl06pQpTvkPyOdo0rRp8OAnoKR58+bKqZMnHWcWKVJUWrRs6XSlK1euyKSJ3wjaqK1ly1ZSuEiRBJSYtKds3/6LrFu71mUlQk1wzJ83V04a+u6xbo+riTgcbP36dfLLtm2OpsBTWK9+/ZARTOHQB/5oAwWHPyjyGm4JQHAgrJInT14pXLiw3F+4sMyePUv+vXLFcU6oCY5tW7fKBoPr+t57c0jXxx6LwwCeAngMtOXPX0Dad+hg6dFy+PAhQda/NvQbMv/NNmXyJCfXdv0GDZQXJJQMYSOEj3QODp6Mjfk4oSY4pk6ZLH/9FZt388yz/cJixQZyvyZ+M8ERvsQDS6vWbeS+++4LpeHGuooIBQeHQUAJHD16VPLly+fkbp8wYXxIC44D+/er7HhtuXLnkgoVKsbhuH7dOhVa0Qax1apV64DyDtbFx44Z7SRMQtHDMXfObDl9+rRClj5DBilerLiTQAw1wTHy6xGOlVIIb/V9+plgDYeAlrNly2bZtHGjo4wHHnhAmjRtpsbfhQvn5dat/1S4L3fu3GEhsAIKM4kvTsGRxB0QicWHuuDwts+Q52FcjVOtWnV56OGHvT3dssft3rVLVq1a6agfvux7PtXL8gmxRqD79v0qy5YudfwJgunPP/+UTZtiJ7ZQEhzwIo4a+bWjPUhSxgqiY8eOCVYdIc8mQ4YMUqBAQSlfoYLH3A6rDbzpyJcyrGpr1KixHD9+TLXNmISOMEu5cuWlWvXqIb9qymp94K/6UHD4iySv4zWBSBAcR44ckcU/LHIwwRf+E92flMyZM3vNyQoHYkMlTM4wJO4huRL7PWiDe7sF8jcKF7ZCdb2qA5KYp0yeLLdu3VTHFy1aVJq3aKn2UwlVwQGxhPCQN4Z9VBo2aizwFFjdMObguTHmC6VOnVqFad1ZsWLFpFnzFlZvWkTWj4IjIrs9aRsd7oIDSZXfzpjulCyLkEut2rWTFnwCSj979ozM/N45QVZfJkPGjNKgfgMpFGKxdAhBCEIYdk594oknBHulhLLgOHHiuCyYP9/rHoYAfuTRRyV37thEZ69PDuKBvggpY7UgICEkadYiQMFhrf6IiNqEs+DAkxf258DeDtqwUqBT5y4hFXLQdfckOHLmzCk1atSU/AUKhMy4RU7RD4sWOurbsFEjKVnStlQ5lAXH+fPnZeOGDXLu3FmV+Jo1WzapUqWK3HNPdpXXAUGy/ZdfnDwFobAPh6vdU5HcW7t2HSlarJjAw4ZE59WrVikPnDaMzc5duobMuIyUilJwREpPW6id4So48EWPZaVnz5xx0E6TJq106tw5pGLmxqGCvUaWLbPlOuALHfkAxs3O8IVfp249KVu2rIVGmOuqQAxidY3eF8a8aiiUBYduMUIPyBvKli1bnATKPbt3q106jdaj51OWfucPlmjjnjJamzZt43jVdu3aJasNeUU4HnlFGTNmtPy4jKQKUnBEUm9bpK3hKDgwCS+YP8+x6gGokcTWrl17yZM3r0XIJ74aEFXYAnybYU8EuOe7dXtcPVVb2ZAkqvNR0Deoc2bDxljhIDg88YcYGT1qpNM7f5o1by7FihW3bLeZBQf6rV//AXHqCzGMpFmjGEZuUZEQ3BvGsp3hh4pRcPgBIi/hG4FwExz4Il+0cIHTUtlkyZJLy1atwnavgO+//07OnT3r6PhKlSur8IpVzdVmbb7UFdvSw2sQ6jZjxnS5eOGCoxl16tZVKzusauaQChJe+w94zmV1J0+aKJcvX3Z81qBBQylVurRVmxaR9aLgiMhuT9pGh5PggNj4ccliRxIiyOKJH0+O2KUzXA0bn2EDNG2FChWSNm3bWba5+3791REaSkglw0Vw4I24xi35kQuBZbJWNWyljxVFRnO3oRl2v8Xbm7Vh+eyDJUNj63ar8vd3vSg4/E2U14uXQLgIDuwB8PPPP8nBAwccbUZOQ5MmTdUeCKFmd+/ckWnTpjpVG1uxu3rd99q1a2TH9thdVAsULKjCR1a1Y8eOyqKFscmivtbT6oLjmwnjnTZiw8ZY5nBCdPRdGTVypNNuqlYPqUDQI1Ri3AEW4wzjzWjIz8Guxsbls+3ad5ACIZTQ7OuYDMXjKThCsddCvM7hIjhWLF8ue/fGviwLYgOrHkLlhViuhpH53TdlypSRevUbOB2KL39so43lv9rKlC0r9erVt+zIvHb1qpw4Gbs7rKuK4mV7x48dc3yUNWtWqVipkvodLwjD/g9WtVmzZqq3MWvTe4sY67t//35Z+nPs6+sxXpFYiQ3BrGxLFi9WK1G0QWy0bdtOrVDRhv1TkIOjDbke2GnV6m9ntjL3QNSNgiMQVHlNjwTCQXCsWbNadu7Y4dROLA+NbzOlXDlzyT0WfqHW0p9/lv379zm1CwIKb7lNkzatehnd1i1b5IIhDwAHh8PTZCgnjeItsXhbrNFKly6tlvymSpVKfj9zRtavW+uUMIp3kbRu09by31bYbA5v9DXuKorXBFSoUEFSpUotR44cVi92M35etlw5qVu3nuXbFmkVpOCItB63QHtDXXBg0p08aVKCSNaqVVsqVIz73pUEXSwAJ/377xWZPm2a3Lxp24XTGytcuIhKkA11C2XBgVACXt+O/Ti8MSRfdun6mNxzzz3eHJ7kx5hfhOipQhkzZlIvU8T7ZGjWIkDBYa3+iIjahLrguHTpktrPISFmdcGBNsF7gVU3eEtnfIZtpLFNNjZjCnULZcEB9hCJS5YsltOnTnnsimTJk0vjxo2lePHQyTOC92L5Mixrdva+mRuKl/Ah3ILN9mjWI0DBYb0+CfsaUXBY18OhBx+S8Hbu3Cl4M+4//8Rm/uNzxMXxYrPyFcpLwYKFwma8hrrg0B1x+PBhFe47f/6cU5gBXo2ChQpJlSpVJUeOHCHZb9gpdtvWuCG91GnSSIkSJeThh6uoN8fSrEmAgsOa/cJakYBlCGBnTiSIxkRHKzd1lqxZ+TZOy/SO+4pANEIs3v7vtmBCzpIlS9gkUd64cUMtgY2+e1fSpksnSPA1JpGGQPdEZBUpOCKy29loEiABEiABEgguAQqO4PJmaSRAAiRAAiQQkQQoOCKy29loEiABEiABEgguAQqO4PJmaSRAAiRAAiQQkQQoOCKy29loEiABEiABEgguAQqO4PJmaSRAAiRAAiQQkQQoOCKy29loEiABEiABEgguAQqO4PJmaSRAAiRAAiQQkQQoOCKy29loEiABEiABEgguAQqO4PJmaSRAAiRAAiQQkQQoOCKy29loEiABEiABEgguAQqO4PJmaSRAAiRAAiQQkQQoOCKy29loEiABEiABEgguAQqO4PJmaSRAAiRAAiQQkQQoOCKy29loEiABEiABEgguAQqO4PJmaSRAAiRAAiQQkQQoOCKy29loEiABEiABEgguAQqO4PJmaSRAAiRAAiQQkQQoOCKy29loEiABEiABEgguAQqO4PJmaSRAAiRAAiQQkQQoOCKy29loEiABEiABEgguAQqO4PJmaSRAAiRAAiQQkQQoOCKy29loEiABEiABEgguAQqO4PJmaSRAAiRAAiQQkQQoOCKy29loEiABEiABEgguAQqO4PJmaSRAAiRAAiQQkQQoOCKy29loEiABEiABEgguAQqO4PJmaSRAAiRAAiQQkQQoOCKy29loEiABEiABEgguAQqO4PJmaSRAAiRAAiQQkQQoOCKy29loEiABEiABEgguAQqO4PJmaSRAAiRAAiQQkQQoOCKy29loEiABEiABEgguAQqO4PJmaSRAAiRAAiQQkQQoOCKy29loEiABEiABEgguAQqO4PJmaSRAAiRAAiQQkQQoOCKy29loEiABEiABEgguAQqO4PJmaSRAAiRAAiQQkQQoOCKy29loEiABEiABEgguAQqO4PJmaSRAAiRAAiQQkQQoOCKy29loEiABEiABEgguAQqO4PJmaSRAAiRAAiQQkQQoOCKy29loEiABEiABEgguAQqO4PJmaSRAAiRAAiQQkQQoOCKy29loEiABEiABEgguAQqO4PJmaSRAAiRAAiQQkQQoOCKy29loEiABEiABEgguAQqO4PJmaSRAAiRAAiQQkQQoOCKy29loEiABEiABEgguAQqO4PJmaSRAAiRAAiQQkQQoOCKy29loEiABEiABEgguAQqO4PJmaSRAAiRAAiQQkQQoOCKy29loEiABEiABEgguAQqO4PJmaSRAAiRAAiQQkQTiCI5kIsmjRKJEJFky279R+D9YjOFnL2lFxcTExHh5rNNh6ix7wfgZv0ZH2/69G2P7+S7+ixHJ9qHIzbdvJ6QYnkMCJEACJEACJBAEAqElOCA8Yig4gjAuWAQJkAAJkAAJ+JVA6AgOeDXgZcG/EB127wb+pYfDr2OCFyMBEiABEiABvxNwCA57KAVhFEdIBaEV+39JE1JBqVE2keEIq7gQHPd8KHL97ds6AuN3SLwgCZAACZAACZBAwgkgHSLd4JTy1xsiye1CA/8mi7L9p/M3VA6HPRHDkc/hZbGJy+HwJDh0HkeMSL6PRU69eFsypPKyVjyMBEiABEiABEggaASu/idScHhK+X2QTWBo0RESgsMRVokWqTBSZFHXO1IkW4LyU4MGnAWRAAmQAAmQQCQSOHopSlpOTyE7nrGLDYN3w/IeDmMeR4dvRZ6tfFeaFUOWB40ESIAESIAESMBKBJYcTiZfb0suszvb8jaM4ZQkFxwApZfG6vwNnTCqV6roxNGPVsNFEy3v1b1rJb6sCwmQAAmQAAmQwP/P5++sSi7RMcnk9TpuBIchjyMhe3AAcoJzOOIIDvteHI5VKobk0XUnRd5dGSMbnrrDjiUBEiABEiABErAYgerjU8i79aKkZqFY7wY8Hcq74SJp1NeE0YAKDhVSsSeO/ndXpMSXIqufZB6HxcYYq0MCJEACJBDhBJC/UWdiCjkwQCRVctuuolpsWFJwKI+Hq91G7aLjnZUiySRahjZkWCXCxzabTwIkQAIkYCECry5LLtGSTN6rZxAbLrY1V14K+7LYJPNw6PCKeS8OY+LomSsidSeIbO97R3Kk52oVC401VoUESIAESCBCCVy8FiUVR6eQVT1F8mbyImHU7l0IuuDQQsOx+Zdhp1HHFuf2XUchPt5cLnLnbrR82Yxejggd22w2CZAACZCAhQgMWJJcUiRPJh80iN1/Q+3DYc/dMIdUEpowqrwjCX15m+bltFLFlDgKkeHI5YgRuXRdpOY4kW/a3pE6hejlsNCYY1VIgARIgAQijMDqk1HSY14KWddLJFs6u+CwJ4o6NvzyU8KoXwWHp7CKDq3g33WnRPouEFnb847kz0TREWHjm80lARIgARKwAIHfrkRJrQkpZHRrkRoFXYdS4uy/kYhwiv8Eh7qS8ztV9PJYs5cDe3OM2CwyY3eMLO9+l/kcFhh4rAIJkAAJkEDkEEDeRoNJyaVL2SjpVyXuMlhP3g013SNxNAGW6JCK9mxowaF/N745VouOaPsbZPH7kLUiiw7EyOJud+npSEDH8RQSIAESIAES8JUAPBvNpyaXlg9EyWu1Y1/OFmdnUYRWDOIiMatTdB39Jzi88HI4hIc9kXTEFpGx20QmMqfD1zHD40mABEiABEjAJwLI2XhyXgrpXVmk38Nx99vQng13e28kxruhzk1s0qjDw2EQHPpval8O+6vrncSGfW8O/G39aZFnF4q0KB4tb9aOZojFp+HDg0mABEiABEjAMwGEUD5Yk0x+OJRMvm4lUqNAPJ4N4zbmhr03LCE4XIkO4/tVtPAwhlb0z/js8g2RTzeIzN4n0rVMtDxVMZpvluUdRAIkQAIkQAKJIIAdRMdvTybT9ySTDiVFBlYXyZImVmwoj4a7t8LahYYOpSRWbPjNw6F5GJfIGr0cLj0d0fadSe1LZyFAzv0rMu4Xke/2iBTMEiMNCsfIw3ljpFj2GMmVIUbSp1K5qTQSIAESIAESIAE7Acyx1/4TOX81Sg7/GSVbzkTJ8mNRcurvKOlURqRXJZHcGZ2FBuZSo9iAsHCsSvFz7obuKL+EVJwEh5IxsStW9M86tGL0dhhXshhFyZ1okS2/2ZbQ7joncvyyyMWrIjdu20QKjQRIgARIgARIwEYA4iFtSpEcGUTuzypSLrdIzYIiD+cXSZHMtqpEiwnjChTHz3aBoXM39OZe/vRu+N3Dob0amoAKq0Ah2AWIEh2m3Uj13xyCxHCMOtZ+vEPUqEI4zEiABEiABEiABDC/Gj3/jje76pCIITRiFB0OEWI/P9BiIyCCwyE67ATMokN7NbSQMHo29M8QFMbPlb6wiwxPWoM6hDcfCZAACZBAOBLwlE7g+Ewne5pCIsYNvJw280JYRb9+3vBSNsc+GzEJ33PDVR/4NaTi8ELomd+D6HASFMjjsHsyjMmmWrwYhYRRfNDZEY63FdtEAiRAAiTgiYCT+DB7OExiA8dqr0ec5a6mxFB1nL64feJN6CZfQRMc5tCKQzgYwitGwRHHo2HwcDhEheFcY0Po1eCNSQIkQAIkEEkEzN4OR66FQXw4QivGd6GouIYtBGP83Clnw/Ak70+xoYr2xz4c7jpa5W/YG2gUIdqLYfRgaM+FMWdD53B4Cqc4yoik0ca2kgAJkAAJRCwBV0LAVVhFTb9ahLgKt5hXowRQbARccDh5OuzCQwsEx7/2IWMWIYZ22/SGwZVBr0bE3mdsOAmQAAmQgIGAu/CK/rsWJ9qrYfABOMInxtUoWqQEAnJAPRzGCnvydpj0hG1li2kxill0eIJBQRKIocJrkgAJkAAJBJuA13tPucjlMIuHOCIkgPkarjgFTXB48nY4PrNnyZoFg8uwiSEhNdgDgOWRAAmQAAmQQFIRMCd2GuthDreoqdKwAkUfGyyvhlPdApnD4a4zzN4OsxiJIzAoLpJqXLNcEiABEiCBECDgToQYBYiTGAnAKpT4MAXVw2GsjDtREccTYjjJbYKo1z6n+HDwcxIgARIgARKwMAE3OQPuVpS4EhlOXo4gNjXJBIdb8eFGPHA1ShBHBYsiARIgARIIOQJul7EaRIq/l7r6AskSgsOj5wMf0oPhS5/yWBIgARIggUgl4MIDkpQiw9gNlhMc8YqPSB1EbDcJkAAJkAAJeEnAKiIjZASHl1x5GAmQAAmQAAmQgMUJWNrDYXF2rB4JkAAJkAAJkICXBCg4vATFw0iABEiABEiABBJOgIIj4ex4JgmQAAmQAAmQgJcEKDi8BMXDSIAESIAESIAEEk6AgiPh7HgmCZAACZAA/UcfOgAAIABJREFUCZCAlwQoOLwExcNIgARIgARIgAQSToCCI+HseCYJkAAJkAAJkICXBCg4vATFw0iABEiABEiABBJOgIIj4ex4JgmQAAmQAAmQgJcEKDi8BMXDSIAESIAESIAEEk6AgiPh7HgmCZAACZAACZCAlwQoOLwExcNIgARIgARIgAQSToCCI+HseCYJkAAJkAAJkICXBCg4vATFw0iABEiABEiABBJOgIIj4ex4JgmQAAmQAAmQgJcEKDi8BMXDSIAESIAESIAEEk6AgiPh7HgmCZBAgAgcO3ZMfv/9d3X1hx9+WNKkSROgknhZEiCBYBGg4AgWaZYT9gTu3r0rR44ckTx58kimTJnCvr3eNvCvv/6SCxcuCPhkzpxZ8UmRIoXH019++WUZNmyYOua3336TfPnyeVscjyMBErAoAQoOi3ZMuFTrzTfflA8//NBtc/Dkmjt3bilSpIhUr15dnnrqKcmbN29INr93794ybtw4NaH++uuvkjVr1pBshz8qfe3aNRk1apRMmzZNdu/e7XRJcGnSpIkMGjRIypYt67I4Cg5/9AKvQQLWIkDBYa3+CLvaxCc4zA2GABk6dKg899xzIceifPnysmvXLlVvTLJlypQJuTb4o8IQW23btpWjR496vBy8HPBiuOprCg5/9ASvQQLWIkDBYa3+CLvaGAXHiBEjpFy5ck5thJv9/PnzsnTpUvn222/l+vXr6vPhw4fLwIEDQ4rHjz/+KF999ZVUqFBB3n//fYmKigqp+vujshAZ8FRdvHhRXe7xxx+Xp59+Wh544AFJmTKl/PHHH/Lzzz8rPmfOnFHHTJ48WR1nNAoOf/QGr0EC1iJAwWGt/gi72hgFx+rVq6V27dpu27hjxw6pX7++/P333ypJ8MCBA1KoUKGwYxKuDbpz545Uq1ZNtm3bppo4adIkeeKJJ1w299SpU/LQQw8pYXLPPffIwYMHJXv27I5jKTjCdZSwXZFMgIIjkns/CG33RXCgOl988YU8//zzqmbvvPOOvPvuu0GoJYvwB4Hvv/9eOnXqpC6FXBzks3iy0aNHK+8H7OOPP5ZXXnmFgsMfHcFrkIBFCVBwWLRjwqVavgoOrGbIlSuXan7r1q1l/vz56uf//vtPhgwZon7GMsnGjRvLkiVLZM6cOcoj0qFDB+nSpUscbPv27VOhGqwewRN4jhw5pEGDBtKiRQtJnTq10/EQO7gWklYxYbqzQ4cOyXfffac+bt++vZQqVUr9PHv2bEF5sLffftttSOXKlSsyd+5c2bBhg2AFB0INBQoUUO1FOMJdKGbx4sXyyy+/qOtjck6bNq3LKo4dO1bOnTunknGRyOrKdB02btwoly5dUnVAsmvz5s2lTp06kixZMp+HIPoEoTHU/+TJk6pNnuyff/6RnDlzyq1bt1SZq1atcis40CcrV66UefPmqbah74oXL65CMffdd5/HcjB2fvrpJ1m+fLnyqGAc3Hvvvcrb1qpVK0mXLp3L89FHe/fuVcc+88wz6jz0AcYdQkM4D3k6qIMes+4qgrbOmDFDNm3aJP/++69kyZJFatWqJY8++qikT59ePvvsM0GfoP8xPt3Z1q1bZebMmQIPEQx9jD7DOcmTJ/fIAeN21qxZgn8RusyQIYM8+OCD0rFjR3oSfR7tPCEhBCg4EkKN53hNwFfBgS91TH6wunXrqkkGhlUP+IKE4an49u3bMn78eEc9BgwYoLwj2vDljb8hP8CVFStWTIkVLRZwjF5lgmTGs2fPqonGlfXv31+Qj4LjTp8+rb70YfjixmQAi46OdikcMOkgSfLPP/90ee2aNWvKlClTXE4AmPSw8gMGoZItWzaX16hUqZJs375dKlas6BAoxgMXLlwovXr1cuRZmC8CQQdvRcGCBb3u56tXr6r6oF8wka5Zs8arc9FHJ06cUH0LNlpsGUMqCLVBYEEwmA3CA3kzaI8rW79+vQrrHD9+3OXnWG47ceJEl5P8Y489JtOnT1eCZsWKFUrUoi5mw1JfrMaBiHVlEFIQw8hVMhtEGYQqmN28eVOt3EHStNlwbo8ePQR5Qq4M4SmMZ1fLhyG4XnzxRTVmXRmECvgiryY+0eJVp/IgEnBDgIKDQyOgBHwVHHh6xZM2DCsd8JQJMwoOTGx4KofhKRdPiHhSRQhGH1uvXj3B0yAMeSF4moVAwBMrnvIgbFAOVpPo3AE8fSIHATZmzBiX3gEkuWICwt4QeLL84YcfHPziExwQSHpixBNuu3btVP3xxAtPgxZXmDQ2b94cZ3mwPwQHJj94IiAM0O5HHnlEihYtqp6ukWOD/2CFCxdWk6u3+4ns2bPHscS1X79+SgQkxoyCAzywCRj6sHLlykqUYDXQsmXLVBHo1507dzqJR/wdHqRGjRqpp3mIAvQPRBj6HnwhqjAZw1OxZcuWOOdrwYHxBfEJr0LTpk2ldOnS6hroM4wZGDgdPnxYeWyMBo9XlSpVBIIMBg8GxAGEEjwNixYtkowZM8rly5fV564EB7x+GJcQTWg7xjpEIcYixjiuAYN4Rv6MeZM0LaRxDPiBCdoDoYd7AeIa9uqrrzq8iInpO55LAu4IUHBwbASUgK+CA6tTXnrpJVWnDz74QN544w31s1Fw4HcICoQOMDGaDR4Q5AfAkEdgDo9gosLEgS9seCu+/PJLdSy8EiVKlFATR8OGDVV4wGyYqKpWrar+jAkLLnFtngQHJhdMdmgHvCt4Ws+fP7/T5ZFkiafYmJgYJZJQT2N4xR+CAxMeJkoIHoRnjPxQ7ltvveXYN8XIP75BgrpiIjP3W3znufvcKDgQOoJYM4fMPv/8c3nhhRfUJYz9qPsS4Q5M+BCW69atk/vvv9+pOIRZMA5guDa8GUbTggN/g8jF5Ixxpw28MFY//fRT9Scs8YUnwWjwWMHLAhs5cqQjZ0UfA6GDUBpEBcwsOFAG6oiVPRASEOC6zvoaEyZMcIzxTz75xHH/4HMk42JMw1AOvCnGTdfgKYOQAyd4NyBq4guFJbRPeR4JUHBwDASUgC+CA1+qcFvjaRBPnfiy1JOyUXBg4oBnQodYjA3Askx4DSAe4E2AKHFlnTt3VnkYeDLF8kx9rcGDBytPCb588VRtjs0joRWhG0zYOM8Y//ckOBDnnzp1qsqNQLjDvDxY1xHega+//lr9Cje+cYJLrOCAVwOTFtig/QhhmA1P/MiXQMgHnhBMyt4YnrLx5A1D2Kdv377enOb2GKPggCCEoDAb2oMndeRHGMNvOA711ytkUK8+ffq4LEsLMIwpbKduNKPgWLBggaN9xmOMOUc4Hn2sDR4iiEwYxjUEiyuDl6xly5bqI7PggEdKjwFsoPf666/HuQRECUIyEDbwVuG+0Tk4yF/SQg0iF0LWbAixQYzAMCYwNmgkEAgCFByBoMprOggYBUf37t3j5CbAywB3PiZh/SSIk81Pg0bB0bNnT6f8DSPu9957z7GyBW5+uL9dmfHp1rhcF8mOOgkRMe9nn33WcTrqCo8AXOuu6uBOcNy4cUMt/cS/5jCMuW64NsrHJPLkk0/KN9984zgksYID10QYBeEobFIGb02qVKni4MEEjrZCdCEU4Y0ZJy134ShvrqOP8XZZLMIV8BKgn9Hfvho8VBACyBuC2DKaUXBA3Ljbjh3eD4REkMOhwxu4DlZYYTzC1q5dK/B2uDLjmDMLDowBeL5QNsKNxqXDxmshhIV8GBhEt/ZcGce5eSWQPh/hIdyDMAhovrfG11HE470lQMHhLSkelyACvu40Co8CPAjGUAUK9lZw4GkWX/r40sQTprskOCR7ImwCg0tcu+bxO54CkU9hfmpGvByxcxjEEZ6OjeZOcCCujri9q7JcQYX3Ax4cxOSRc6ItsYID10GcHhMPDKEhJLBihQMEUWLMKDj87eHw9C4VPNkjXIIwFcJW7gyrSsASXgz8DAEBg9jQK4sgyIzmreCARwh5EAgpwUunzShmMKG7m8g9CQ5s/Q4hhbCIXrHlqo0YY6gvDCtpmjVrpn7GfVOyZEklkiFaIJQh/LE5nSuxmZgxwHNJID4CFBzxEeLniSJgFBxIWDO/XwSCAElzWOmBiR4iwNUXs7eCA2XopaPeVtycLIcnSjxZIn8CwkRn/mPnUyxfxHtfMLmZl466ExyYAPQKBqwywHtEPBmSSbH8E8mKSCjVeRz+EBxYggrvATxI8GLAcH24/vEEjkkSosrXXVIDmcORGMEB0Ym8FAgB3V537P0tODCWEcaAt8HTNu+eBAdCfRj7vhjCOlp84DyEWBBWQWKtNlwXuRu459Dnofr+Il+48NikJ0DBkfR9ENY18CWHwxMIbwUHvAL6idVbsEj8Q7KdNjyN4gsYuSTa+4G8B8THkVSHPTa0q9xYhjvBgUQ9rAaBac+Jp7ph8ywkpELQ4ElcCxt/CA5dLgQT8luQP4AkWaNhWS0SMs0eHE91hkdG56WgnjoPxds+MB/nbUjFk4cD3DHxQmQh5wbhLGyxjpUkOjwCb4zeGdXfggMTOkIp2OvC05h0Jzgw5hKyTBUJtvBkGA1hE4hdLLlGMrQOoeAYhJPg9cByXHdLrRPajzyPBIwEKDg4HgJKINiCA8sHsVTRHI7wtZHdunVTeyvUqFFDuezhNYH3BIZNxODlMJs7wQGRoZP14MJHAqEn0xtoQfQgcVWbPwWHsXyUgTwIeFUwSWOCxrJNbHBlTFr1VGfjPhyamTfMX3vtNbVJGLw5WFHkah+OhHg4kFMBzwL+hfcGk62rfVWMfeZvwQGvFrxb2GxOr0JxxcSThwM5G1hJEl/ujzes9TEQsXhtAMYlEqfR9zCEXhA2dLcRmi9l8FgScEWAgoPjIqAEgi044EnApKlfFOZt0qMZglEkYEJAAimWPSLsgKdWV+ZOcCB+rt8Jg1UuCMu4M0wGyGNBYqd5aa5xBQtWYbjLu4hv4y9PHY4JB14DiA5fNvDCNXUIAT+jzfEtrzTuNApvgN4DBOcn1sNh3Gbd3eoMlBNIwYGVOkighWFFk95fxszfk+DQSbEQnwjvJWQHWE/9bV7aC6+Xu03UAvpFwYtHBAEKjojo5qRrZLAFB1z5mJhhiVktARc0npDxJQ9XM9zUiMN7uqanZbFwq+uX0SGmbt5WXfeQcXkptnJHfok2rGD43//+p341rkQw965ONDTvNAo2mIhhWP7oaldKfKafzJFbY3S9xzeKcM2uXbuqw7zZ/Mv4LhXz/hGJFRzYNROhL5in1UrwHMCTA/O3h8Moeswrnows4TFD0ivMvErFyAGhEJ3oHF9f6M+xeR48JNiTxN1Oo0h41Tkc3vSbt2XzOBIwE6Dg4JgIKIFgCw68CwVCAR4CuLLhLnb1xlk8wSNujVUt7vYdgLsfYgOeBHxpYwMqhB/cxbk9CQ7kCiAkAkP+h54MjfDxxI+ETeRXYLJHvohxGaRxTwVXm0jhWgiLIOkUZhYc2DQK736BYYM1JMGaDXkDCB0h2TK+lR/mcyHSUH+cixwJrFwxb1Klz4GQw8odhBoQ6oAIM3JNrODAduXYRA3mbv8KnRys62Tejj6xq1SQdwQvD8Yi9pNB0qbZK4UysUeL3nTMLDgwBrCvDNiiPxAudDX+MHYg9rDayrjXBvbXQD9g7CJXx5XIRL2wagWGpbx6x96AfjHw4hFJgIIjIrs9eI0OtuBAy5AYpzd9whc9QiF4kkWeAPZawP4TmGyx9wdCLvA86PehGMkYd2nE35HNrz0Ergh6EhyYMLDMVu81ggkVm1lhAsBnCGVgiSrqBMPTv3mzKiznhHjSW3UjsRMTCrwlmMDRbiS5Qky5EhxoO8QEnvixEgiTGyZlTIp4uodrH54BTNYwrO7ARmi+GJghhwMCDcsu0Sas+MF7WTC54uVpWDHy0UcfOfJTzDu2orzECg68ewRJvsgtQVvRDuTOID8BW3pDAIKX0SAQjPkLiRUcuLZxfwzsFQKhhz5AyG///v2qXsbt8V1tbY4dX9EXMCyPRUgOL7tDv2NvF2wQB84QJ+CM6+p2YFdZhAHBHoIFXjN4SSBoMU7wOcYZvCyoE8YGEmtpJBAIAhQcgaDKazoIJIXgQOHwTGBbdHzRwpCMiCdpeED0Bk/4HU/9mCDdmU5Cxedwvbt7Ysfn8b1LBU/z2KvBuEEVJgZ88RuXbMKzgqdyV0tTIZ4wGbszCCz9NOvq5W3YhwJPwPpto7gOJh+UDyGjDXtzYHfNhCQQwsMBL4uxDFf1xYSJPVdc7QKaWMGB8iCcsFrDHCrRdcHkjB1G9Vtq4VnSoQ0c4w/BAa7wYLja1VXXA2NCb6PvSnDgGvBcGN9Pg9UrOqEUghUGMYoxqrcy19eHeIW41cdhXGF5ut7gTd8fCLnhtQA0EggUAQqOQJHldRWBpBIcKBvuZzzR4YnauIsktjNHcilCG/HtP4DQBXYbRSInJlBPmyXFJzhQJ0zq8EwgJwRP2tqQDIjESUw4WKXiybB6Bk+9xo2udJvwxIxJA250d2+LhYsfXODGx+6VRsNTOJIGkfCo39qbkKGMyQxiAntCmPeggDcJwg2iwt3TtD8EB+qNiRzhK70SA3/DHhTwuiB8gJwZ/e4ebIimwzD+Ehy4DiZ6bM8O7xOSR7XBAwNPGwSH3hnU0wvUICbgIUFyrRbSuBaEBzx6ENjmfW50WbgX4FVCAi3eSqsN4xnjDVumI0GVRgKBJEDBEUi6vLYlCGCSx9JKuJ/xNA8vQFLvsoinbkw+CD0g3wGhFV9W1OB85JNg2SdCRTjfXSKqu07QdcA18MQMj4+rpaOJ7USIGoSD0E60EYLD36st4qsjQjn4D+2EJwBeoGAbPBUIWyF0gzwMiF14G3799VfHFvzuth831hWJvOh7rGgCT/S9u23XzW3EPYBxp8NHuBe4lXmwR0LklkfBEbl9z5aTAAkEgYB+L427ooxvezVuSx6EqrEIEggqAQqOoOJmYSRAApFEAN4LhKewN4z5zcPgAG8FVusgPIawGJJ/ffF0RRJLtjX0CVBwhH4fsgUkQAIWJYCE5A0bNqjwCfJr2rRpo8IpyKPA35E/smvXLlV75FggYZhGAuFKgIIjXHuW7SIBEkhyAliRhI3UkEOkDZ4MvJTPuHoGK3WQoBzs3JYkB8QKRBQBCo6I6m42lgRIINgEsGIHYgJhFSwZ1oYEVrwgDytVsJ8KjQTCnQAFR7j3MNtHAiRgGQJYkoxVIlglhZwO5mtYpmtYkSAQoOAIAmQWQQIkQAIkQAKRToCCI9JHANtPAiRAAiRAAkEgQMERBMgsggRIgARIgAQinQAFR6SPALafBEiABEiABIJAgIIjCJBZBAmQAAmQAAlEOgEKjkgfAWw/CZAACZAACQSBAAVHECCzCBIgARIgARKIdAIUHJE+Ath+EiABEiABEggCAQqOIEBmESRAAiRAAiQQ6QQoOCJ9BLD9JEACJEACJBAEAhQcQYDMIkiABEiABEgg0glQcET6CGD7SYAESIAESCAIBCg4ggCZRZAACZAACZBApBOg4Ij0EcD2kwAJkAAJkEAQCFBwBAEyiyABEiABEiCBSCdAwRHpI4DtJwESIAESIIEgEKDgCAJkFkECJEACJEACkU6AgiPSRwDbTwIkQAIkQAJBIEDBEQTILIIESIAESIAEIp0ABUekjwC2nwRIgARIgASCQICCIwiQWQQJkAAJkAAJRDoBCo5IHwFsPwmQAAmQAAkEgQAFRxAgswgSIAESIAESiHQCFByRPgLYfhIgARIgARIIAgEKjiBAZhEkQAIkQAIkEOkEKDjCfAS89957Yd5CNo8ESCBcCLzzzjvh0hS2wwUBCo4wHxZRUVHy7rvvhnkrQ6d56Av2R+j0l67p6tWr1Y916tQJvcqHSI1xX8TExIRIbVnNhBCg4EgItRA6B4KDN7F1Ooz9YZ2+8KUm2lPIJ3BfqPl2LO8N33iF4tEUHKHYaz7UmTexD7CCcCj7IwiQA1AEBUcAoJouyXsj8IyTugQKjqTugQCXz5s4wIB9vDz7w0dgFjmcgiPwHcF7I/CMk7oECo6k7oEAl8+bOMCAfbw8+8NHYBY5nIIj8B3BeyPwjJO6BAqOpO6BAJfPmzjAgH28PPvDR2AWOZyCI/AdwXsj8IyTugQKjqTugQCXz5s4wIB9vDz7w0dgFjmcgiPwHcF7I/CMk7oECo6k7oEAl8+bOMCAfbw8+8NHYBY5nIIj8B3BeyPwjJO6BAqOpO6BAJfPmzjAgH28PPvDR2AWOZyCI/AdwXsj8IyTugQKjqTugQCXz5s4wIB9vDz7w0dgFjmcgiPwHcF7I/CMk7oECo6k7oEAl8+bOMCAfbw8+8NHYBY5nIIj8B3BeyPwjJO6BAqOpO6BAJfPmzjAgH28PPvDR2AWOZyCI/AdwXsj8IyTugQKjqTugQCXz5s4wIB9vDz7w0dgFjmcgiPwHcF7I/CMk7oECo6k7oEAl8+bOMCAfbw8+8NHYBY5nIIj8B3BeyPwjJO6BAqOpO6BAJefmJv433//lY0bN8rhw4clefLkUrx4calSpYqkT5/eqdYdOnSQOXPmqL/9+eefcs899wS4VaF7eV/7Y9y4cXL27FmnBoN/vnz5pHz58qpPEmq//PKLVK5cWZ3+4osvyrBhw9SL/pIlS6b+VrNmTVm7dq1Xl79165Zs3rxZ9u/fr65RokQJNVbSpk3r1fnxHfTkk0/KpEmT1GEnTpyQQoUKxXeKXz9PiOCYOXOmHDhwwKke6P8cOXJIyZIl5aGHHpLUqVP7tZ6hfDFf741Qbmuk1p2CI8x7PqE38ciRI+Wtt96SS5cuORG699575eOPPxZMANooOLwfRL72Byalbdu2uS2gVq1aaiK+7777vK+E/Uh/CQ6Izeeff15+//13pzrkzp1biZguXbr4XDfzCaEoOIz3hSsABQoUkDFjxkiTJk0SxOeFF16QY8eOSZo0aQTiRtuVK1fkscceU79C9L3++usJun6wT/L13gh2/Vhe4glQcCSeoaWvkJCb+H//+58MGjTI0S48pd69e1f+++8/x98mTpwo3bt3V79TcHg/BHztD6PgyJUrl/I+3Lx500kIwsuxZ88eSZUqlfcVERF/CA6InR49eiivBgz1QxsxXrSNGDFCnn32WZ/qFm6CI0+ePJIyZUrF6Y8//pAbN26oJqLPli9frrxJvpoeG5kyZZJ//vnHcfpff/0l2bNnV7+3b99eZs+e7eulk+R4X++NJKkkC00UAQqOROGz/sm+3sSHDh2S0qVLy+3bt9WX1nfffSd169aV6OhoWblypTz66KPqyw1hk+PHjwu+7Cg4vB8HvvaHUXBcvnxZsmTJogpDmAtPxggvwDZs2CDVqlXzviJ+EBy//fabPPjgg3L16lX1lI2ndYwPtHHu3LnSq1cvuXbtmvps7969UqRIEZ/qZzw41D0cCDUhzASDcP/oo49Eh2mqV68u69ev95kNBYfPyHhCEhOg4EjiDgh08b5OcHCNf/HFF6paY8eOVZOG0eD5gAcENmvWLCU2jIIDT9oIuSxbtkxSpEghjRs3VsfrJy6ch6e7L7/8UubNm6di3JiQkEuAshs0aOAormPHjspVnDVrVtm5c6e8+eabSvTgCxsi6NNPP1W5DNpw3aFDh6pzkPdQqlQpefXVV+W1116Tffv2qXqiztoQLkJdFy9eLJg88RSK+r7xxhuC0JG269evyyeffCLz58+Xo0ePKpFVsWJF6d+/vzRs2NCnLvS1P9wJDhSKvAswgKFurVu3dtQF4Y0PP/xQVqxYIRcuXFA5D/j8lVdekQwZMqjjEuvhACdMnDCUZXbdf/bZZzJw4ED1OVihz5Hrgf6GwTNSqVIlGT58uBK4p06dUn/ftGmTvPPOO6p+6IeePXvKr7/+KlOnTlWfG3M44DGYMWOGTJgwQXl54EXANdFOo9egUaNGakwWK1ZMxo8fr9hhTB08eFAKFy4cbx8mJIfDeF8YBQcKgwfo/vvvl9OnT6uytZhEezB+v/nmG9m1a5fyZuEBACES3IvIpfr++++lU6dOceoMAZo3b17Fwmzoqw8++ED9GeP5888/V3lXGM+4N2vXri1vv/22Izfm5MmTjjAd7h94OSEoixYtKqtWrVLiFv2EkA2+J3AuRC/u+ebNm6v7RYvjeOHaD/D13vD2ujzOOgQoOKzTFwGpia83Mb6st2/frupy/vx5yZkzp1O9MHHjCw+G/AEIBOMXK9z+OM9o+HLCExzqggkHk/S6detctnfKlCnSrVs39ZkWHPgZ+QDnzp1zOqdcuXKqrnDjwwPTpk0bWbRokdMx+Az/3blzx0lwXLx4UWrUqCFHjhyJUw88iW/ZskWyZcumzkN9V69e7bK+rkSZp470tT88CY527dop0QbDxKkTSOGlgiAz88JxVatWVRMGkhUTKzjwZI6kYhjEAnISjIbQARIkYRB/8HIYBQfGFsQQDJMv8hG2bt2q6o5J0WgQKZh8YUbBAUEDYWM2THwYp2AE04IjXbp0SvDo3CR46bzJf/G34ND3j74PIHghnjG5QzS7sr59+8qoUaMSJTjAFfcsxILZ0B8QDRBgRsFh7Kf69eurEJAWHJkzZ1b39d9//+10OYhbiGBfzNd7w5dr81hrEKDgsEY/BKwWvt7EGTNmVC5yrITAv96YUXBgEoenAl/o7777rmOFBYQK3O94csMTK+yZZ55RT5p4ysI1sCqmYMGCKlQDkWAUHBBCL7/8sjoGX/74gobhKbBs2bLqaQ3XgOEaKBuTC57k9Jer0cPRuXNnFS6C9evXTz2VQVTA4wEbMGCA8vTA+9GiRQv1N3hYXnrpJfVUCk8IJnSEluBN8TZ/wtf+MAoOeGswWcIbgKfzJUuWqHrBU6CfavGEjMkAK0bwNIwnW4gMxPH1MfAoYKJOrOCAIMOTOThjrKBtZsufP79KJsVn8EzhyV57OHAshAG9tu8KAAAgAElEQVRW20BQLliwQD1p65Uxffr0UezxO+oMUQnTguPHH3+UZs2aqb9BfCLJGeMD/2J8YKLEsXg614JD1w/hDUyW4AKvQHzmb8Fx5swZJRARcoLHCau7wEmHneA5QH+hr+HdgIcHhnsF9UU7MQYxDnDPQqzBu4M+x7jU4hP8cM+hj3BPGwUNvCSPP/647N69W90vEIOtWrVS/WAUHCgXDHGf4b/Ro0c7BAc+gyDHvQzm8ExhTMAg6o2ewvgY+3pvxHc9fm49AhQc1usTv9bIl5sYX2564kR4AV+K3phRcOAcnAsbMmSIw82OLzF8meHLDfkHsDp16ji+kIxP63gyhpvXKDjwBQghATMmtepQwiOPPOJIjsMEpd3p+BLUT95acMADgy9tTGB4mkaYRhu+xJcuXarqhePgRsaXKUy3AT/jKU+HACBe8IXujfnSH7hefKtUIPBQL0z+sB07dqhwDwyeIniMYJjoy5Qpo5atYjKDCEuM4DCOFbA0r1DRLBAO0JMlnoIhNrTgQB/jiRphDhgmSj12IJLwmRYxxjGmBQfGk/ZoYSLWoZFvv/3WsTIGogShBqPg0KFAb/pLH5NYwYGkWT35YhUJBLIeP9pzgfbrXA6IcyydhWGlD8Q2DO3VAtjXHA4IPogw9AOYw+Ok73c8BECYQOhD/CBPS3t+EEbBPQXvpTbt4YCnTPcrPsO9Ai+MHosQk97a/7V3FnB2Fef/noRACIHihOJQ3EqgSHEoFoo7RQvBtUBxK+5Fi0PR4u4ULV5CcSsa3CVYAsn+/8/Q2d/Jzd3dezZ39t5Nnvfz4bNk99yZOc/MufOd931nTtlno9Zyva55CCg4mqcvsrSkzEPMBMwXEJMTX46sUGqxtpJGmey22GKLWARxdiZmjFU4X6x33nlndKnzRYhrOSVAMnkxiRUFR3G1VK1cvpyZTJnEKDOdJcHnUlgoCQ4EBcICQ5jgJk6G1wC3fpoAmRyYqFMogBU1X7b8TEmAtTBK15TpDz5TFBybbLJJDIXAD68K/DBWxWydJWbOjhDyJbC11147rkiTEWIgZ4aVMOEJxElnz+FgrCRvS3tjZc455wyEeDBW86zAk+BgZUxfJGNMJKGIJ4k8gGTVkkbpa3ZkILbwSCVDKLIKxw4//PDomSoKDu697PkXoys42hojCEa8aOQFJYMXQprngbYi0JOXjvwOxHVxbNS6S4W+R8hgeIQIQSYjNJb6gjAlTJPgYDcau9KKlgQHQpt+TYYXLnkJKRPhWKuVfTZqLdfrmoeAgqN5+iJLS8o+xMSR8VIwMRDvrSVUUEZw4Hrn+jRZVrvpzggOBAqTMCtqkgeTVRMcxRVwe9BxU5NbgDeDCa3yECfc/+RwpBV6LR1Ytj/ay+EoepD4kidRspjI2V576FvCXJ0VHJSNR4HwF/eEi7/yQDjyXwhbUBc/WQkXczgqBccdd9wRBgwYEJvNvTF5JasUHPR3LWMTJrBptODguULoYYRAGFfkOSAi0+/5G/3HvadtxpV9ODqCA9FSy06mBx54IHoFFRy1PNFeU4aAgqMMrW54bdkJbvXVVw+33HJLvFMmbibwol166aVxxYjxZY4LtYzgIMZ72GGHxc/zk3wPvoA5HAohgHVGcCQPB0mKrHCTK76a4OD+uE+MCa64M6Z4r+RGpEx7vD54EZgUWQmmFSexcjwryaPS0RAp2x/tCQ5WouS2YExc9A1eAfoFY2Va2X+pfXhBCG+NjuBgC2za9YMoK3qKqAdetD9xxnvUnuAoejjSyadtCQ7Ca6zsEbDkf+ARqWbwIbm50YKjcpdKtbaSQ0SID0OM4KXBO8dps+SzYKMjOHiek8cLz0PKeapsCx4UxruCo6On2b+XJaDgKEusm11fdoIjUW3gwIHxLgmHpOOk+Xfljo20La6M4GByZ6smVnRtF8MnnREcxc8Xz6QgwTPlfqSQSvF3uLTZtUHyYjJ2fBAKwE477bTo0sZ9j1hKVswZSTsMahkaZfujPcFx0UUXtR6+tu2228Z8E9zY7B7BYJISY6vd2+jkcFAebn/CNtiiiy4ac2FSLgthMsRcyo9hHDGe2hMcCEXEA0aeCfeShCMHWHG2B5ZyOFK+Dd44xFPKeeAaxhBiMW0B7g6Co5jQifhK/cipv+ngtKLggDnhPxI6CWskVsWDvwibpJ1MeJoQMIg0vFMwK3ql8OAx7imnmDRqSKWWJ9traiGg4KiFUje+puwEx1kWrApZkWF8URM6IEmQlX3aBkmsnRUZK/sygqOYHMr2vzQRMJmnbY+dERw33XRT6zkUCAy8MMTpEQzpaPDiLpWiYGDiQmRxL5TDeQ8k0DFBFmPSTOi0n/ABGf582ZOPgBcFL00tVrY/ioKDlS4TBPkTTA5nnHFG63ZEkhBpG39jsk73TN4MwoN+JYcDDw2Jhwi/0RUcrIIJiyDYMPIDECAIALxI5IhgjCdEICGQ9gQH1+IlSSKFcycQLYwz+jGFGZLgKHqqCFng2WEiZecSuSzkKSCKqLc7CA524iRPDf1Goihil9+lpNyi4CiKd3JMFlxwwZhQSl8zHukfhDIhJfKN8GpQJkmoSSQSKkSU4aFifHGWCrt8FBy1PM1eU5aAgqMssW52fdkJjttjhc8XdNp6WnnLrIL4gkrbCcsIDiYTJni8JW0ZX7JkxpdJGmUyoh1pFZzKZrJJR7IXBQc7Ydglk4RVZVs4yIgvcfIO+KKGSTWrzDXoaHiU7Y+OdqlQH+53BAcTPcbZIssvv3zVnSNcw4oZj8joCg7qgiNbitt63wsihHyddEBbR4IDkUIIpJiISD14K9JZD8VzOIqCsJI9yb6IIRIgu4PgQLgikqqdn5LurXjuC4etpfAmfydcgtjCKrcBp50weDlIeCZPo5rhzUBss4PGkEpHT7N/L0tAwVGWWDe7vuwEl26PvfScYcG2QiYwJm6EBiuoHXbYodVVzfVlBAfXE1Lhy5IJjxUYq2Jc6WnrX9q2WEZwUC4eEgQAK3m+tJmsecEVEyKGVyLlifBvdqBw1gZejXSPbCll1ZeSF7mOiQ5vDDkIJEmyemS7H5N2MdO/lqFRtj+qCQ5EAztDOEyLPAoSKoshIdrB5MVKlsk+tRnPB14AfmL1EByUg6Dj9E7OtCARFS8LK2rYMFaKb4ztSHBQHoeuIfgQMYwPzorgJ2VhlW+Lpf+YiBErbOckrwZvD2eNpBBPdxAc3BuJyoRW0kFziGJEQBrDKXTGtbBEcDDeuW+ERBrfJH4zjimHsUG/kxeTPsfWVfoLTxn9hdDBy0culSGVWp5kr+kMAQVHZ6h1o8+UneC60a2N0lSEAZNxMbxRPBxqt912iyKqkTY29UcjOde77s5si613G8b08nw2xvQeDkHBMYb38djyEBNSYXXGYUa87wVvDGEQVovpALOU5NrILh9b+qORjHPUreDIQXXkMn028jNudA0Kjkb3QOb6x5aHmNMRSZprK++EZDjCOI22saU/Gs253vUrOOpNdNTyfDbyM250DQqORvdA5vrHpocY0cEbSQmjcFojiYbkZJAwl04WzYy7w+LHpv7oEEY3ukDBkb+zfDbyM250DQqORvdA5vp9iDMDLlm8/VESWJNcruDI3xE+G/kZN7oGBUejeyBz/T7EmQGXLN7+KAmsSS5XcOTvCJ+N/IwbXYOCo9E9kLl+H+LMgEsWb3+UBNYklys48neEz0Z+xo2uQcHR6B7IXL8PcWbAJYu3P0oCa5LLFRz5O8JnIz/jRteg4Gh0D2Su34c4M+CSxdsfJYE1yeUKjvwd4bORn3Gja1BwNLoHMtfvQ5wZcMni7Y+SwJrkcgVH/o7w2cjPuNE1KDga3QOZ6/chzgy4ZPH2R0lgTXK5giN/R/hs5Gfc6BoUHI3ugcz1+xBnBlyyePujJLAmuVzBkb8jfDbyM250DQqORvdA5vp9iDMDLlm8/VESWJNcruDI3xE+G/kZN7oGBUejeyBz/T7EmQGXLN7+KAmsSS5XcOTvCJ+N/IwbXYOCo9E9kLl+H+LMgEsWb3+UBNYklys48neEz0Z+xo2uQcHR6B7IXD8PsSYBCUigOxDgrc/amEtAwTHm9m28M1cNzdXB9kdz9UetrdHDUSupzl/ns9F5dt3lkwqO7tJTnWynD3EnwWX6mP2RCWzmYhUcmQG7OMoPuAlqUHA0QSfkbIITXE665cu2P8oza4ZPKDjy94LPRn7Gja5BwdHoHshcvw9xZsAli7c/SgJrkssVHPk7wmcjP+NG16DgaHQPZK7fhzgz4JLF2x8lgTXJ5QqO/B3hs5GfcaNrUHA0ugcy1+9DnBlwyeLtj5LAmuRyBUf+jvDZyM+40TUoOBrdA5nr9yHODLhk8fZHSWBNcrmCI39H+GzkZ9zoGhQcje6BzPX7EGcGXLJ4+6MksCa5XMGRvyN8NvIzbnQNCo5G90Dm+n2IMwMuWbz9URJYk1yu4MjfET4b+Rk3ugYFR6N7IHP9PsSZAZcs3v4oCaxJLldw5O8In438jBtdg4Kj0T2QuX4f4syASxZvf5QE1iSXKzjyd4TPRn7Gja5BwdHoHshcvw9xZsAli7c/SgJrkssVHPk7wmcjP+NG16DgaHQPZK7fhzgz4JLF2x8lgTXJ5QqO/B3hs5GfcaNrUHA0ugcy1+9DnBlwyeLtj5LAmuRyBUcIBx54YLj//vvDLbfcEiaZZJK694zPRt2RNl2BCo6m65L6NqiZH+J//etf4fTTTw9PPvlk+Pjjj0O/fv3CIossEv70pz+FhRdeeLRA/OY3vwmDBg0KP/30UxhnnHFGq6x6frir+gOel156abj44ovDXXfdFaaaaqpRbuPrr78Oxx13XLj55pvDm2++GSaddNLw29/+Nhx00EFhnnnmGel6OP7tb38Ll19+eXjppZdC3759Yx/RV8suu2y7iEaMGBGWW2658OCDD4bzzjsvbL311iNdf+6554Ztt922ahmzzz57eOWVV0b523vvvRdOO+20WObrr78eTj311LDhhhvWs6tGKqszgmPiiScOME7Ws2fP2A+w3WCDDcJWW20VevXqla3N9S4YvldddVX49NNPw+STT17v4n2zdd2JNl+BCo7m65O6tqirJriyjT722GPDvvvuGyabbLKwyiqrxC8wJslbb701DB06NE6UG220UdliW69fdNFFwxNPPBFaWlo6XUaOD+bsjx9//DHce++9cVK/6aabwrBhw+ItfPTRR6MIjm+//TYsvfTS4emnnw5rrrlmmHPOOeN1V1xxRRRoTOQLLLBA/DwM6QsmG4QDovCHH34IN9xwQxg8eHD8DBNoW3bWWWeFHXbYIf65muBgHDAe1lhjjTD++OOPVAwiFDFRtLvvvjvW99VXX4VlllkmzDXXXGGbbbYJ/fv3z9FlsczOCg5Exh//+MfWdiFA8BIgktZaa61wzTXXNJUgbg+ggiPb8BprClZwjOFdnXOC6yy6++67Lyy//PJxQrvzzjtHmgz5Il5qqaXCd999F15++eUw9dRTd6qaxRdfPHo4EC/NZDn745///GdYccUVw7TTThsFwlNPPRVgXU1wHH744eHggw8OZ555Zth+++1bEd1+++1h1VVXjZP/jTfeGH9PHyEKd9555zj5cw/YZ599FoUKorGaF4Jr8ETMN9980QWPF6Wa4EAs8Hv6vE+fPu1212uvvRYWWmihKFCvvfbarCKj2JDOCg48Gv/9739HuifEGmIDrtddd11Ye+21m2mIttkWBUe36KambqSCo6m7Z/Qbl3OC62zrVl555ejmf+aZZ8L8888/SjFnn312nARPOOGEsOeee470d1btDz30UHj++eejW58QwNxzzz1KGYgWVu9DhgzpbDOzfC5nf7z66qvhrbfeil6IcccdN2y66abhsssuqyo48FIgAD744INR3PqEMb7//vvwzjvvRAaEZvBmHHnkkWGOOeYYiQsTJ8KElftEE000CrN11lkn/Pvf/w6HHXZYDCFUExyUgTjCW9KRMelR33/+85/o2egqq6fgoM0PP/xwWHLJJWMoifFeNATiAw88EN59990w00wzxZAVoq5o99xzT3wOCE9NN910rX8aPnx4OOKII8KvfvWr2P8YHhXKw8uEoEOY0vf05QorrBB69+49Ckb6E08SfcLzxZjabLPNqoZU8JYhbBGdhOWWWGKJUcZJLf2U89mopX6vyU9AwZGfcUNraLaHGAHAlxLeDXI3qhkrXb7oiIH/8pe/bL2E3IF111035hAUbfPNN49f2kV3PF/Szz77bPj8888byr+y8q7sj/YEB658JprVV199FD5M5IQCXnjhhXbZEWpBuLz99tvh/fffH0W4UMf6668fPRHcN+KjmuAg/EVbCOOQH0DOxxRTTBHbUDRCKIRY8Aj84x//iH/i2srrcnR4vQUH4pAJf5NNNomCLtkZZ5wR9tlnn8AkngzvEL//wx/+0Pq7/fbbLxxzzDHhscceC/BLhiCH5UorrRQ9KBhtP/TQQwOhLTxbeJ2SIfgRI8UkUJ5Lwmz0abJf//rXUVAicoo5HIQt6ddimXxmt912CyeddFKpvunKZyPHGLHMjgkoODpm1K2vaLaHGBHAl9eWW24ZLrzwwprZfvnll/FzfBFfcMEFcWX2zTffhBNPPDEmPg4cODCQfJjsd7/7XfSCsFpsJuvK/mhPcLTF5MUXX4xJjbvvvnv461//WvUyhMYnn3wSJxRyL0j83WmnnUa69osvvgjzzjtvnAwJG1x//fVtCo5pppkmrrzxWD333HOxnJlnnjlOkojJZKzUWWlTHxM2QoZJkUnzz3/+c5y8c1m9BUfy4nGPhxxySGw297PeeuvFcCPiYPrpp4/3CQO4kJ9DzgrWGcGBIEekIFzI92HXCc8gHpEDDjgglsuCgP5HqNPGAQMGRO/V8ccfH5OGsSQ4EDezzTZbDIWRM0Soi3Gx4447xn+Th4VXpFbrymej1jZ5XX0JKDjqy7PpSmu2hzi5knfddddwyimn1MwLdz5fkNW+xMg5IPeAnI/k8meFxwq9cuVVc4WZLuzK/igrONiJAjdEIRNc0buUcDAZ4j7HCNswMRIqqTRCBVdffXUUfeSUtCU4CN1MMMEEMXESb8iss84ak4dJRGWiK/b3ySefHHfF4CHjPzwd8MSTQiiJyRMhm8PqJTiY0G+77bYYMuSeE2c8NYQuyItBZHB/yfAgkSvDhI6HobOCA2GOMEuWdoYV83XOOeecsN1228Xw2f777996LSITscPOsiQ4yKdBcFQuHhCB5BCRT8SOp1qtK5+NWtvkdfUloOCoL8+mK63ZHmLc5nxx4XJlAknGKo84f9GYyM4///z4q5STwQqqcicDMX3yAIpfqKzMWK3zZd1M1pX9UVZw7LXXXtFjxNbXjTfeuCo2JnUSe/EcISIQHQgL8hGSpaTgouejLcHBRIZQxHPFVuZk5HSQCzDllFOGN954I4Zr9t5777jSJm+HcEHKGWHiTLlA9He1nITRHQOdFRzFbbHFNjBRE0ohJIWR/4CoqPTUpc+kXJmUANwZDwceEjxEyWBPOIrwYxKReInof3I8yB8pWmXSKB5GvDAIRkTfYost1ppQ3BneXflsdKZ9fmb0CSg4Rp9hU5fQbA8xO0eYWFhFsTpORoIayWwYKyjCJkXBwWqbLzdixpWWvqxx5RLrxlZbbbWY68Hk2EzWlf1RRnAQPtljjz2iq/6oo46qCRneIyZMJnj6APGBe538HHZnkBuQzkBpL6TSVmVp8sNTxeqf9tFOVtlFgcPnkxipzGmo6UZquKizgoMJHRGRjGRpPEj8x+6dZCSBEiaslijNNSRPE8IiWRa+9RAclMt4ZAFAuAqjDQgTQi6V59dU26XCc8v9kXM144wzxrLIs0LwMx7KWFc+G2Xa5bX1I6DgqB/Lpiyp2R5iMu8RDmyzJAxSzZhgiP/XKjhSAh55BKyqMZLeWDm3tV2zUZ3Vlf1Rq+AgfEFcH9c4SZ1lkjDxVLFVFo8E52Dghj/66KNjeex2SYb4u/LKK+N22wUXXDCGQ6rtUCr2C9t2SXJkMmQiI6SGq//xxx9v9Qyk6ykbNz55ECQx1ts6Kzgqt8XSdjwBhI8416Ss4GDnFblMuQQHuU94O2oVHLSfrecsFggVETJNu884U6e4g6ajPunKZ6Ojtvj3PAQUHHm4Nk2pzfgQ4zpmRcR/7EaotGqCgxUtX2R4Pypd5pyUyUSGu52wAMYXIImLfLE3k3Vlf9QiOFjN/v73vw9sVSY0Um1VSh4FniUme3YOFS2JAHILCIGkE147Yn7JJZfEbZuERh555JG4gv/FL34x0sdSiIe6OdU0iQq2+hZ3bPChdLgY5ZGHUm+rl+CgXYxVxizePsQXhjhOB5iRR1FpiCi8RISPCDOR5IknCnaEmJK1t0ulMqTCZyo9HMmrRE4MHoui1XoOB6EikkXpX/q5VuvKZ6PWNnldfQkoOOrLs+lKa8aHmBUxK+N0LkM6SCrBSztZih4OMulJQOPLrHI3AuETVlN4M4qr6qbrjP99wXfV6acdCQ4EHDF9vEl33HFHjMVXM7jDnxUsrvKipdwCwivsNiH5sdr9cY4HOzCYTOlXvCj0OxMSuzBY7RfFIeWww4U8nA8//DDma5C/M8MMM0Rhgyu/OG4QTYQraEe1Y9xHdyzUU3AwvgmLIIzgjqWkUXaH4LErblPlPBSSoUkaJZyE4cnbZZddoggrnvJK7sUss8xSdVtsLYKDnClCJOxmYXtuMtpHHhUCJyWNskOJscGOFDyWyUg+ZizRTyk3pBb+zfhdVUu7vaZ2AgqO2ll1yyub8SHmC4nzH/iyZZLhaGu2QeLG5cuYeDyxauL1bM/E8FbgSiZHgC/FtC2Wa/jiqzxAiQmOLHri/mVCBLk7uSv7oz3BQXIlEwK7IZgUirsiEgPaCjsmMfINON3z73//exQC7C5BPBBCYcJj4mvP2srhIKkyHdyGJ4XVOr/Dm8K7Uiq35zIJkhxM+IzJjmRS8nZIOubE0mregXr0aT0FB+0hKZdQVgoX8bt0bglhDe4JccUppVtssUV8LugnjqPHkhcQdog2rmVHECKEn9XO4ahFcJC8y7ZYdsuwLZZy2JKOAEkJ3ElwMC64Fk8I1yKIOEUVMcR2X55rwmu1Wlc+G7W2yevqS0DBUV+eTVdasz7ETFhMHhytjQApGqs7JhySQIvGapdVci0HfzFB8sVbzTXcyE7qyv5oT3CQr3HRRRe1i4Ktm/QPxmSHJ4IcnKLh4aCcynBIZcHtJY3iaUG0sLIvGnkeeLSKnhdCBojLyrazNZoJvNppp/Xo73oLDrxx6ZwSvBbJW8NkzUTd0cFf3FMKqxTvDyGDxwExWXnwVy2Cg7IQ+ywIilvKeZ7YtUIoqHjwF8IejxULgqIRNiL0NeGEE9aMvyufjZob5YV1JaDgqCvO5ius2R9i3OXE/xEGbHclJEJSXVsTWDranPMLOCiKd6ZUO9r80UcfjWW2tb2zUT3Vlf3BgVtwIhcCVkVDALBqbs9YsRKuSsbqlcmRMpnY8UYwadZi5CjgBWEiS3kLxc+lfiUpkkmKnI32XsbGpEiCIjy5lv8qQ3O1tKvWazojOFjdw50zZ6oZHh28BBw5XgwDsfUVz0c62pywV+XR5qk8+pDdQHh68DzBlp0uvIOo8mhzPCWVW125LzwUleeX4GUiREU4Jx1tTpt4rjjLoygC8YDQBrwxjAvagTeybH905bNRa797XX0JKDjqy7PpSvMhbq4usT+aqz9qbU1nBEetZXvdzwR8Nsb8kaDgGMP72Ie4uTrY/miu/qi1NQqOWkl1/jqfjc6z6y6fVHB0l57qZDt9iDsJLtPH7I9MYDMXq+DIDFgPR37ATVCDgqMJOiFnE5zgctItX7b9UZ5ZM3xCwZG/F3w28jNudA0Kjkb3QOb6fYgzAy5ZvP1REliTXK7gyN8RPhv5GTe6BgVHo3sgc/0+xJkBlyze/igJrEkuV3Dk7wifjfyMG12DgqPRPZC5fh/izIBLFm9/lATWJJcrOPJ3hM9GfsaNrkHB0egeyFy/D3FmwCWLtz9KAmuSyxUc+TvCZyM/40bXoOBodA9krt+HODPgksXbHyWBNcnlCo78HeGzkZ9xo2tQcDS6BzLX70OcGXDJ4u2PksCa5HIFR/6O8NnIz7jRNSg4Gt0Dmev3Ic4MuGTx9kdJYE1yuYIjf0f4bORn3OgaFByN7oHM9fsQZwZcsnj7oySwJrlcwZG/I3w28jNudA0Kjkb3QOb6fYgzAy5ZvP1REliTXK7gyN8RPhv5GTe6BgVHo3sgc/0+xJkBlyze/igJrEkuV3Dk7wifjfyMG12DgqPRPZC5fh7iQw89NHMtFl8rAfrC/qiVVvNcx6vZsWWXXbZ5GjWGtYTnoqWlZQy7K2+nSEDBMYaPh7QyG8Nv09uTgATGAAKHHHLIGHAX3kJbBBQcjg0JSEACEpCABLITUHBkR2wFEpCABCQgAQkoOBwDEpCABCQgAQlkJ6DgyI7YCiQgAQlIQAISUHA4BiQgAQlIQAISyE5AwZEdsRVIQAISkIAEJKDgcAxIQAISkIAEJJCdgIIjO2IrkIAEJCABCUhAweEYkIAEJCABCUggOwEFR3bEViABCUhAAhKQgILDMSABCUhAAhKQQHYCCo7siK1AAhKQgAQkIAEFh2NAAhKQgAQkIIHsBBQc2RFbgQQkIAEJSEACCg7HgAQkIAEJSEAC2QkoOLIjtgIJSEACEpCABBQcjgEJSEACEpCABLITUHBkR2wFEpCABCQgAQkoOBwDEpCABCQgAQlkJ6DgyI7YCiQgAQlIQAISUHA4BiQgAQlIQAISyE5AwZEdsRVIQAISkIAEJKDgcAxIQAISkIAEJJCdgIIjO2IrkIAEJCABCUhAweEYkIAEJCABCUggOwEFR/BomE8AACAASURBVHbEViABCUhAAhKQgILDMSABCUhAAhKQQHYCCo7siK1AAhKQgAQkIAEFh2NAAhKQgAQkIIHsBBQc2RFbgQQkIAEJSEACCg7HgAQkIAEJSEAC2QkoOLIjtgIJSEACEpCABBQcjgEJSEACEpCABLITUHBkR2wFEpCABCQgAQkoOBwDEpCABCQgAQlkJ6DgyI7YCiQgAQlIQAISUHA4BiQgAQlIQAISyE5AwZEdsRVIQAISkIAEJKDgcAxIQAISkIAEJJCdgIIjO2IrkIAEJCABCUhAweEYkIAEJCABCUggOwEFR3bEViABCUhAAhKQgILDMSABCUhAAhKQQHYCCo7siK1AAhKQgAQkIAEFh2NAAhKQgAQkIIHsBBQc2RFbgQQkIAEJSEACCg7HgAQkIAEJSEAC2QkoOLIjtgIJSEACEpCABBQcjgEJSEACEpCABLITUHBkR2wFEpCABCQgAQkoOBwDEpCABCQgAQlkJ6DgyI7YCiQgAQlIQAISUHA4BiQgAQlIQAISyE5AwZEdsRVIQAISkIAEJKDgcAxIQAISkIAEJJCdgIIjO2IrkIAEJCABCUhAweEYkIAEJCABCUggOwEFR3bEViABCUhAAhKQgILDMSABCUhAAhKQQHYCCo7siK1AAhKQgAQkIAEFh2NAAhKQgAQkIIHsBBQc2RFbgQQkIAEJSEACCg7HgAQkIAEJSEAC2QkoOLIjtgIJSEACEpCABBQcjgEJSEACEpCABLITUHBkR2wFEpCABCQgAQkoOBwDEpCABCQgAQlkJ6DgyI7YCiQgAQlIQAISUHA4BiQgAQlIQAISyE5AwZEdsRVIQAISkIAEJKDgcAxIQAISkIAEJJCdgIIjO2IrkIAEJCABCUhAweEYkIAEJCABCUggOwEFR3bEViABCUhAAhKQgILDMSABCUhAAhKQQHYCCo7siK1AAhKQgAQkIAEFh2NAAhKQgAQkIIHsBBQc2RFbgQQkIAEJSEACCg7HgAQkIAEJSEAC2QkoOLIjtgIJSEACEpCABBQcjgEJSEACEpCABLITUHBkR2wFEpCABCQgAQkoOBwDEpCABCQgAQlkJ6DgyI7YCiQgAQlIQAISUHA4BiQgAQlIQAISyE5AwZEdsRVIQAISkIAEJKDgcAxIQAISkIAEJJCdgIIjO2IrkIAEJCABCUhAweEYkIAEJCABCUggOwEFR3bEViABCUhAAhKQgILDMSABCUhAAhKQQHYCCo7siK1AAhKQgAQkIAEFh2NAAhKQgAQkIIHsBBQc2RFbgQQkIAEJSEACCg7HgAQkIAEJSEAC2QkoOLIjtgIJSEACEpCABBQcjgEJSKBNAkOHDg2PPPJIePbZZ8O4444bFlxwwbDwwguHccYZR2oSkIAEShFQcJTC5cUSaAyBQYMGhdNPPz088cQT4e233w4ff/xxmGCCCWpqzLfffhtuu+22cMkll4SVVlop7LzzzjV97oYbbgi77rprmHnmmcPcc88dWlpaAu344Ycfwtlnnx0WX3zxDst56KGHwrHHHhvbjXiZb775wlZbbRW23HLL0KNHj9bPcz+HHnpouOOOO8Jnn30W5p9//rDTTjuFjTbaaKQ6XnjhhfCXv/wliqCvv/46zDHHHGHjjTeO7ezVq1frtb/+9a+jSKpm8Jthhhk6bLsXSEAC9SWg4KgvT0uTQN0JHH744eHggw8eqVxEREeC44EHHggXXnhhQDh89dVX8fMnn3xy2G233TpsI4Li6KOPDldeeWVYdNFFR7r+1ltvDTvssEM499xzw8orr9xmWbfccktYZ511wo8//jjKNSeccELYc8894+9p229+85vw2muvjXLdSSedFP70pz/F3yN2lltuuTBkyJBRrkNwnHLKKfH3I0aMCBNOOGH4/vvvFRwd9rQXSKDrCCg4uo61NUmgNAEEAx4BbJdddgkDBw4M008/fZh00kk7LIvr3n333bjy/+mnn2oWHC+99FJYccUVA96JmWaaKVx//fXhzjvvDL179w6bbrppDKk8+eSTUUz85z//CZNPPvkobaG+X/3qV2Hw4MHRq3L55ZeH4cOHx888/PDDoV+/fuH9998PPXv2jB6QfffdN0wyySThnnvuCXPOOWfYf//9o4D4xS9+Ed555534c6mlloptwnuB6EFUbLPNNuHqq6+O9/jJJ5/EMj799NMw5ZRTxjY9//zzo3gz+vbtG+vVJCCBriWg4Oha3tYmgTgxTjPNNFEEECYhdIAxcW6wwQbx/9944404KTNpf/jhh+GYY44J++yzTyl62223XZykBwwYEKaYYoqaBccWW2wRFlpooRimOO644wLeCEIgtPuyyy6LooBy8TwgNg488MBR2oVoIQyDPfjgg/F6rCigCIlMNNFEYZVVVomCZvPNNw8XXXRRvA4xMu2008b/v/fee2PuCGIC4xquxfDiLLvssvH/X3755RhiQWQQuiFk891334Xxxx+/FDcvloAE8hBQcOThGkv9acTPq8pWI2TdUlFhtd/975JePf8vJp2xmRbdAAKIAPIVWPFfe+21sQVbb711uOCCC8IiiywSHn/88XD77beHVVddNa7kjzjiiPi3t956K06mhx12WFh++eVrbnnKl+gopEI4Au8AgoEJHtHzt7/9LeZJYKuvvnoUAmeddVb0buB1wetQaXgzmOyxokfhgAMOCEcddVSYbrrpYi4KnoZ55pknvPjii2HvvfeO3g6MdqTEVO4bEUQYCevTp09rvsb5558fvT54X8gDwROCeEHE4AX6wx/+EJ5++un4GTwtiCiu1SQgga4noOCoM/OW0BKe+fi5cNdHD4Xb3vxn+GGcoSH0qFQZHVXaEvr82CcMmPl3YZV+S4f5+s0X/i+9rqPP+vfuQID8h2233TZMPPHEcaJkBwjejDfffDNOyPvtt18MK5BHUc3I3yCsMddcc9V0u7UKDsIR8847b/SqEMogufL1118Ps8wyS6wnhWYIYZB7Meuss0bPRy2GwMBT8fnnn8f7IoyCEbbhb/y7eL+pzYRWEAqV9uWXX4b+/ftHEbb99tuHM888M17Czx133LFqk9Zee+0o8IoJq7W03WskIIHRJ6DgGH2GrSUgNm4ZfGc4/ZULw9dDf17dja79YrwJwn7z7hKWmWaJ0EPZMbo4m+bzH330UfQU4AnAm8FqfPbZZ4/te/XVV8Nss80WEzPxJDC5X3zxxWHdddeNXoUVVlghfPPNN9Ejct5559V0T2UEBx4H2ocISGKg2q6OMoIDcbDMMsvEnSNLLrlkDMuMN954NQmOal4ZdrystdZa0UsEq3//+99RvGHkrdx4440xlwOhQkgFIUPyLfbYY4+NkghbE0Qv6rYESJx+5pln2m0/4zOF57rtjTZ5wxUcdeygZz99Puw96Ijw1Y8/u37bMtLVZplwhjD9RP3Ce998El7+5q3Qsx0nyCS9+oZj+x8Y5u83bx1ba1GNJoCL/+67747bQQljkMtB7gSeC4wcjHPOOScstthi4dFHH21tLvkU5DGQPEm4oBarVXAQyiCMwvZTJmrCKoRM0hZYJn9+j0fhqaeeijte/vWvf7XbBMQRIQ6SRfHisKV1qqmmav0MXhK8KG15OAjpIL6SseuF5NWrrroqlkOOCLkb7dmwYcPivbBzJXmQauHmNd2fAGL3j3/8Y/jrX//a7s1wzX333df9b7iJ70DBUcfOOeGFM8K1b97RZolz95ktbDjnGmGBSecOE4zbN/Qdt0/47qcfwpAfvwnPf/xiuPuLh8ID7z1eNQKz3gy/D3vOv30dW2tRjSaQXP9s9Zxsssmiq5/cjIMOOig2ba+99gonnnhiDHE899xzrc0lWZOJn5U93pBarFbBQVl88S6wwAJRTJBjwrkYZ5xxRgydbLjhhvEcDATA7rvvHoUSeRltGRP8GmusEf75z3/G3TX3339/a3gmfYZtt5zTUdzaSv4HuR8YybTrrbde/H88Qnh2EFx4he666664pbZohIMI/fD54m4eEnU/+OCDUYRNLfy8pnsSINzGWEGY4xFrz/CCrLnmmtHLgWdPqz8BBUedmJIguuLt64cfWioSRf9/TLlfnynCdnNsEVaaZunwY8uP4do3bg3fjPguDO85LPRsGTdM2DJe2GDWtUKvccYLj37w73D0c6eEz4Z9PVLL+g7rHe5Y64pgImmdOqwJimFiJKxCciRJjezaSDstaB6Hdf3+97+PiZX8HoGBBwKPByGE1VZbLdx8883xTpig0yq+2q2VERzURdgGzwa7SDgojERMklfxLCCKCO2kEE+1bbG0gfasv/764aabboq7clg9prBRsY0InL///e/xvvB+0NZqu0+4d5JU8XiQHEpSbbXDx0hs5QwQkmoJ3WD//e9/W+tmi25Kgm2CYWATMhFAbJCz05HQqKwe4cFWcEVH/TtGwVEnpgiOpW9bPbSEkXeWTDvB1OGURf4Spugzebj4v1eHi16/KgxvqYyftIS+vfqETWddM2w8y/rhvSHvh50fPzB8URAdPcOI8MCqNyo46tRfzVLM7373u7jtE6sMkRA6YPVO3gNffmyZxdPBRIvxk1AFSaeczIlgoSwm7korIzj4LEmtRx55ZLsHf5E/QliomnEqKTtErrjiivhnhEdlgiueHVaTiIwlllgiXoc3hHM4EAXkYpDvkUI2hFzSLhbOCfntb387UtWwQmxceumlYbPNNot/Y8Ih3MIkgpCaeuqpo1cIIaWN2QQQHGmMlblTvHCIYwVHGWq1XavgqI1Th1dVExy9eowTzl3y+DB932nD0c+eEu754JFRt8UWSmYnypJTLBz2779b+GLol2HHJ/YPX/7ws6dDwdFhF3TLCwhVpKPGyeU45JBDRroPdq0wiZJTkYxkS8QAIReseOYFk+0mm2wy2oKDApik8SiwQ4VEUkQE+SUcbU5uSeWEX6yUkAY7b9qz4v2eeuqpcVssyaDJCCXhwUlf/AgWRENblnaq0E6SRPHEFMvjLJJrrrkmJq9qYwcBdjgR+itjeNvYhq3Vn4CCo05MqwmOtadZJew6/8Bw1FMnhrs/fjT0CC1hiakXCY98MCiM6DGizZrXmHbpsM8Ce4bLB18Xznju54OQFBx16qgmK4a8CEIEGKGFartBCE2QGIl3g1wPVm2V17Fbg10ZvHuk+E6RdLvkXWB4RCqPKm8PSXp5Gxn+lIsXoZaXtxH+SLtC2iq/clcAHg08NGlrLt6PtJOFMhBn/K0tI+GWMFMy8jUoj58kq8ItHR7WZMPA5mQigLeCfi9jhAvJYdLqT0DBUSemlYKDVdYdK14anvvi5bD3k0cG3lO1y9xbhg1nXjsc/dQp4ZYPfnajV7OeoSUcPN8eYZFpFwxbPLxb+GTI5wqOOvWTxUhAAmMPAcIqvHywjH3xxRcK0zLASlyr4CgBq71LKwXHGjOuEPadb9dw5NMnhVvfvT8eMXr98ueHqSfoF94e8nbY6IH239jZf4o5w98WOz4cMOjocO8Hjyg46tRPFiMBCYxdBNipxNbYWozwHWFMLQ8BBUeduFYKjg1nWi3sPM/WYcnb1go9Wgim9AjXLXd2mKbvL8M1b9wUTnzx3HZrHq9nr3DPKteE6wffHE56/nwFR536yWIkIIGxhwDhlDLJnwgTwm6880erPwEFR52YVgqOnWbeLGw419phmdvWaX19yk5zbxE2mXndcOBjR4d7P/u/g5yqNWGc0DOcu+DRIfTpEbZ6eG8FR536yWIkIIGxhwBn1pAAWmtOBud1sCWbM2i0+hNQcNSJaaXg2GGmTcNGc68Tlr1t7ejdwKYYf7Jw4eInhy+HfRn2GHRI+OT7L9qsvWePHuGc/seGHn1C2FrBUadeshgJSGBsIsAulRlnnLHmszjKXj82sazHvSo46kHxf2+GLZ7DseGMq4ed5tkqLHPbWq2Cg6pWmHqJcPhC+4ZXvnw17P3kEeHjoV+EiVsmCItP/5tw+7sPtrYmhlQGXBuuf/fWcNIz5+jhqFM/WYwEJDD2EGCXCh6Lyu3mbRHAI4J3o0wYZuyhOfp3quAYfYaxhEoPx2ozrBz2n3+ncOSzJ4dbB//fjhR8HatNs1zYr//u4YMhH4Vb378nrDz1smH6SaYNV75+XTj5pQvjS9rmm2SOcM6Sx4f9/nNUuP+9xxQcdeoni5GABMYeAuk9KpwcWotxUFyt19ZSnteMTEDBUacRUXVb7AqXhWe/eD7s+9QxrXkcqbqFp5o/bDfrpmGOSWcPHBDG2aM3vHVzOPaFs0MIPcKBs+8YFp950fDHh/YIH3/zmYKjTv1U72LSsdycKcFqinMreLkZxkmcvPejFjvppJPCnnvuGQ/L4tyNMdUOPPDAeGgYK05eVjemWnE7JuPCw8Ya19M8o7UmgZJk6gvc8vWVgqNObKsd/LX1LBuHNWZeMaxzz8AwPFQ/6GvxKRcMC0wxb/hp+LBw3Tt3hk+//yKsNPXi4ZCF9glXDL4+nPbc32MLPfirTh1V52IUHOWAcgQ7B5ituuqq4dZbby334W50tYKjeToLrwUhklq2xrJDpaO3yjbPnXW/lig46tRn1QTHif0PDrNONmNY857aVrk0ZeGJ5gkHLLRn+GbEt2HnJw7waPM69U+uYhQc5cjySnuOF8fzw+mfY6opOJqnZ1NYhaP62zNe8oYnxNNo8/WdgqNObBEcS96+ZujR0jOWSK7G/QOuDZ/88FnY4L5tQmjpEeboO0t45fs3wojKd7eFEMbv2StsONPqYYvZNw7vf/9h2PnRA8KXw4a0to7TRx9Y9QZf3lan/qIYvohwn77xxhvxra28IZX3bRSNF6PhEh88eHB84ykvW+vXr1/rJWUEx9tvvx2PKOc4c15QxttMU/ilGFLhle68zp33p/AOE+qsPK6co8Yff/zxMGTIkPjSt6WXXrr1GHDafOaZZ8Y2/vnPfw6vvPJKfAHaxBNPHN/LwvHoReNNqrxVlRe8rbzyyvF9JZRNucU3bVIXR4W//vrrkRft5/X0RYMpZXF40lRTTRWWWmqpkU56vOSSSyLv+eabL6yzzjoBJry7Att///3ja+p5Ey4vWeNNubxkrdi+AQMGVD3+vXJYEJbinp9//vn4mnpCGrxtt9I4xpp75UV5Cy64YHw/DG/nbc94Twvlc//cH0YZHC+PHXzwwfG+0gmXKaTCO2hOPvnkGHZjDG233XaRuZafAMmgsG/P+LvbYfP2hYKjTnyHj/gpLH/7+mFYej09r9gecG34YfgPYdyevcK4PcYNPXv0DD/8NDRc/fqNYWjPH8NPLT+Gnj17hT4jxg0bzrpOGHecXuHpIc+Hgx49Pnwx7KuRWtb3x3HDHWtepeCoU38hNHj7avHdHLzy/OKLLw5rrrlmrIWJkBerffvtt621MnmdffbZrS9Iq1VwnHjiiWG//faLE1uyWWedNb7xlZ9JcCAseBNqeiMs1/IG1euuuy6+xh4xsvnmm0cvQdEQJkx40003XRQqvPgM4xXy1157beuliKbHHnssTD/99PF3p59+euDLmJetYQgg/sYkTz0XXfTzu3x4o+t6660X30uSDF4ICNqH8Tp7RASCKhlt5j0uBxxwQPwVb5e9++67Iz9eNFd8DT3veUmTNtciygYOHBh4S2xq34QTThhuu+221om+2nB47733AsKE0E0yJvaDDjootgX77rvv4vkMlRx5ay0r4UrhWawH4cabeXmBHiIJK74kjLa+8847IwkOBOFWW20VxxSMEZTpDbnV7sHf1ZcAfUpopT3zpW31ZV6tNAVHHRkf+/yp4Ya37o4lTtCzT7hi+TPC8BEhfD70s3DfB4+EH0YMC/NPNHuYf6p5wy96TxR69+wdho0YFr4c+lV4d9gH4erXbgkPfvB4lRa1hHVnWjXsNe+OdWzt2FsU70pgMsMTwKvceUkYq1AmYiYTVvCIDIQAAmGbbbaJExiT74033hiY9PB4cGRyLYKDlTYTDsZr2okn89p2JiUmHSbqJDi4hlU217Nqpl0YnhFW06yumeSY7I877rjQp0+f+G8mWV4Hf9lll40kOBAYvNANYYWYwpjAKYe3zJJTwQTJT+7xxRdfjG9oxZLg+Oyzz6Kn5aOPPgr9+/ePgmjQoEHRkwEvXvfOBD377LNHdhtuuGHYcccdo2g65phjYlm8ZZaXq7UnOHgrLQKJNqT8DrwNCAM8HfD/6quv4gvaUhurjWI8VbSNF9zRFrwtSVggdvj7HnvsEWP18Ntyyy2jCIAP94qAop/bss4IDvpyn332iUVyH7DVuo5ALS9xY5y4HTZvnyg46sj3+U9eCHs8dXgY8uO3Ycq+k4XhPw0Pnw8d2VNBday25pr0V2HK3pNGT8Zzn706yi6WYrP69p4gnNz/L2HeKeasY2vH3qIINzAhsiPkww8/jCEGVqy//OUv48qXyYxJn7AFhiiZYIIJYmgCoYI9/PDDYfHFF69JcGy88cZRYFAmngKsuLLHI8Bkxy4VPByELpgAET1MbsOHD4+CBE8EIQKEEoKDN7difI6/EzJg8i96OJh4cf1jaSLGC4HXg9fBH3/88THkwJdtCo/wNllCG0lwJDFEW7gOoYUQm2OOOeK/eYsrogAhhl1++eWBe+aa0047Lf4OkUIYpT3BwSmPhHEQQIQcPv/88+gVOP/882MZvGYcTwLCBGFTzQgH8Rp7DG8JISKM3QdMOnis8EwQssFbhMeDEAh25ZVXRnGGwbFaCIa/lRUchLXwcPEGXXbpdPQW3bH3ycx354T6GLftGS/c1PISUHDUkW9LaAlXvXx9uPDtK8PXP37XroiopVqG/4Tj9Qm7z7xVWG22VWr5iNfUQACPBVtWmbDJF0jGlxKTAhNw7969w/vvvx9X6I8++mgUJsTgUwiGXAYmsVo8HHgHWLUz2aUJGBHBaj1NYEyk1bbFIobwyBAOOOyww+L1d911V9xairCgzQgUxAnhFLwmRcGBJ4LcBAzvCiv9tEOE/AxW8ng2CFMkQ6AQckqCg/AHIgJBUnzVN6IJrwfbWwnNpPIQTZSBcCEMg/ckWXuC47XXXmtNJEXMMOnvtddeURRhTNaIBcQI/VHNrr766hgqwxByKTTyzTffxLwLXnePZ2eRRRaJ1xT54N1I11911VWRVzUrKzhSGZx4SagKoat1PYE777yzzUp55pdccsmub9RYVqOCo84djuh44bOXwp0f3htuf+O+8F3PofHlbWWspUdL6NMyfhgw03JhlamXC/NMMVc8DEyrDwFW43gUCKW0teceYUH44N13342hAFbKTOoIA6yM4GBFjieAlS5hkGrW1jkclYKDiR8BgG266aZxgsaLQVimrOAgZ4IvYSZoVvfJKgVHEhJt0UfAIYDwGBCmuOCCC0byQBDWgDeTfW7BQbiCEAmGyGAiqbRiiKvoyUBQEmLB2K2Qyqn8fGcFB+XgXdt+++3rM5AtRQLdjICCI2OHsXNldKxXz16j83E/2wYBJv4TTjghxmvZMZF2CjD5EgbArU9YhZU7kySreLbKIRoQD2UFB/kYTHKbbbZZax4FXgk8BBgT/FlnnVWTh4NVGOEcJnHCNBg5Gccee2xpwYEHg6RP7pdwRluCI3mE8Drgqam2i4PJmnuC5eSTTx7YFoo4wiuBkfRK0l5uwYH4InSEFT0meDJIeGV3DfkgKVyCZwcPD4b3gTwUrBiKqhxG6XXnhx56aOuR2e0ljRJ6m3vuuaNXDbHy7LPP1rTTxgdYAmMaAQXHmNaj3k+HBMijSDsEcJ2TJEh8n4mHOC4TOmKAZEwEB/kCJF+eeuqpMY+irOAgDMDEy0RM8ifbJfF0MGGxAicno1bBwVsvyS1JO1fIPWFXDYKmrIeDBFO8JBh5EuRdsLODpEzCESmkQggn5ULABIGDEb6AJd4NfqYtouRRIE7weBD+QIhwDcKl3oLjpptuirkaJIGS5ItXg2RRwlD01RFHHBETahEhJPqSs0F4Co5M/LSZMBM5M4S8EGCEVRBM9A2eIziRS7LwwgvH+04hMrYrw4C8H8Rk8pZV7lLh93jL+FzaQUNSrFtiO3xUvWAMI6DgGMM61NupjQATLRNJpSE6brnllrg6ZlJi0sTNzqoYYZAsJSTWksOBKCBfhBV0pbFbhAm81pAKeRzpRVScc0HZeBcwBA2hoFpzOMhpIJGVw7iqWRIciDDEQkreLF5LMi07UBAYhGjYBcJETY4EHiEmbtqJSCJRs56Cg3wb+oUJP22zpW0pKbjyntjuS1tpDwINEUX/Fg0RQPgnCTHyXzirIx1dz7XJo1T5uZR0WG1bLJ8v5pe0F7KpbQR7lQS6HwEFR/frM1tcBwIcvkRYBQ8HYRW8A+QyMJmkOD5eDlbDTMiEUgixcJ4EyYVJKNQiOGguYRl2Q3D+AsKFczKI5TOpM8nVKjiYzEhk5cwAvBCEWFhpk3CKkejK7o50Dkd7SaNcT1vYrcIWVhJluR/aiMeCHIb0DgqSXPFS4AEgrIJHAC8RHoNUFzkuRx11VDzHAqFBkint45p0qmg9BQfthyEv2yKkkXaY8HtyUtg9g8eG3TMwwttBPycjYZjfpYO/8ELAMYVYuI6/49niDJXk3ULg4elh7PD/5AKxCyflZrQlOCgP7xHeDcQhbWNnlCaBsYWAgmNs6WnvUwJVCODiZ4stngKM8Ae5LYgWJlXCQZoEJCCBehBQcNSDomVIoBsSYCXONle8L4QkEB3/+Mc/YtiBrZvkOKRzR7rh7dlkCUigyQgoOJqsQ2yOBLqKADkcu+yySzj33HNjsmwytuKSxNrWORRd1T7rkYAExiwCCo4xqz+9GwmUJkByJ0mU5ISwLZQER8IsmgQkIIF6ElBw1JOmZUlAAhKQgAQkUJWAgsOBIQEJSEACEpBAdgIKjuyIrUACEpCABCQgAQWHY0ACEpCABCQggewEFBzZ9nUhkgAACVxJREFUEVuBBCQgAQlIQAIKDseABCQgAQlIQALZCSg4siO2AglIQAISkIAEFByOAQlIQAISkIAEshNQcGRHbAUSkIAEJCABCSg4HAMSkIAEJCABCWQnoODIjtgKJCABCUhAAhJQcDgGJCABCUhAAhLITkDBkR2xFUhAAhKQgAQkoOBwDEhAAhKQgAQkkJ2AgiM7YiuQgAQkIAEJSEDB4RiQgAQkIAEJSCA7AQVHdsRWIAEJSEACEpCAgsMxIAEJSEACEpBAdgIKjuyIrUACEpCABCQgAQWHY0ACEpCABCQggewEFBzZEVuBBCQgAQlIQAIKDseABCQgAQlIQALZCSg4siO2AglIQAISkIAEFByOAQlIQAISkIAEshNQcGRHbAUSkIAEJCABCSg4HAMSkIAEJCABCWQnoODIjtgKJCABCUhAAhJQcDgGJCABCUhAAhLITkDBkR2xFUhAAhKQgAQkoOBwDEhAAhKQgAQkkJ2AgiM7YiuQgAQkIAEJSEDB4RiQgAQkIAEJSCA7AQVHdsRWIAEJSEACEpCAgsMxIAEJSEACEpBAdgIKjuyIrUACEpCABCQgAQWHY0ACEpCABCQggewEFBzZEVuBBCQgAQlIQAIKDseABCQgAQlIQALZCSg4siO2AglIQAISkIAEFByOAQlIQAISkIAEshNQcGRHbAUSkIAEJCABCSg4HAMSkIAEJCABCWQnoODIjtgKJCABCUhAAhJQcDgGJCABCUhAAhLITkDBkR2xFUhAAhKQgAQkoOBwDEhAAhKQgAQkkJ2AgiM7YiuQgAQkIAEJSEDB4RiQgAQkIAEJSCA7AQVHdsRWIAEJSEACEpCAgsMxIAEJSEACEpBAdgIKjuyIrUACEpCABCQgAQWHY0ACEpCABCQggewEFBzZEVuBBCQgAQlIQAIKDseABCQgAQlIQALZCSg4siO2AglIQAISkIAEFByOAQlIQAISkIAEshNQcGRHbAUSkIAEJCABCSg4HAMSkIAEJCABCWQnoODIjtgKJCABCUhAAhJQcDgGJCABCUhAAhLITkDBkR2xFUhAAhKQgAQkoOBwDEhAAhKQgAQkkJ2AgiM7YiuQgAQkIAEJSEDB4RiQgAQkIAEJSCA7AQVHdsRWIAEJSEACEpCAgsMxIAEJSEACEpBAdgIKjuyIrUACEpCABCQgAQWHY0ACEpCABCQggewEFBzZEVuBBCQgAQlIQAIKDseABCQgAQlIQALZCSg4siO2AglIQAISkIAEFByOAQlIQAISkIAEshNQcGRHbAUSkIAEJCABCSg4HAMSkIAEJCABCWQnoODIjtgKJCABCUhAAhJQcDgGJCABCUhAAhLITkDBkR2xFUhAAhKQgAQkoOBwDEhAAhKQgAQkkJ2AgiM7YiuQgAQkIAEJSEDB4RiQgAQkIAEJSCA7AQVHdsRWIAEJSEACEpCAgsMxIAEJSEACEpBAdgIKjuyIrUACEpCABCQgAQWHY0ACEpCABCQggewEFBzZEVuBBCQgAQlIQAIKDseABCQgAQlIQALZCSg4siO2AglIQAISkIAEFByOAQlIQAISkIAEshNQcGRHbAUSkIAEJCABCSg4HAMSkIAEJCABCWQnoODIjtgKJCABCUhAAhJQcDgGJCABCUhAAhLITkDBkR2xFUhAAhKQgAQkoOBwDEhAAhKQgAQkkJ2AgiM7YiuQgAQkIAEJSEDB4RiQgAQkIAEJSCA7AQVHdsRWIAEJSEACEpCAgsMxIAEJSEACEpBAdgIKjuyIrUACEpCABCQgAQWHY0ACEpCABCQggewEFBzZEVuBBCQgAQlIQAIKDseABCQgAQlIQALZCSg4siO2AglIQAISkIAEFByOAQlIQAISkIAEshNQcGRHbAUSkIAEJCABCSg4HAMSkIAEJCABCWQnoODIjtgKJCABCUhAAhJQcDgGJCABCUhAAhLITkDBkR2xFUhAAhKQgAQkoOBwDEhAAhKQgAQkkJ2AgiM7YiuQgAQkIAEJSEDB4RiQgAQkIAEJSCA7AQVHdsRWIAEJSEACEpCAgsMxIAEJSEACEpBAdgIKjuyIrUACEpCABCQgAQWHY0ACEpCABCQggewEFBzZEVuBBCQgAQlIQAIKDseABCQgAQlIQALZCSg4siO2AglIQAISkIAEFByOAQlIQAISkIAEshNQcGRHbAUSkIAEJCABCSg4HAMSkIAEJCABCWQnoODIjtgKJCABCUhAAhJQcDgGJCABCUhAAhLITkDBkR2xFUhAAhKQgAQkoOBwDEhAAhKQgAQkkJ2AgiM7YiuQgAQkIAEJSEDB4RiQgAQkIAEJSCA7AQVHdsRWIAEJSEACEpCAgsMxIAEJSEACEpBAdgIKjuyIrUACEpCABCQgAQWHY0ACEpCABCQggewEFBzZEVuBBCQgAQlIQAIKDseABCQgAQlIQALZCSg4siO2AglIQAISkIAEFByOAQlIQAISkIAEshNQcGRHbAUSkIAEJCABCSg4HAMSkIAEJCABCWQnoODIjtgKJCABCUhAAhJQcDgGJCABCUhAAhLITkDBkR2xFUhAAhKQgAQkoOBwDEhAAhKQgAQkkJ2AgiM7YiuQgAQkIAEJSEDB4RiQgAQkIAEJSCA7AQVHdsRWIAEJSEACEpCAgsMxIAEJSEACEpBAdgIKjuyIrUACEpCABCQgAQWHY0ACEpCABCQggewEFBzZEVuBBCQgAQlIQAIKDseABAoEBg8eHD766COZSGC0CfTr1y/MMMMMo12OBUhgTCGg4BhTetL7GG0CgwYNCo899thol2MBEkgEFltssbDQQgsJRAISCCEoOBwGEvgfgfPOOy8MHTpUHhKoG4HevXuHgQMH1q08C5JAdyag4OjOvWfb60pAwVFXnBYWQlBwOAwk8H8EFByOBgn8j4AhFYdCvQkYUqk3UcvrzgQUHN2592x73QmYNFp3pGNtgSaNjrVd7423QUDB4dCQgAQkIAEJSCA7AQVHdsRWIAEJSEACEpCAgsMxIAEJSEACEpBAdgIKjuyIrUACEpCABCQgAQWHY0ACEpCABCQggewEFBzZEVuBBCQgAQlIQAIKDseABCQgAQlIQALZCSg4siO2AglIQAISkIAEFByOAQlIQAISkIAEshNQcGRHbAUSkIAEJCABCSg4HAMSkIAEJCABCWQnoODIjtgKJCABCUhAAhL4f0z3uSrgl0WgAAAAAElFTkSuQmCC;clipPath=inset(11.33% 2.59% 12.67% 2.59%);" parent="cd4jFE94toDSuEVt0TMR-7" vertex="1">
          <mxGeometry x="350" y="110" width="249.35" height="444.16" as="geometry" />
        </mxCell>
        <mxCell id="cd4jFE94toDSuEVt0TMR-8" value="Upper" parent="0" visible="0" />
        <mxCell id="cd4jFE94toDSuEVt0TMR-6" value="" style="endArrow=classic;html=1;rounded=0;exitX=0;exitY=0.75;exitDx=0;exitDy=0;strokeWidth=3;" parent="cd4jFE94toDSuEVt0TMR-8" source="cd4jFE94toDSuEVt0TMR-5" edge="1">
          <mxGeometry width="50" height="50" relative="1" as="geometry">
            <mxPoint x="790" y="350" as="sourcePoint" />
            <mxPoint x="550" y="230" as="targetPoint" />
          </mxGeometry>
        </mxCell>
        <mxCell id="cd4jFE94toDSuEVt0TMR-5" value="Current&lt;div&gt;Ringing Order&lt;/div&gt;" style="rounded=0;whiteSpace=wrap;html=1;align=right;strokeColor=none;" parent="cd4jFE94toDSuEVt0TMR-8" vertex="1">
          <mxGeometry x="620" y="200" width="90" height="30" as="geometry" />
        </mxCell>
        <mxCell id="cd4jFE94toDSuEVt0TMR-9" value="Named Pattern" style="rounded=0;whiteSpace=wrap;html=1;align=right;strokeColor=none;" parent="cd4jFE94toDSuEVt0TMR-8" vertex="1">
          <mxGeometry x="620" y="250" width="90" height="20" as="geometry" />
        </mxCell>
        <mxCell id="cd4jFE94toDSuEVt0TMR-10" value="" style="endArrow=classic;html=1;rounded=0;exitX=0;exitY=0.5;exitDx=0;exitDy=0;strokeWidth=3;" parent="cd4jFE94toDSuEVt0TMR-8" source="cd4jFE94toDSuEVt0TMR-9" edge="1">
          <mxGeometry width="50" height="50" relative="1" as="geometry">
            <mxPoint x="790" y="390" as="sourcePoint" />
            <mxPoint x="510" y="260" as="targetPoint" />
          </mxGeometry>
        </mxCell>
        <mxCell id="cd4jFE94toDSuEVt0TMR-11" value="" style="endArrow=classic;html=1;rounded=0;exitX=0;exitY=0.5;exitDx=0;exitDy=0;strokeWidth=3;" parent="cd4jFE94toDSuEVt0TMR-8" source="cd4jFE94toDSuEVt0TMR-12" edge="1">
          <mxGeometry width="50" height="50" relative="1" as="geometry">
            <mxPoint x="790" y="300" as="sourcePoint" />
            <mxPoint x="580" y="170" as="targetPoint" />
          </mxGeometry>
        </mxCell>
        <mxCell id="cd4jFE94toDSuEVt0TMR-12" value="How Many Bells" style="rounded=0;whiteSpace=wrap;html=1;align=right;strokeColor=none;" parent="cd4jFE94toDSuEVt0TMR-8" vertex="1">
          <mxGeometry x="620" y="160" width="90" height="20" as="geometry" />
        </mxCell>
        <mxCell id="cd4jFE94toDSuEVt0TMR-15" value="" style="endArrow=classic;html=1;rounded=0;exitX=0;exitY=0.75;exitDx=0;exitDy=0;strokeWidth=3;" parent="cd4jFE94toDSuEVt0TMR-8" source="cd4jFE94toDSuEVt0TMR-16" edge="1">
          <mxGeometry width="50" height="50" relative="1" as="geometry">
            <mxPoint x="790" y="470" as="sourcePoint" />
            <mxPoint x="550" y="350" as="targetPoint" />
          </mxGeometry>
        </mxCell>
        <mxCell id="cd4jFE94toDSuEVt0TMR-16" value="Controls&lt;div&gt;to Swap Bells&lt;/div&gt;" style="rounded=0;whiteSpace=wrap;html=1;align=right;strokeColor=none;" parent="cd4jFE94toDSuEVt0TMR-8" vertex="1">
          <mxGeometry x="620" y="320" width="90" height="30" as="geometry" />
        </mxCell>
        <mxCell id="cd4jFE94toDSuEVt0TMR-17" value="" style="endArrow=classic;html=1;rounded=0;exitX=0;exitY=0.75;exitDx=0;exitDy=0;strokeWidth=3;" parent="cd4jFE94toDSuEVt0TMR-8" source="cd4jFE94toDSuEVt0TMR-18" edge="1">
          <mxGeometry width="50" height="50" relative="1" as="geometry">
            <mxPoint x="790" y="580" as="sourcePoint" />
            <mxPoint x="550" y="460" as="targetPoint" />
          </mxGeometry>
        </mxCell>
        <mxCell id="cd4jFE94toDSuEVt0TMR-18" value="Journal of&lt;div&gt;Changes&lt;/div&gt;" style="rounded=0;whiteSpace=wrap;html=1;align=right;strokeColor=none;" parent="cd4jFE94toDSuEVt0TMR-8" vertex="1">
          <mxGeometry x="620" y="430" width="90" height="30" as="geometry" />
        </mxCell>
        <mxCell id="cd4jFE94toDSuEVt0TMR-20" value="Ringing Controls" style="rounded=0;whiteSpace=wrap;html=1;align=right;strokeColor=none;" parent="cd4jFE94toDSuEVt0TMR-8" vertex="1">
          <mxGeometry x="610" y="280" width="100" height="20" as="geometry" />
        </mxCell>
        <mxCell id="cd4jFE94toDSuEVt0TMR-19" value="" style="endArrow=classic;html=1;rounded=0;exitX=0;exitY=0.5;exitDx=0;exitDy=0;strokeWidth=3;" parent="cd4jFE94toDSuEVt0TMR-8" source="cd4jFE94toDSuEVt0TMR-20" edge="1">
          <mxGeometry width="50" height="50" relative="1" as="geometry">
            <mxPoint x="790" y="420" as="sourcePoint" />
            <mxPoint x="580" y="290" as="targetPoint" />
          </mxGeometry>
        </mxCell>
      </root>
    </mxGraphModel>
  </diagram>
</mxfile>
